<?xml version="1.0" standalone="no"?>
<!DOCTYPE svg PUBLIC "-//W3C//DTD SVG 1.1//EN" "http://www.w3.org/Graphics/SVG/1.1/DTD/svg11.dtd" >
<svg xmlns="http://www.w3.org/2000/svg" xmlns:xlink="http://www.w3.org/1999/xlink" version="1.1">
<metadata>
Created by FontForge 20170731 at Tue May 12 20:05:35 2015
 By Aleksey,,,
Copyright 2015 Dalton Maag Ltd. All rights reserved. This font may not be altered in any way without prior permission of Dalton Maag Ltd.
</metadata>
<defs>
<font id="ARMOUR-Medium" horiz-adv-x="592" >
  <font-face 
    font-family="ARMOUR Medium"
    font-weight="500"
    font-stretch="normal"
    units-per-em="1000"
    panose-1="2 11 5 4 2 2 2 2 2 4"
    ascent="800"
    descent="-200"
    x-height="520"
    cap-height="714"
    bbox="-219 -831 2384 1160"
    underline-thickness="68"
    underline-position="-201"
    unicode-range="U+0008-FFFD"
  />
<missing-glyph horiz-adv-x="500" 
d="M50 0v750h400v-750h-400zM400 50v650h-300v-650h300z" />
    <glyph glyph-name="uniFDF2" unicode="&#x627;&#xfedf;&#xfee0;&#xfeea;" horiz-adv-x="1463" arabic-form="isolated" 
d="M479 100h226v614h109v-614h239v614h110v-714h-827q-140 0 -215 65t-75 185q0 103 59.5 163t162.5 60q211 0 211 -225v-148zM156 251q0 -75 41 -113t120 -38h53v129q0 84 -23.5 118t-81.5 34q-53 0 -81 -33.5t-28 -96.5zM785 1126v-173h-54v173h54zM780 802h46v108h43
v-149h-141q-82 0 -82 80v69h43v-63q0 -45 34 -45h14v108h43v-108zM1289 0v714h110v-714h-110z" />
    <glyph glyph-name="uniFEF5" unicode="&#xfedf;&#xfe82;" horiz-adv-x="602" arabic-form="isolated" 
d="M30 100h120v357h110v-357h168v614h110v-714h-508v100zM97 524q0 41 15.5 60t48.5 19q19 -1 34 -8.5t27 -15t23 -8.5q26 0 27 30h44q0 -41 -15.5 -60t-48.5 -19q-19 1 -33.5 9t-26.5 15.5t-23 8.5q-27 0 -27 -31h-45z" />
    <glyph glyph-name="uniFEF6" unicode="&#xfee0;&#xfe82;" horiz-adv-x="658" arabic-form="final" 
d="M30 0v100h120v357h110v-357h168v614h110v-614h135v-100h-643zM97 524q0 41 15.5 60t48.5 19q19 -1 34 -8.5t27 -15t23 -8.5q26 0 27 30h44q0 -41 -15.5 -60t-48.5 -19q-19 1 -33.5 9t-26.5 15.5t-23 8.5q-27 0 -27 -31h-45z" />
    <glyph glyph-name="uniFEF7" unicode="&#xfedf;&#xfe84;" horiz-adv-x="602" arabic-form="isolated" 
d="M30 100h120v357h110v-357h168v614h110v-714h-508v100zM287 554v-42h-176v42h22v51q0 35 20 54.5t56 19.5q35 0 52.5 -15t22.5 -50l-41 -6q-3 17 -10 24t-21 7q-33 0 -33 -36v-49h108z" />
    <glyph glyph-name="uniFEF8" unicode="&#xfee0;&#xfe84;" horiz-adv-x="658" arabic-form="final" 
d="M30 0v100h120v357h110v-357h168v614h110v-614h135v-100h-643zM287 554v-42h-176v42h22v51q0 35 20 54.5t56 19.5q35 0 52.5 -15t22.5 -50l-41 -6q-3 17 -10 24t-21 7q-33 0 -33 -36v-49h108z" />
    <glyph glyph-name="uniFEF9" unicode="&#xfedf;&#xfe88;" horiz-adv-x="608" arabic-form="isolated" 
d="M30 100h120v357h110v-357h168v614h110v-714h-508v100zM281 -189v-43h-176v43h22v51q0 35 20 54.5t56 19.5q35 0 52.5 -15.5t22.5 -50.5l-41 -5q-3 17 -10 24t-21 7q-33 0 -33 -37v-48h108z" />
    <glyph glyph-name="uniFEFA" unicode="&#xfee0;&#xfe88;" horiz-adv-x="658" arabic-form="final" 
d="M30 0v100h120v357h110v-357h168v614h110v-614h135v-100h-643zM281 -189v-43h-176v43h22v51q0 35 20 54.5t56 19.5q35 0 52.5 -15.5t22.5 -50.5l-41 -5q-3 17 -10 24t-21 7q-33 0 -33 -37v-48h108z" />
    <glyph glyph-name="uniFEFB" unicode="&#xfedf;&#xfe8e;" horiz-adv-x="602" arabic-form="isolated" 
d="M30 100h120v357h110v-357h168v614h110v-714h-508v100z" />
    <glyph glyph-name="uniFEFC" unicode="&#xfee0;&#xfe8e;" horiz-adv-x="658" arabic-form="final" 
d="M30 0v100h120v357h110v-357h168v614h110v-614h135v-100h-643z" />
    <glyph glyph-name="f_f.liga" unicode="ff" horiz-adv-x="712" 
d="M453 430h-81v90h81v30q0 82 45 127t125 45q53 0 98 -14l-17 -85q-30 9 -60 9q-37 0 -57 -20t-20 -59v-33h126v-90h-126v-430h-114v430zM97 430h-81v90h81v30q0 82 45 127t125 45q53 0 98 -14l-17 -85q-30 9 -60 9q-37 0 -57 -20t-20 -59v-33h126v-90h-126v-430h-114v430z
" />
    <glyph glyph-name="f_i.liga" unicode="fi" horiz-adv-x="602" 
d="M97 430h-81v90h81v30q0 82 45 127t125 45q53 0 98 -14l-17 -85q-30 9 -60 9q-37 0 -57 -20t-20 -59v-33h126v-90h-126v-430h-114v430zM538 714v-113h-118v113h118zM536 520v-520h-114v520h114z" />
    <glyph glyph-name="f_l.liga" unicode="fl" horiz-adv-x="602" 
d="M97 430h-81v90h81v30q0 82 45 127t125 45q53 0 98 -14l-17 -85q-30 9 -60 9q-37 0 -57 -20t-20 -59v-33h126v-90h-126v-430h-114v430zM536 714v-714h-114v714h114z" />
    <glyph glyph-name="f_f_i.liga" unicode="ffi" horiz-adv-x="958" 
d="M453 430h-81v90h81v30q0 82 45 127t125 45q53 0 98 -14l-17 -85q-30 9 -60 9q-37 0 -57 -20t-20 -59v-33h126v-90h-126v-430h-114v430zM97 430h-81v90h81v30q0 82 45 127t125 45q53 0 98 -14l-17 -85q-30 9 -60 9q-37 0 -57 -20t-20 -59v-33h126v-90h-126v-430h-114v430z
M894 714v-113h-118v113h118zM892 520v-520h-114v520h114z" />
    <glyph glyph-name="f_f_l.liga" unicode="ffl" horiz-adv-x="958" 
d="M453 430h-81v90h81v30q0 82 45 127t125 45q53 0 98 -14l-17 -85q-30 9 -60 9q-37 0 -57 -20t-20 -59v-33h126v-90h-126v-430h-114v430zM97 430h-81v90h81v30q0 82 45 127t125 45q53 0 98 -14l-17 -85q-30 9 -60 9q-37 0 -57 -20t-20 -59v-33h126v-90h-126v-430h-114v430z
M892 714v-714h-114v714h114z" />
    <glyph glyph-name="uniFEDF_uniFB51.rlig" unicode="&#xfedf;&#xfb51;" horiz-adv-x="602" 
d="M30 100h120v357h110v-357h168v614h110v-714h-508v100zM157 616q11 17 28.5 26.5t38.5 9.5q34 0 53.5 -19.5t19.5 -53.5v-67h-200v40h19v101h41v-37zM215 611q-23 0 -36 -13q-17 -13 -17 -39v-7h91v13q0 24 -9 35t-29 11z" />
    <glyph glyph-name="uniFEE0_uniFB51.rlig" unicode="&#xfee0;&#xfb51;" horiz-adv-x="658" 
d="M30 0v100h120v357h110v-357h168v614h110v-614h135v-100h-643zM157 616q11 17 28.5 26.5t38.5 9.5q34 0 53.5 -19.5t19.5 -53.5v-67h-200v40h19v101h41v-37zM215 611q-23 0 -36 -13q-17 -13 -17 -39v-7h91v13q0 24 -9 35t-29 11z" />
    <glyph glyph-name="uniFEDF_uniFEE0_uniFEEA.rlig" unicode="&#xfedf;&#xfee0;&#xfeea;" horiz-adv-x="1227" 
d="M479 100h226v614h109v-614h239v614h110v-714h-827q-140 0 -215 65t-75 185q0 103 59.5 163t162.5 60q211 0 211 -225v-148zM156 251q0 -75 41 -113t120 -38h53v129q0 84 -23.5 118t-81.5 34q-53 0 -81 -33.5t-28 -96.5zM785 1126v-173h-54v173h54zM780 802h46v108h43
v-149h-141q-82 0 -82 80v69h43v-63q0 -45 34 -45h14v108h43v-108z" />
    <glyph glyph-name="uniFEDB_uniFE8E.rlig" unicode="&#xfedb;&#xfe8e;" horiz-adv-x="706" 
d="M644 0h-580v714h110v-262l319 262h146l-314 -255h44q143 0 209 -59.5t66 -186.5v-213zM174 368v-268h361v106q0 66 -17.5 100t-57 48t-109.5 14h-177z" />
    <glyph glyph-name="uniFEDC_uniFE8E.rlig" unicode="&#xfedc;&#xfe8e;" horiz-adv-x="759" 
d="M64 0v714h110v-262l319 262h146l-314 -255h44q143 0 209 -59.5t66 -186.5v-113h130v-100h-710zM535 206q0 66 -17.5 100t-57 48t-109.5 14h-177v-268h361v106z" />
    <glyph glyph-name="uniFEDB_uniFE82.rlig" unicode="&#xfedb;&#xfe82;" horiz-adv-x="706" 
d="M644 0h-580v714h110v-262l319 262h146l-314 -255h44q143 0 209 -59.5t66 -186.5v-213zM174 368v-268h361v106q0 66 -17.5 100t-57 48t-109.5 14h-177zM8 767q0 41 15.5 60t48.5 19q19 -1 34 -8.5t27 -15t23 -8.5q26 0 27 30h44q0 -41 -15.5 -60t-48.5 -19q-19 1 -33.5 9
t-26.5 15.5t-23 8.5q-27 0 -27 -31h-45z" />
    <glyph glyph-name="uniFEDC_uniFE82.rlig" unicode="&#xfedc;&#xfe82;" horiz-adv-x="759" 
d="M64 0v714h110v-262l319 262h146l-314 -255h44q143 0 209 -59.5t66 -186.5v-113h130v-100h-710zM535 206q0 66 -17.5 100t-57 48t-109.5 14h-177v-268h361v106zM8 767q0 41 15.5 60t48.5 19q19 -1 34 -8.5t27 -15t23 -8.5q26 0 27 30h44q0 -41 -15.5 -60t-48.5 -19
q-19 1 -33.5 9t-26.5 15.5t-23 8.5q-27 0 -27 -31h-45z" />
    <glyph glyph-name="uniFEDB_uniFE84.rlig" unicode="&#xfedb;&#xfe84;" horiz-adv-x="706" 
d="M644 0h-580v714h110v-262l319 262h146l-314 -255h44q143 0 209 -59.5t66 -186.5v-213zM174 368v-268h361v106q0 66 -17.5 100t-57 48t-109.5 14h-177zM204 808v-42h-176v42h22v51q0 35 20 54.5t56 19.5q35 0 52.5 -15t22.5 -50l-41 -6q-3 17 -10 24t-21 7q-33 0 -33 -36
v-49h108z" />
    <glyph glyph-name="uniFEDC_uniFE84.rlig" unicode="&#xfedc;&#xfe84;" horiz-adv-x="759" 
d="M64 0v714h110v-262l319 262h146l-314 -255h44q143 0 209 -59.5t66 -186.5v-113h130v-100h-710zM535 206q0 66 -17.5 100t-57 48t-109.5 14h-177v-268h361v106zM204 808v-42h-176v42h22v51q0 35 20 54.5t56 19.5q35 0 52.5 -15t22.5 -50l-41 -6q-3 17 -10 24t-21 7
q-33 0 -33 -36v-49h108z" />
    <glyph glyph-name="uniFEDB_uniFE88.rlig" unicode="&#xfedb;&#xfe88;" horiz-adv-x="706" 
d="M644 0h-580v714h110v-262l319 262h146l-314 -255h44q143 0 209 -59.5t66 -186.5v-213zM174 368v-268h361v106q0 66 -17.5 100t-57 48t-109.5 14h-177zM210 -189v-43h-176v43h22v51q0 35 20 54.5t56 19.5q35 0 52.5 -15.5t22.5 -50.5l-41 -5q-3 17 -10 24t-21 7
q-33 0 -33 -37v-48h108z" />
    <glyph glyph-name="uniFEDC_uniFE88.rlig" unicode="&#xfedc;&#xfe88;" horiz-adv-x="759" 
d="M64 0v714h110v-262l319 262h146l-314 -255h44q143 0 209 -59.5t66 -186.5v-113h130v-100h-710zM535 206q0 66 -17.5 100t-57 48t-109.5 14h-177v-268h361v106zM210 -189v-43h-176v43h22v51q0 35 20 54.5t56 19.5q35 0 52.5 -15.5t22.5 -50.5l-41 -5q-3 17 -10 24t-21 7
q-33 0 -33 -37v-48h108z" />
    <glyph glyph-name="uniFEDB_uniFB51.rlig" unicode="&#xfedb;&#xfb51;" horiz-adv-x="706" 
d="M644 0h-580v714h110v-262l319 262h146l-314 -255h44q143 0 209 -59.5t66 -186.5v-213zM174 368v-268h361v106q0 66 -17.5 100t-57 48t-109.5 14h-177zM76 870q11 17 28.5 26.5t38.5 9.5q34 0 53.5 -19.5t19.5 -53.5v-67h-200v40h19v101h41v-37zM134 865q-23 0 -36 -13
q-17 -13 -17 -39v-7h91v13q0 24 -9 35t-29 11z" />
    <glyph glyph-name="uniFEDC_uniFB51.rlig" unicode="&#xfedc;&#xfb51;" horiz-adv-x="759" 
d="M64 0v714h110v-262l319 262h146l-314 -255h44q143 0 209 -59.5t66 -186.5v-113h130v-100h-710zM535 206q0 66 -17.5 100t-57 48t-109.5 14h-177v-268h361v106zM76 870q11 17 28.5 26.5t38.5 9.5q34 0 53.5 -19.5t19.5 -53.5v-67h-200v40h19v101h41v-37zM134 865
q-23 0 -36 -13q-17 -13 -17 -39v-7h91v13q0 24 -9 35t-29 11z" />
    <glyph glyph-name="uniFEDB_uniFEDE.rlig" unicode="&#xfedb;&#xfede;" horiz-adv-x="1037" 
d="M975 1h-471q-5 -107 -64 -165t-163 -58q-118 0 -180.5 60.5t-62.5 176.5q0 38 12.5 83.5t33.5 82.5l99 -26q-37 -66 -37 -141q0 -68 34 -105t97 -37q122 0 122 150v693h110v-262l319 262h145l-313 -255h44q143 0 209 -59.5t66 -186.5v-213zM505 368v-268h360v106
q0 66 -17.5 100t-56.5 48t-110 14h-176z" />
    <glyph glyph-name="uniFEDB_uniFEE0.rlig" unicode="&#xfedb;&#xfee0;" horiz-adv-x="759" 
d="M-15 100h132v614h110v-262l319 262h146l-314 -255h44q143 0 209 -59.5t66 -186.5v-213h-712v100zM588 206q0 66 -17.5 100t-57 48t-109.5 14h-177v-268h361v106z" />
    <glyph glyph-name="uniFEDC_uniFEDE.rlig" unicode="&#xfedc;&#xfede;" horiz-adv-x="1090" 
d="M505 368v-268h360v106q0 66 -17.5 100t-56.5 48t-110 14h-176zM504 1q-5 -107 -64 -165t-163 -58q-118 0 -180.5 60.5t-62.5 176.5q0 38 12.5 83.5t33.5 82.5l99 -26q-37 -66 -37 -141q0 -69 33.5 -105.5t97.5 -36.5q122 0 122 150v693h110v-262l319 262h145l-313 -255
h44q143 0 209 -59.5t66 -186.5v-114h130v-99h-601z" />
    <glyph glyph-name="uniFEDC_uniFEE0.rlig" unicode="&#xfedc;&#xfee0;" horiz-adv-x="812" 
d="M-15 100h132v614h110v-262l319 262h146l-314 -255h44q143 0 209 -59.5t66 -186.5v-113h130v-100h-842v100zM588 206q0 66 -17.5 100t-57 48t-109.5 14h-177v-268h361v106z" />
    <glyph glyph-name="uni0672.fina" unicode="&#x672;" horiz-adv-x="294" 
d="M309 0h-245v714h110v-614h135v-100zM222 808v-42h-127q-20 1 -31 8t-19 14t-18 8q-10 0 -18 -8l-28 34q15 18 40 18q16 0 25 -6.5t16.5 -13t16.5 -7.5v46q0 35 18 54.5t53 19.5q63 0 71 -65l-42 -6q-2 17 -8 24t-19 7q-27 0 -27 -36v-49h97z" />
    <glyph glyph-name="uni0673.fina" unicode="&#x673;" horiz-adv-x="294" 
d="M309 0h-245v714h110v-614h135v-100zM232 -191v-43h-127q-20 1 -31 8t-19 14t-18 8q-11 0 -18 -7l-28 34q16 18 40 18q16 -1 25 -7.5t16.5 -13t16.5 -7.5v47q0 35 18.5 54.5t52.5 19.5q63 0 71 -66l-42 -5q-2 17 -8.5 24t-18.5 7q-27 0 -27 -37v-48h97z" />
    <glyph glyph-name="uni0675.fina" unicode="&#x675;" horiz-adv-x="382" 
d="M397 0h-333v714h110v-614h223v-100zM351 807v-42h-176v42h22v51q0 35 20 54.5t56 19.5q35 0 52.5 -15t22.5 -50l-41 -6q-3 17 -10 24t-21 7q-33 0 -33 -36v-49h108z" />
    <glyph glyph-name="uni0676.fina" unicode="&#x676;" horiz-adv-x="586" 
d="M481 100h120v-100h-120q0 -111 -52 -164.5t-162 -53.5q-96 0 -151 44t-66 129h108q8 -41 34.5 -60.5t75.5 -19.5q56 0 79.5 26.5t23.5 87.5v11h-34q-140 0 -215 65t-75 185q0 103 60 163t162 60q105 0 158.5 -56.5t53.5 -168.5v-148zM157 251q0 -74 41 -112.5t120 -38.5
h53v129q0 84 -23.5 118t-81.5 34q-53 0 -81 -33.5t-28 -96.5zM549 575v-42h-176v42h22v51q0 35 20 54.5t56 19.5q35 0 52.5 -15t22.5 -50l-41 -6q-3 17 -10 24t-21 7q-33 0 -33 -36v-49h108z" />
    <glyph glyph-name="uni0677.fina" unicode="&#x677;" horiz-adv-x="586" 
d="M481 100h120v-100h-120q0 -111 -52 -164.5t-162 -53.5q-96 0 -151 44t-66 129h108q8 -41 34.5 -60.5t75.5 -19.5q56 0 79.5 26.5t23.5 87.5v11h-34q-140 0 -215 65t-75 185q0 103 60 163t162 60q105 0 158.5 -56.5t53.5 -168.5v-148zM157 251q0 -74 41 -112.5t120 -38.5
h53v129q0 84 -23.5 118t-81.5 34q-53 0 -81 -33.5t-28 -96.5zM221 528q-35 0 -60 12l10 35q30 -11 49 -11q37 0 37 30v10q-13 -16 -37 -16q-27 0 -42 15t-15 42q0 29 17.5 45.5t49.5 16.5q33 0 51.5 -18.5t18.5 -51.5v-32q0 -77 -79 -77zM230 674q-27 0 -27 -28t26 -28
q27 0 27 27q0 29 -26 29zM549 575v-42h-176v42h22v51q0 35 20 54.5t56 19.5q35 0 52.5 -15t22.5 -50l-41 -6q-3 17 -10 24t-21 7q-33 0 -33 -36v-49h108z" />
    <glyph glyph-name="uni0678.init" unicode="&#x678;" horiz-adv-x="390" 
d="M230 0h-245v100h136v247q0 49 -20 85l99 41q16 -22 23 -48t7 -67v-358zM400 577v-42h-176v42h22v51q0 35 20 54.5t56 19.5q35 0 52.5 -15t22.5 -50l-41 -6q-3 17 -10 24t-21 7q-33 0 -33 -36v-49h108z" />
    <glyph glyph-name="uni0678.medi" unicode="&#x678;" horiz-adv-x="464" 
d="M-15 100h136v357h109v-357h249v-100h-494v100zM406 577v-42h-176v42h22v51q0 35 20 54.5t56 19.5q35 0 52.5 -15t22.5 -50l-41 -6q-3 17 -10 24t-21 7q-33 0 -33 -36v-49h108z" />
    <glyph glyph-name="uni0678.fina" unicode="&#x678;" horiz-adv-x="895" 
d="M505 15q0 -112 -60 -174.5t-168 -62.5q-119 0 -181 60t-62 176q0 38 12.5 83.5t33.5 82.5l99 -26q-37 -66 -37 -140q0 -69 33.5 -105.5t97.5 -36.5q122 0 122 149v246q0 92 48 141t137 49h193v-357h137v-100h-247v361h-73q-43 0 -64 -24.5t-21 -74.5v-247zM773 569v-42
h-176v42h22v51q0 35 20 54.5t56 19.5q35 0 52.5 -15t22.5 -50l-41 -6q-3 17 -10 24t-21 7q-33 0 -33 -36v-49h108z" />
    <glyph glyph-name="uni067C.init" unicode="&#x67c;" horiz-adv-x="294" 
d="M22 -41q0 21 9 41h-46v100h136v247q0 49 -20 85l99 41q16 -22 23 -48t7 -67v-358h-45q10 -18 10 -41q0 -39 -24 -61.5t-63 -22.5t-62.5 22.5t-23.5 61.5zM108 -81q19 0 29 10.5t10 30.5t-10 30.5t-29 10.5q-18 0 -28 -10.5t-10 -30.5t10 -30.5t28 -10.5zM-33 650h101
v-102h-101v102zM121 650h100v-102h-100v102z" />
    <glyph glyph-name="uni067C.medi" unicode="&#x67c;" horiz-adv-x="351" 
d="M68 -41q0 24 9 41h-92v100h136v357h109v-357h136v-100h-135q10 -18 10 -41q0 -39 -24 -61.5t-63 -22.5t-62.5 22.5t-23.5 61.5zM154 -81q19 0 29 10.5t10 30.5t-10 30.5t-29 10.5t-29 -10.5t-10 -30.5t10 -30.5t29 -10.5zM-23 650h101v-102h-101v102zM131 650h100v-102
h-100v102z" />
    <glyph glyph-name="uni067C.fina" unicode="&#x67c;" horiz-adv-x="879" 
d="M390 -41q0 24 9 41h-92q-129 0 -195 59t-66 174q0 101 58.5 161.5t162.5 67.5l13 -97q-66 -7 -96 -38.5t-30 -92.5q0 -134 150 -134h347v357h110v-357h133v-100h-341q9 -20 9 -41q0 -39 -24 -61.5t-63 -22.5t-62 22.5t-23 61.5zM475 -81q19 0 29 10.5t10 30.5t-10 30.5
t-29 10.5q-18 0 -28 -10.5t-10 -30.5t10 -30.5t28 -10.5zM319 650h101v-102h-101v102zM473 650h100v-102h-100v102z" />
    <glyph glyph-name="uni067D.init" unicode="&#x67d;" horiz-adv-x="294" 
d="M230 0h-245v100h136v247q0 49 -20 85l99 41q16 -22 23 -48t7 -67v-358zM55 624h94v-89h-94v89zM-14 747h93v-89h-93v89zM125 747h94v-89h-94v89z" />
    <glyph glyph-name="uni067D.medi" unicode="&#x67d;" horiz-adv-x="351" 
d="M-15 100h136v357h109v-357h136v-100h-381v100zM65 624h94v-89h-94v89zM-4 747h93v-89h-93v89zM135 747h94v-89h-94v89z" />
    <glyph glyph-name="uni067D.fina" unicode="&#x67d;" horiz-adv-x="879" 
d="M651 100v357h110v-357h133v-100h-587q-129 0 -195 59t-66 174q0 100 59 161.5t162 67.5l14 -97q-66 -6 -96.5 -37.5t-30.5 -93.5q0 -134 150 -134h347zM400 624h94v-89h-94v89zM331 747h93v-89h-93v89zM470 747h94v-89h-94v89z" />
    <glyph glyph-name="uni0681.init" unicode="&#x681;" horiz-adv-x="565" 
d="M-15 100h362v140q0 76 -24 107t-83 31q-52 0 -77 -18.5t-36 -65.5l-106 11q15 86 68 127t150 41q112 0 164.5 -54t52.5 -169v-150h79v-100h-550v100zM327 585v-42h-176v42h22v51q0 35 20 54.5t56 19.5q35 0 52.5 -15t22.5 -50l-41 -6q-3 17 -10 24t-21 7q-33 0 -33 -36
v-49h108z" />
    <glyph glyph-name="uni0681.medi" unicode="&#x681;" horiz-adv-x="576" 
d="M350 240q0 76 -24 107t-82 31q-53 0 -78 -18.5t-36 -65.5l-105 11q15 86 68 127t150 41q112 0 164.5 -54t52.5 -169v-150h131v-100h-606v100h365v140zM327 585v-42h-176v42h22v51q0 35 20 54.5t56 19.5q35 0 52.5 -15t22.5 -50l-41 -6q-3 17 -10 24t-21 7q-33 0 -33 -36
v-49h108z" />
    <glyph glyph-name="uni0681.fina" unicode="&#x681;" horiz-adv-x="625" 
d="M252 0q-56 0 -88 -30t-32 -82q0 -59 34 -87.5t105 -28.5q59 0 92.5 23t47.5 73h110q-13 -91 -78.5 -141t-171.5 -50q-122 0 -185 54t-63 160q0 95 64.5 152t171.5 57h142v140q0 76 -24 107t-83 31q-53 0 -77.5 -18t-35.5 -66l-106 11q15 86 68 127t150 41
q112 0 164.5 -54t52.5 -169v-150h130v-100h-388zM380 577v-42h-176v42h22v51q0 35 20 54.5t56 19.5q35 0 52.5 -15t22.5 -50l-41 -6q-3 17 -10 24t-21 7q-33 0 -33 -36v-49h108z" />
    <glyph glyph-name="uni0682.init" unicode="&#x682;" horiz-adv-x="565" 
d="M-15 100h362v140q0 76 -24 107t-83 31q-52 0 -77 -18.5t-36 -65.5l-106 11q15 86 68 127t150 41q112 0 164.5 -54t52.5 -169v-150h79v-100h-550v100zM193 627h99v-85h-99v85zM193 754h99v-85h-99v85z" />
    <glyph glyph-name="uni0682.medi" unicode="&#x682;" horiz-adv-x="576" 
d="M350 240q0 76 -24 107t-82 31q-53 0 -78 -18.5t-36 -65.5l-105 11q15 86 68 127t150 41q112 0 164.5 -54t52.5 -169v-150h131v-100h-606v100h365v140zM193 627h99v-85h-99v85zM193 754h99v-85h-99v85z" />
    <glyph glyph-name="uni0682.fina" unicode="&#x682;" horiz-adv-x="625" 
d="M252 0q-56 0 -88 -30t-32 -82q0 -59 34 -87.5t105 -28.5q59 0 92.5 23t47.5 73h110q-13 -91 -78.5 -141t-171.5 -50q-122 0 -185 54t-63 160q0 95 64.5 152t171.5 57h142v140q0 76 -24 107t-83 31q-53 0 -77.5 -18t-35.5 -66l-106 11q15 86 68 127t150 41
q112 0 164.5 -54t52.5 -169v-150h130v-100h-388zM247 620h99v-85h-99v85zM247 747h99v-85h-99v85z" />
    <glyph glyph-name="uni0685.init" unicode="&#x685;" horiz-adv-x="565" 
d="M-15 100h362v140q0 76 -24 107t-83 31q-52 0 -77 -18.5t-36 -65.5l-106 11q15 86 68 127t150 41q112 0 164.5 -54t52.5 -169v-150h79v-100h-550v100zM196 754h94v-89h-94v89zM126 631h94v-89h-94v89zM266 631h93v-89h-93v89z" />
    <glyph glyph-name="uni0685.medi" unicode="&#x685;" horiz-adv-x="576" 
d="M350 240q0 76 -24 107t-82 31q-53 0 -78 -18.5t-36 -65.5l-105 11q15 86 68 127t150 41q112 0 164.5 -54t52.5 -169v-150h131v-100h-606v100h365v140zM196 754h94v-89h-94v89zM126 631h94v-89h-94v89zM266 631h93v-89h-93v89z" />
    <glyph glyph-name="uni0685.fina" unicode="&#x685;" horiz-adv-x="625" 
d="M252 0q-56 0 -88 -30t-32 -82q0 -59 34 -87.5t105 -28.5q59 0 92.5 23t47.5 73h110q-13 -91 -78.5 -141t-171.5 -50q-122 0 -185 54t-63 160q0 95 64.5 152t171.5 57h142v140q0 76 -24 107t-83 31q-53 0 -77.5 -18t-35.5 -66l-106 11q15 86 68 127t150 41
q112 0 164.5 -54t52.5 -169v-150h130v-100h-388zM249 747h94v-89h-94v89zM179 624h94v-89h-94v89zM319 624h93v-89h-93v89z" />
    <glyph glyph-name="uni0689.fina" unicode="&#x689;" horiz-adv-x="589" 
d="M152 -41q0 21 9 41h-131v100h337v72q0 103 -37.5 152t-116.5 49q-52 0 -104 -19l-26 97q64 22 140 22q125 0 189.5 -73.5t64.5 -215.5v-84h127v-100h-289q10 -17 10 -41q0 -38 -23.5 -61t-63.5 -23q-39 0 -62.5 23t-23.5 61zM238 -81q18 0 28.5 10.5t10.5 30.5
t-10.5 30.5t-28.5 10.5t-28 -11t-10 -30t10 -30t28 -11z" />
    <glyph glyph-name="uni068A.fina" unicode="&#x68a;" horiz-adv-x="589" 
d="M367 100v73q0 103 -37.5 152t-116.5 49q-47 0 -104 -19l-26 96q64 22 140 22q125 0 189.5 -73.5t64.5 -215.5v-84h127v-100h-574v100h337zM208 -76h102v-103h-102v103z" />
    <glyph glyph-name="uni068B.fina" unicode="&#x68b;" horiz-adv-x="589" 
d="M367 100v73q0 103 -37.5 152t-116.5 49q-47 0 -104 -19l-26 96q64 22 140 22q125 0 189.5 -73.5t64.5 -215.5v-84h127v-100h-574v100h337zM199 641q11 16 28.5 25t37.5 9q34 0 53.5 -19.5t19.5 -53.5v-67h-200v40h19v154h42v-88zM256 634q-24 0 -37 -13q-16 -13 -16 -39
v-7h91v13q0 25 -9 35.5t-29 10.5zM203 -76h102v-103h-102v103z" />
    <glyph glyph-name="uni068F.fina" unicode="&#x68f;" horiz-adv-x="589" 
d="M367 100v73q0 103 -37.5 152t-116.5 49q-47 0 -104 -19l-26 96q64 22 140 22q125 0 189.5 -73.5t64.5 -215.5v-84h127v-100h-574v100h337zM210 624h94v-89h-94v89zM141 747h93v-89h-93v89zM280 747h94v-89h-94v89z" />
    <glyph glyph-name="uni0690.fina" unicode="&#x690;" horiz-adv-x="589" 
d="M367 100v73q0 103 -37.5 152t-116.5 49q-47 0 -104 -19l-26 96q64 22 140 22q125 0 189.5 -73.5t64.5 -215.5v-84h127v-100h-574v100h337zM146 747h90v-87h-90v87zM280 747h90v-87h-90v87zM146 621h90v-86h-90v86zM280 621h90v-86h-90v86z" />
    <glyph glyph-name="uni0692.fina" unicode="&#x692;" horiz-adv-x="376" 
d="M17 -121q41 -8 61 -8q68 0 68 75v511h109v-357h136v-100h-136v-50q0 -88 -38.5 -130t-118.5 -42q-45 0 -98 15zM227 535h-58l-86 141h56l59 -99l59 99h56z" />
    <glyph glyph-name="uni0693.fina" unicode="&#x693;" horiz-adv-x="376" 
d="M23 -263q0 29 12 47q-9 2 -17.5 4.5t-17.5 4.5l17 86q41 -8 61 -8q68 0 68 75v511h109v-357h136v-100h-136v-50q0 -124 -79 -157q20 -25 20 -56q0 -38 -24 -61t-63 -23t-62.5 23t-23.5 61zM109 -303q18 0 28.5 10.5t10.5 30.5t-10.5 30.5t-28.5 10.5q-38 0 -38 -41
q0 -19 10 -30t28 -11z" />
    <glyph glyph-name="uni0694.fina" unicode="&#x694;" horiz-adv-x="376" 
d="M17 -121q41 -8 61 -8q68 0 68 75v511h109v-357h136v-100h-136v-50q0 -88 -38.5 -130t-118.5 -42q-45 0 -98 15zM77 -288h102v-103h-102v103z" />
    <glyph glyph-name="uni0695.fina" unicode="&#x695;" horiz-adv-x="378" 
d="M18 -121q41 -8 61 -8q68 0 68 75v511h109v-357h136v-100h-136v-50q0 -88 -38.5 -130t-118.5 -42q-45 0 -98 15zM155 -429h-58l-86 141h56l59 -99l59 99h56z" />
    <glyph glyph-name="uni0696.fina" unicode="&#x696;" horiz-adv-x="381" 
d="M22 -121q41 -8 61 -8q68 0 68 75v511h109v-357h136v-100h-136v-50q0 -88 -38.5 -130t-118.5 -42q-45 0 -98 15zM-7 210h102v-103h-102v103zM81 -288h102v-103h-102v103z" />
    <glyph glyph-name="uni0697.fina" unicode="&#x697;" horiz-adv-x="376" 
d="M17 -121q41 -8 61 -8q68 0 68 75v511h109v-357h136v-100h-136v-50q0 -88 -38.5 -130t-118.5 -42q-45 0 -98 15zM2 650h101v-102h-101v102zM156 650h100v-102h-100v102z" />
    <glyph glyph-name="uni0699.fina" unicode="&#x699;" horiz-adv-x="376" 
d="M17 -121q41 -8 61 -8q68 0 68 75v511h109v-357h136v-100h-136v-50q0 -88 -38.5 -130t-118.5 -42q-45 0 -98 15zM32 747h90v-87h-90v87zM166 747h90v-87h-90v87zM32 621h90v-86h-90v86zM166 621h90v-86h-90v86z" />
    <glyph glyph-name="uni069A.init" unicode="&#x69a;" horiz-adv-x="838" 
d="M503 100h161v247q0 49 -20 85l100 41q16 -23 23 -49t7 -66v-358h-789v100h135v357h110v-357h163v357h110v-357zM396 651h102v-103h-102v103zM397 -76h102v-103h-102v103z" />
    <glyph glyph-name="uni069A.medi" unicode="&#x69a;" horiz-adv-x="895" 
d="M910 100v-100h-925v100h135v357h110v-357h163v357h110v-357h161v247q0 49 -20 85l100 41q16 -23 23 -49t7 -66v-258h136zM396 651h102v-103h-102v103zM397 -76h102v-103h-102v103z" />
    <glyph glyph-name="uni069A.fina" unicode="&#x69a;" horiz-adv-x="1169" 
d="M504 0q-4 -106 -63.5 -164t-163.5 -58q-119 0 -181 60t-62 176q0 38 12.5 83.5t33.5 82.5l99 -26q-37 -66 -37 -140q0 -69 33.5 -105.5t97.5 -36.5q122 0 122 149v436h110v-357h163v357h109v-357h162v247q0 49 -20 85l99 41q17 -23 24 -49.5t7 -65.5v-258h135v-100h-680z
M671 651h102v-103h-102v103zM671 -76h102v-103h-102v103z" />
    <glyph glyph-name="uni069B.init" unicode="&#x69b;" horiz-adv-x="838" 
d="M503 100h161v247q0 49 -20 85l100 41q16 -23 23 -49t7 -66v-358h-789v100h135v357h110v-357h163v357h110v-357zM404 -194h94v-89h-94v89zM334 -71h94v-89h-94v89zM474 -71h93v-89h-93v89z" />
    <glyph glyph-name="uni069B.medi" unicode="&#x69b;" horiz-adv-x="895" 
d="M910 100v-100h-925v100h135v357h110v-357h163v357h110v-357h161v247q0 49 -20 85l100 41q16 -23 23 -49t7 -66v-258h136zM404 -194h94v-89h-94v89zM334 -71h94v-89h-94v89zM474 -71h93v-89h-93v89z" />
    <glyph glyph-name="uni069B.fina" unicode="&#x69b;" horiz-adv-x="1169" 
d="M504 0q-4 -106 -63.5 -164t-163.5 -58q-119 0 -181 60t-62 176q0 38 12.5 83.5t33.5 82.5l99 -26q-37 -66 -37 -140q0 -69 33.5 -105.5t97.5 -36.5q122 0 122 149v436h110v-357h163v357h109v-357h162v247q0 49 -20 85l99 41q17 -23 24 -49.5t7 -65.5v-258h135v-100h-680z
M676 -194h94v-89h-94v89zM606 -71h94v-89h-94v89zM746 -71h93v-89h-93v89z" />
    <glyph glyph-name="uni069C.init" unicode="&#x69c;" horiz-adv-x="838" 
d="M503 100h161v247q0 49 -20 85l100 41q16 -23 23 -49t7 -66v-358h-789v100h135v357h110v-357h163v357h110v-357zM403 730h94v-89h-94v89zM333 607h94v-89h-94v89zM473 607h93v-89h-93v89zM403 -194h94v-89h-94v89zM333 -71h94v-89h-94v89zM473 -71h93v-89h-93v89z" />
    <glyph glyph-name="uni069C.medi" unicode="&#x69c;" horiz-adv-x="895" 
d="M910 100v-100h-925v100h135v357h110v-357h163v357h110v-357h161v247q0 49 -20 85l100 41q16 -23 23 -49t7 -66v-258h136zM403 730h94v-89h-94v89zM333 607h94v-89h-94v89zM473 607h93v-89h-93v89zM403 -194h94v-89h-94v89zM333 -71h94v-89h-94v89zM473 -71h93v-89h-93v89
z" />
    <glyph glyph-name="uni069C.fina" unicode="&#x69c;" horiz-adv-x="1169" 
d="M504 0q-4 -106 -63.5 -164t-163.5 -58q-119 0 -181 60t-62 176q0 38 12.5 83.5t33.5 82.5l99 -26q-37 -66 -37 -140q0 -69 33.5 -105.5t97.5 -36.5q122 0 122 149v436h110v-357h163v357h109v-357h162v247q0 49 -20 85l99 41q17 -23 24 -49.5t7 -65.5v-258h135v-100h-680z
M677 730h94v-89h-94v89zM607 607h94v-89h-94v89zM747 607h93v-89h-93v89zM676 -194h94v-89h-94v89zM606 -71h94v-89h-94v89zM746 -71h93v-89h-93v89z" />
    <glyph glyph-name="uni069D.init" unicode="&#x69d;" horiz-adv-x="777" 
d="M458 378q-106 0 -167.5 -61.5t-61.5 -168.5v-48h376v80q0 102 -35.5 150t-111.5 48zM714 0h-729v100h137v357h109v-113q40 63 101 96t137 33q120 0 182.5 -68.5t62.5 -200.5v-204zM312 -77h101v-101h-101v101zM466 -77h100v-101h-100v101z" />
    <glyph glyph-name="uni069D.medi" unicode="&#x69d;" horiz-adv-x="821" 
d="M458 378q-106 0 -167.5 -61.5t-61.5 -168.5v-48h376v80q0 102 -35.5 150t-111.5 48zM231 344q40 63 101 96t137 33q120 0 182.5 -68.5t62.5 -200.5v-104h122v-100h-851v100h137v357h109v-113zM312 -77h101v-101h-101v101zM466 -77h100v-101h-100v101z" />
    <glyph glyph-name="uni069D.fina" unicode="&#x69d;" horiz-adv-x="1094" 
d="M731 378q-106 0 -167 -61.5t-61 -168.5v-48h375v80q0 102 -35.5 150t-111.5 48zM505 344q40 63 101 96t137 33q120 0 182.5 -69t62.5 -200v-104h121v-100h-605q-5 -107 -64 -164.5t-164 -57.5q-118 0 -180 60t-62 176q0 39 12.5 83.5t33.5 82.5l99 -25q-37 -68 -37 -141
q0 -69 33.5 -105.5t97.5 -36.5q122 0 122 149v436h110v-113zM585 -77h101v-101h-101v101zM739 -77h100v-101h-100v101z" />
    <glyph glyph-name="uni069E.init" unicode="&#x69e;" horiz-adv-x="777" 
d="M458 378q-106 0 -167.5 -61.5t-61.5 -168.5v-48h376v80q0 102 -35.5 150t-111.5 48zM714 0h-729v100h137v357h109v-113q40 63 101 96t137 33q120 0 182.5 -68.5t62.5 -200.5v-204zM401 747h94v-89h-94v89zM331 624h94v-89h-94v89zM471 624h93v-89h-93v89z" />
    <glyph glyph-name="uni069E.medi" unicode="&#x69e;" horiz-adv-x="821" 
d="M458 378q-106 0 -167.5 -61.5t-61.5 -168.5v-48h376v80q0 102 -35.5 150t-111.5 48zM231 344q40 63 101 96t137 33q120 0 182.5 -68.5t62.5 -200.5v-104h122v-100h-851v100h137v357h109v-113zM401 747h94v-89h-94v89zM331 624h94v-89h-94v89zM471 624h93v-89h-93v89z" />
    <glyph glyph-name="uni069E.fina" unicode="&#x69e;" horiz-adv-x="1094" 
d="M731 378q-106 0 -167 -61.5t-61 -168.5v-48h375v80q0 102 -35.5 150t-111.5 48zM505 344q40 63 101 96t137 33q120 0 182.5 -69t62.5 -200v-104h121v-100h-605q-5 -107 -64 -164.5t-164 -57.5q-118 0 -180 60t-62 176q0 39 12.5 83.5t33.5 82.5l99 -25q-37 -68 -37 -141
q0 -69 33.5 -105.5t97.5 -36.5q122 0 122 149v436h110v-113zM676 747h94v-89h-94v89zM606 624h94v-89h-94v89zM746 624h93v-89h-93v89z" />
    <glyph glyph-name="uni069F.init" unicode="&#x69f;" horiz-adv-x="777" 
d="M458 378q-106 0 -167.5 -62t-61.5 -168v-48h376v80q0 102 -35.5 150t-111.5 48zM231 344q40 63 101 96t137 33q120 0 182.5 -68.5t62.5 -200.5v-204h-729v100h137v614h109v-370zM404 747h94v-89h-94v89zM334 624h94v-89h-94v89zM474 624h93v-89h-93v89z" />
    <glyph glyph-name="uni069F.medi" unicode="&#x69f;" horiz-adv-x="817" 
d="M454 378q-106 0 -168 -62t-62 -168v-48h377v80q0 102 -35.5 150t-111.5 48zM710 100h122v-100h-847v100h133v614h109v-370q40 63 101 96t137 33q120 0 182.5 -68.5t62.5 -200.5v-104zM404 747h94v-89h-94v89zM334 624h94v-89h-94v89zM474 624h93v-89h-93v89z" />
    <glyph glyph-name="uni069F.fina" unicode="&#x69f;" horiz-adv-x="817" 
d="M454 378q-106 0 -167.5 -62t-61.5 -168v-48h376v80q0 103 -35.5 150.5t-111.5 47.5zM466 473q120 0 182.5 -69t62.5 -200v-104h121v-100h-802v100h88v614h110v-370q40 63 101 96t137 33zM404 747h94v-89h-94v89zM334 624h94v-89h-94v89zM474 624h93v-89h-93v89z" />
    <glyph glyph-name="uni06A0.init" unicode="&#x6a0;" horiz-adv-x="599" 
d="M116 245q0 228 225 228q95 0 145 -40t64 -128l-105 -11q-10 48 -33.5 66t-73.5 18q-60 0 -86 -32.5t-26 -105.5v-140h343v-100h-584v100h131v145zM291 747h94v-89h-94v89zM221 624h94v-89h-94v89zM361 624h93v-89h-93v89z" />
    <glyph glyph-name="uni06A0.medi" unicode="&#x6a0;" horiz-adv-x="567" 
d="M116 245q0 228 225 228q95 0 145 -40t64 -128l-105 -11q-10 48 -33.5 66t-73.5 18q-60 0 -86 -32.5t-26 -105.5v-140h356v-100h-597v100h131v145zM291 747h94v-89h-94v89zM221 624h94v-89h-94v89zM361 624h93v-89h-93v89z" />
    <glyph glyph-name="uni06A0.fina" unicode="&#x6a0;" horiz-adv-x="645" 
d="M660 0h-425q-53 0 -80.5 -28.5t-27.5 -82.5q0 -60 34.5 -88.5t104.5 -28.5q59 0 92.5 23t47.5 73h110q-13 -91 -78.5 -141t-171.5 -50q-122 0 -185 54.5t-63 160.5q0 54 21 97.5t61 71t94 34.5v150q0 228 225 228q95 0 145 -40t64 -128l-105 -11q-10 48 -33.5 66
t-73.5 18q-60 0 -86 -32.5t-26 -105.5v-140h356v-100zM369 755h94v-89h-94v89zM299 632h94v-89h-94v89zM439 632h93v-89h-93v89z" />
    <glyph glyph-name="uni06A1.init" unicode="&#x6a1;" horiz-adv-x="571" 
d="M508 247v-123.5v-123.5h-523v100h169q-36 24 -57.5 68t-21.5 94q0 61 27 108.5t77.5 75t116.5 27.5q105 0 158.5 -57t53.5 -169zM398 100v152q0 67 -25.5 98t-78.5 31t-81.5 -34t-28.5 -96q0 -71 40 -111t113 -40h61z" />
    <glyph glyph-name="uni06A1.medi" unicode="&#x6a1;" horiz-adv-x="613" 
d="M628 0h-643v100h169q-36 24 -57.5 68t-21.5 94q0 61 27 108.5t77.5 75t116.5 27.5q105 0 158.5 -57t53.5 -169v-147h120v-100zM398 100v152q0 67 -25.5 98t-78.5 31t-81.5 -34t-28.5 -96q0 -71 40 -111t113 -40h61z" />
    <glyph glyph-name="uni06A1.fina" unicode="&#x6a1;" horiz-adv-x="952" 
d="M738 100v152q0 67 -25.5 98t-78.5 31q-52 0 -80.5 -34t-28.5 -96q0 -71 40 -111t112 -40h61zM495 100q-36 24 -57.5 68t-21.5 93q0 61 27 109t77.5 75.5t116.5 27.5q104 0 157 -57t53 -170v-146h120v-100h-660q-261 0 -261 233q0 101 58.5 161.5t162.5 67.5l13 -97
q-66 -7 -96 -38.5t-30 -92.5q0 -69 36.5 -101.5t113.5 -32.5h191z" />
    <glyph glyph-name="uni06A2.init" unicode="&#x6a2;" horiz-adv-x="571" 
d="M508 247v-123.5v-123.5h-523v100h169q-36 24 -57.5 68t-21.5 94q0 61 27 108.5t77.5 75t116.5 27.5q105 0 158.5 -57t53.5 -169zM398 100v152q0 67 -25.5 98t-78.5 31t-81.5 -34t-28.5 -96q0 -71 40 -111t113 -40h61zM272 -76h102v-103h-102v103z" />
    <glyph glyph-name="uni06A2.medi" unicode="&#x6a2;" horiz-adv-x="613" 
d="M628 0h-643v100h169q-36 24 -57.5 68t-21.5 94q0 61 27 108.5t77.5 75t116.5 27.5q105 0 158.5 -57t53.5 -169v-147h120v-100zM398 100v152q0 67 -25.5 98t-78.5 31t-81.5 -34t-28.5 -96q0 -71 40 -111t113 -40h61zM272 -76h102v-103h-102v103z" />
    <glyph glyph-name="uni06A2.fina" unicode="&#x6a2;" horiz-adv-x="952" 
d="M738 100v152q0 67 -25.5 98t-78.5 31q-52 0 -80.5 -34t-28.5 -96q0 -71 40 -111t112 -40h61zM495 100q-36 24 -57.5 68t-21.5 93q0 61 27 109t77.5 75.5t116.5 27.5q104 0 157 -57t53 -170v-146h120v-100h-660q-261 0 -261 233q0 101 58.5 161.5t162.5 67.5l13 -97
q-66 -7 -96 -38.5t-30 -92.5q0 -69 36.5 -101.5t113.5 -32.5h191zM424 -76h102v-103h-102v103z" />
    <glyph glyph-name="uni06A3.init" unicode="&#x6a3;" horiz-adv-x="571" 
d="M508 247v-123.5v-123.5h-523v100h169q-36 24 -57.5 68t-21.5 94q0 61 27 108.5t77.5 75t116.5 27.5q105 0 158.5 -57t53.5 -169zM398 100v152q0 67 -25.5 98t-78.5 31t-81.5 -34t-28.5 -96q0 -71 40 -111t113 -40h61zM241 651h102v-103h-102v103zM272 -76h102v-103h-102
v103z" />
    <glyph glyph-name="uni06A3.medi" unicode="&#x6a3;" horiz-adv-x="613" 
d="M628 0h-643v100h169q-36 24 -57.5 68t-21.5 94q0 61 27 108.5t77.5 75t116.5 27.5q105 0 158.5 -57t53.5 -169v-147h120v-100zM398 100v152q0 67 -25.5 98t-78.5 31t-81.5 -34t-28.5 -96q0 -71 40 -111t113 -40h61zM241 651h102v-103h-102v103zM272 -76h102v-103h-102
v103z" />
    <glyph glyph-name="uni06A3.fina" unicode="&#x6a3;" horiz-adv-x="952" 
d="M738 100v152q0 67 -25.5 98t-78.5 31q-52 0 -80.5 -34t-28.5 -96q0 -71 40 -111t112 -40h61zM495 100q-36 24 -57.5 68t-21.5 93q0 61 27 109t77.5 75.5t116.5 27.5q104 0 157 -57t53 -170v-146h120v-100h-660q-261 0 -261 233q0 101 58.5 161.5t162.5 67.5l13 -97
q-66 -7 -96 -38.5t-30 -92.5q0 -69 36.5 -101.5t113.5 -32.5h191zM583 651h102v-103h-102v103zM424 -76h102v-103h-102v103z" />
    <glyph glyph-name="uni06A5.init" unicode="&#x6a5;" horiz-adv-x="571" 
d="M508 247v-123.5v-123.5h-523v100h169q-36 24 -57.5 68t-21.5 94q0 61 27 108.5t77.5 75t116.5 27.5q105 0 158.5 -57t53.5 -169zM398 100v152q0 67 -25.5 98t-78.5 31t-81.5 -34t-28.5 -96q0 -71 40 -111t113 -40h61zM278 -194h94v-89h-94v89zM208 -71h94v-89h-94v89z
M348 -71h93v-89h-93v89z" />
    <glyph glyph-name="uni06A5.medi" unicode="&#x6a5;" horiz-adv-x="613" 
d="M628 0h-643v100h169q-36 24 -57.5 68t-21.5 94q0 61 27 108.5t77.5 75t116.5 27.5q105 0 158.5 -57t53.5 -169v-147h120v-100zM398 100v152q0 67 -25.5 98t-78.5 31t-81.5 -34t-28.5 -96q0 -71 40 -111t113 -40h61zM278 -194h94v-89h-94v89zM208 -71h94v-89h-94v89z
M348 -71h93v-89h-93v89z" />
    <glyph glyph-name="uni06A5.fina" unicode="&#x6a5;" horiz-adv-x="952" 
d="M738 100v152q0 67 -25.5 98t-78.5 31q-52 0 -80.5 -34t-28.5 -96q0 -71 40 -111t112 -40h61zM495 100q-36 24 -57.5 68t-21.5 93q0 61 27 109t77.5 75.5t116.5 27.5q104 0 157 -57t53 -170v-146h120v-100h-660q-261 0 -261 233q0 101 58.5 161.5t162.5 67.5l13 -97
q-66 -7 -96 -38.5t-30 -92.5q0 -69 36.5 -101.5t113.5 -32.5h191zM428 -194h94v-89h-94v89zM358 -71h94v-89h-94v89zM498 -71h93v-89h-93v89z" />
    <glyph glyph-name="uni06A7.init" unicode="&#x6a7;" horiz-adv-x="571" 
d="M508 247v-123.5v-123.5h-523v100h169q-36 24 -57.5 68t-21.5 94q0 61 27 108.5t77.5 75t116.5 27.5q105 0 158.5 -57t53.5 -169zM398 100v152q0 67 -25.5 98t-78.5 31t-81.5 -34t-28.5 -96q0 -71 40 -111t113 -40h61zM241 651h102v-103h-102v103z" />
    <glyph glyph-name="uni06A7.medi" unicode="&#x6a7;" horiz-adv-x="613" 
d="M628 0h-643v100h169q-36 24 -57.5 68t-21.5 94q0 61 27 108.5t77.5 75t116.5 27.5q105 0 158.5 -57t53.5 -169v-147h120v-100zM398 100v152q0 67 -25.5 98t-78.5 31t-81.5 -34t-28.5 -96q0 -71 40 -111t113 -40h61zM242 651h102v-103h-102v103z" />
    <glyph glyph-name="uni06A7.fina" unicode="&#x6a7;" horiz-adv-x="703" 
d="M598 100h120v-100h-120q0 -109 -67.5 -165.5t-197.5 -56.5q-155 0 -229 60t-74 185h109q2 -82 46 -117.5t146 -35.5q80 0 118.5 32t39.5 98h-34q-140 0 -215 65t-75 185q0 103 59.5 163t162.5 60q211 0 211 -225v-148zM275 251q0 -74 41 -112.5t120 -38.5h53v129
q0 84 -23.5 118t-81.5 34q-53 0 -81 -33.5t-28 -96.5zM332 651h102v-103h-102v103z" />
    <glyph glyph-name="uni06A8.init" unicode="&#x6a8;" horiz-adv-x="571" 
d="M508 247v-123.5v-123.5h-523v100h169q-36 24 -57.5 68t-21.5 94q0 61 27 108.5t77.5 75t116.5 27.5q105 0 158.5 -57t53.5 -169zM398 100v152q0 67 -25.5 98t-78.5 31t-81.5 -34t-28.5 -96q0 -71 40 -111t113 -40h61zM248 747h94v-89h-94v89zM178 624h94v-89h-94v89z
M318 624h93v-89h-93v89z" />
    <glyph glyph-name="uni06A8.medi" unicode="&#x6a8;" horiz-adv-x="613" 
d="M628 0h-643v100h169q-36 24 -57.5 68t-21.5 94q0 61 27 108.5t77.5 75t116.5 27.5q105 0 158.5 -57t53.5 -169v-147h120v-100zM398 100v152q0 67 -25.5 98t-78.5 31t-81.5 -34t-28.5 -96q0 -71 40 -111t113 -40h61zM247 747h94v-89h-94v89zM177 624h94v-89h-94v89z
M317 624h93v-89h-93v89z" />
    <glyph glyph-name="uni06A8.fina" unicode="&#x6a8;" horiz-adv-x="703" 
d="M598 100h120v-100h-120q0 -109 -67.5 -165.5t-197.5 -56.5q-155 0 -229 60t-74 185h109q2 -82 46 -117.5t146 -35.5q80 0 118.5 32t39.5 98h-34q-140 0 -215 65t-75 185q0 103 59.5 163t162.5 60q211 0 211 -225v-148zM275 251q0 -74 41 -112.5t120 -38.5h53v129
q0 84 -23.5 118t-81.5 34q-53 0 -81 -33.5t-28 -96.5zM337 747h94v-89h-94v89zM267 624h94v-89h-94v89zM407 624h93v-89h-93v89z" />
    <glyph glyph-name="uni06AA.init" unicode="&#x6aa;" horiz-adv-x="752" 
d="M-15 100h608v91q0 91 -46.5 130t-155.5 39h-359v95l316 259h145l-314 -255h241q137 0 210 -67.5t73 -193.5v-198h-718v100z" />
    <glyph glyph-name="uni06AA.medi" unicode="&#x6aa;" horiz-adv-x="818" 
d="M833 0h-848v100h608v91q0 91 -46.5 130t-155.5 39h-359v95l316 259h145l-314 -255h241q137 0 210 -67.5t73 -193.5v-98h130v-100z" />
    <glyph glyph-name="uni06AA.fina" unicode="&#x6aa;" horiz-adv-x="1061" 
d="M311 0q-265 0 -265 197q0 31 8.5 61.5t22.5 51.5l99 -26q-10 -16 -16 -37.5t-6 -41.5q0 -55 38 -80t120 -25h524v91q0 91 -46.5 130t-154.5 39h-360v95l316 259h146l-314 -255h240q137 0 210 -67t73 -194v-98h130v-100h-765z" />
    <glyph glyph-name="uni06AB.init" unicode="&#x6ab;" horiz-adv-x="561" 
d="M224 459q142 0 208 -59.5t66 -186.5v-213h-513v100h404v106q0 66 -17.5 100t-57 48t-109.5 14h-173v87l316 259h145l-76 -62q26 -9 40.5 -30t14.5 -50q0 -38 -24 -61.5t-63 -23.5q-35 0 -57.5 18.5t-27.5 51.5l-121 -98h45zM385 531q18 0 28.5 11t10.5 30q0 20 -10 31
t-29 11t-29 -11t-10 -31q0 -19 10.5 -30t28.5 -11z" />
    <glyph glyph-name="uni06AB.medi" unicode="&#x6ab;" horiz-adv-x="613" 
d="M224 459q142 0 208 -59.5t66 -186.5v-113h130v-100h-643v100h404v106q0 66 -17.5 100t-57 48t-109.5 14h-173v87l316 259h145l-76 -62q26 -9 40.5 -30t14.5 -50q0 -38 -24 -61.5t-63 -23.5q-35 0 -57.5 18.5t-27.5 51.5l-121 -98h45zM385 531q18 0 28.5 11t10.5 30
q0 20 -10 31t-29 11t-29 -11t-10 -31q0 -19 10.5 -30t28.5 -11z" />
    <glyph glyph-name="uni06AB.fina" unicode="&#x6ab;" horiz-adv-x="990" 
d="M734 714h146l-77 -62q26 -9 40.5 -30t14.5 -50q0 -38 -23.5 -61.5t-63.5 -23.5q-34 0 -56.5 18.5t-27.5 51.5l-121 -98h44q135 0 200 -60.5t65 -185.5v-113h130v-100h-698q-261 0 -261 233q0 101 58.5 161.5t162.5 67.5l13 -97q-66 -7 -96 -38.5t-30 -92.5
q0 -69 36.5 -101.5t113.5 -32.5h462v106q0 66 -17.5 100t-57 48t-109.5 14h-164v87zM771 531q18 0 28.5 11t10.5 30q0 20 -10 31t-29 11q-18 0 -28 -11t-10 -31q0 -19 10 -30t28 -11z" />
    <glyph glyph-name="uni06AC.init" unicode="&#x6ac;" horiz-adv-x="561" 
d="M498 0h-513v100h404v106q0 66 -17.5 100t-57 48t-109.5 14h-173v87l316 259h145l-314 -255h45q142 0 208 -59.5t66 -186.5v-213zM-23 714h102v-103h-102v103z" />
    <glyph glyph-name="uni06AC.medi" unicode="&#x6ac;" horiz-adv-x="613" 
d="M389 206q0 66 -17.5 100t-57 48t-109.5 14h-173v87l316 259h145l-314 -255h45q142 0 208 -59.5t66 -186.5v-113h130v-100h-643v100h404v106zM-23 714h102v-103h-102v103z" />
    <glyph glyph-name="uni06AC.fina" unicode="&#x6ac;" horiz-adv-x="879" 
d="M651 100v614h110v-614h133v-100h-587q-129 0 -195 59t-66 174q0 100 59 161.5t162 67.5l14 -97q-66 -6 -96.5 -37.5t-30.5 -93.5q0 -134 150 -134h347zM547 413v-42h-176v42h22v51q0 35 20 54.5t56 19.5q35 0 52.5 -15t22.5 -50l-41 -6q-3 17 -10 24t-21 7q-33 0 -33 -36
v-49h108zM414 684h102v-103h-102v103z" />
    <glyph glyph-name="uni06AE.init" unicode="&#x6ae;" horiz-adv-x="561" 
d="M498 0h-513v100h404v106q0 66 -17.5 100t-57 48t-109.5 14h-173v87l316 259h145l-314 -255h45q142 0 208 -59.5t66 -186.5v-213zM168 -194h94v-89h-94v89zM98 -71h94v-89h-94v89zM238 -71h93v-89h-93v89z" />
    <glyph glyph-name="uni06AE.medi" unicode="&#x6ae;" horiz-adv-x="613" 
d="M389 206q0 66 -17.5 100t-57 48t-109.5 14h-173v87l316 259h145l-314 -255h45q142 0 208 -59.5t66 -186.5v-113h130v-100h-643v100h404v106zM168 -194h94v-89h-94v89zM98 -71h94v-89h-94v89zM238 -71h93v-89h-93v89z" />
    <glyph glyph-name="uni06AE.fina" unicode="&#x6ae;" horiz-adv-x="879" 
d="M651 100v614h110v-614h133v-100h-587q-129 0 -195 59t-66 174q0 100 59 161.5t162 67.5l14 -97q-66 -6 -96.5 -37.5t-30.5 -93.5q0 -134 150 -134h347zM547 413v-42h-176v42h22v51q0 35 20 54.5t56 19.5q35 0 52.5 -15t22.5 -50l-41 -6q-3 17 -10 24t-21 7q-33 0 -33 -36
v-49h108zM409 -194h94v-89h-94v89zM339 -71h94v-89h-94v89zM479 -71h93v-89h-93v89z" />
    <glyph glyph-name="uni06B0.init" unicode="&#x6b0;" horiz-adv-x="561" 
d="M224 459q142 0 208 -59.5t66 -186.5v-213h-513v100h404v106q0 66 -17.5 100t-57 48t-109.5 14h-173v87l316 259h145l-76 -62q26 -9 40.5 -30t14.5 -50q0 -38 -24 -61.5t-63 -23.5q-35 0 -57.5 18.5t-27.5 51.5l-121 -98h45zM385 531q18 0 28.5 11t10.5 30q0 20 -10 31
t-29 11t-29 -11t-10 -31q0 -19 10.5 -30t28.5 -11zM13 565l181 149h80l-261 -216v67z" />
    <glyph glyph-name="uni06B0.medi" unicode="&#x6b0;" horiz-adv-x="613" 
d="M224 459q142 0 208 -59.5t66 -186.5v-113h130v-100h-643v100h404v106q0 66 -17.5 100t-57 48t-109.5 14h-173v87l316 259h145l-76 -62q26 -9 40.5 -30t14.5 -50q0 -38 -24 -61.5t-63 -23.5q-35 0 -57.5 18.5t-27.5 51.5l-121 -98h45zM385 531q18 0 28.5 11t10.5 30
q0 20 -10 31t-29 11t-29 -11t-10 -31q0 -19 10.5 -30t28.5 -11zM13 565l181 149h80l-261 -216v67z" />
    <glyph glyph-name="uni06B0.fina" unicode="&#x6b0;" horiz-adv-x="990" 
d="M734 714h146l-77 -62q26 -9 40.5 -30t14.5 -50q0 -38 -23.5 -61.5t-63.5 -23.5q-34 0 -56.5 18.5t-27.5 51.5l-121 -98h44q135 0 200 -60.5t65 -185.5v-113h130v-100h-698q-261 0 -261 233q0 101 58.5 161.5t162.5 67.5l13 -97q-66 -7 -96 -38.5t-30 -92.5
q0 -69 36.5 -101.5t113.5 -32.5h462v106q0 66 -17.5 100t-57 48t-109.5 14h-164v87zM771 531q18 0 28.5 11t10.5 30q0 20 -10 31t-29 11q-18 0 -28 -11t-10 -31q0 -19 10 -30t28 -11zM399 567l177 147h80l-257 -213v66z" />
    <glyph glyph-name="uni06B2.init" unicode="&#x6b2;" horiz-adv-x="564" 
d="M89 -77h101v-101h-101v101zM243 -77h100v-101h-100v101zM498 0h-513v100h404v106q0 66 -17.5 100t-57 48t-109.5 14h-173v87l316 259h145l-314 -255h45q142 0 208 -59.5t66 -186.5v-213zM13 565l181 149h80l-261 -216v67z" />
    <glyph glyph-name="uni06B2.medi" unicode="&#x6b2;" horiz-adv-x="613" 
d="M89 -77h101v-101h-101v101zM243 -77h100v-101h-100v101zM389 206q0 66 -17.5 100t-57 48t-109.5 14h-173v87l316 259h145l-314 -255h45q142 0 208 -59.5t66 -186.5v-113h130v-100h-643v100h404v106zM13 565l181 149h80l-261 -216v67z" />
    <glyph glyph-name="uni06B2.fina" unicode="&#x6b2;" horiz-adv-x="990" 
d="M381 -71h101v-101h-101v101zM535 -71h100v-101h-100v101zM307 0q-261 0 -261 233q0 100 59 161.5t162 67.5l14 -97q-66 -6 -96.5 -37.5t-30.5 -93.5q0 -69 36.5 -101.5t113.5 -32.5h462v106q0 66 -17.5 100t-57 48t-109.5 14h-164v87l316 259h146l-314 -255h44
q135 0 200 -60.5t65 -185.5v-113h130v-100h-698zM399 567l177 147h80l-257 -213v66z" />
    <glyph glyph-name="uni06B4.init" unicode="&#x6b4;" horiz-adv-x="564" 
d="M498 0h-513v100h404v106q0 66 -17.5 100t-57 48t-109.5 14h-173v87l316 259h145l-314 -255h45q142 0 208 -59.5t66 -186.5v-213zM13 565l181 149h80l-261 -216v67zM-44 926h94v-89h-94v89zM-114 803h94v-89h-94v89zM26 803h93v-89h-93v89z" />
    <glyph glyph-name="uni06B4.medi" unicode="&#x6b4;" horiz-adv-x="613" 
d="M-44 926h94v-89h-94v89zM-114 803h94v-89h-94v89zM26 803h93v-89h-93v89zM389 206q0 66 -17.5 100t-57 48t-109.5 14h-173v87l316 259h145l-314 -255h45q142 0 208 -59.5t66 -186.5v-113h130v-100h-643v100h404v106zM13 565l181 149h80l-261 -216v67z" />
    <glyph glyph-name="uni06B4.fina" unicode="&#x6b4;" horiz-adv-x="990" 
d="M339 926h94v-89h-94v89zM269 803h94v-89h-94v89zM409 803h93v-89h-93v89zM307 0q-261 0 -261 233q0 100 59 161.5t162 67.5l14 -97q-66 -6 -96.5 -37.5t-30.5 -93.5q0 -69 36.5 -101.5t113.5 -32.5h462v106q0 66 -17.5 100t-57 48t-109.5 14h-164v87l316 259h146
l-314 -255h44q135 0 200 -60.5t65 -185.5v-113h130v-100h-698zM399 567l177 147h80l-257 -213v66z" />
    <glyph glyph-name="uni06B5.init" unicode="&#x6b5;" horiz-adv-x="294" 
d="M-15 100h136v614h109v-714h-245v100zM205 765h-58l-86 141h56l59 -99l59 99h56z" />
    <glyph glyph-name="uni06B5.medi" unicode="&#x6b5;" horiz-adv-x="351" 
d="M-15 100h136v614h109v-614h136v-100h-381v100zM205 765h-58l-86 141h56l59 -99l59 99h56z" />
    <glyph glyph-name="uni06B5.fina" unicode="&#x6b5;" horiz-adv-x="625" 
d="M505 100h135v-100h-136q-4 -105 -65 -163.5t-166 -58.5q-119 0 -179 59t-60 175q0 37 12.5 81t33.5 83l99 -26q-37 -68 -37 -138q0 -69 32 -104.5t95 -35.5q126 0 126 149v693h110v-614zM478 766h-58l-86 141h56l59 -99l59 99h56z" />
    <glyph glyph-name="uni06B6.init" unicode="&#x6b6;" horiz-adv-x="294" 
d="M-15 100h136v614h109v-714h-245v100zM124 868h102v-103h-102v103z" />
    <glyph glyph-name="uni06B6.medi" unicode="&#x6b6;" horiz-adv-x="351" 
d="M-15 100h136v614h109v-614h136v-100h-381v100zM124 868h102v-103h-102v103z" />
    <glyph glyph-name="uni06B6.fina" unicode="&#x6b6;" horiz-adv-x="625" 
d="M505 100h135v-100h-136q-4 -105 -65 -163.5t-166 -58.5q-119 0 -179 59t-60 175q0 37 12.5 81t33.5 83l99 -26q-37 -68 -37 -138q0 -69 32 -104.5t95 -35.5q126 0 126 149v693h110v-614zM399 868h102v-103h-102v103z" />
    <glyph glyph-name="uni06B7.init" unicode="&#x6b7;" horiz-adv-x="294" 
d="M-15 100h136v614h109v-714h-245v100zM129 977h94v-89h-94v89zM59 854h94v-89h-94v89zM199 854h93v-89h-93v89z" />
    <glyph glyph-name="uni06B7.medi" unicode="&#x6b7;" horiz-adv-x="351" 
d="M-15 100h136v614h109v-614h136v-100h-381v100zM129 977h94v-89h-94v89zM59 854h94v-89h-94v89zM199 854h93v-89h-93v89z" />
    <glyph glyph-name="uni06B7.fina" unicode="&#x6b7;" horiz-adv-x="625" 
d="M505 100h135v-100h-136q-4 -105 -65 -163.5t-166 -58.5q-119 0 -179 59t-60 175q0 37 12.5 81t33.5 83l99 -26q-37 -68 -37 -138q0 -69 32 -104.5t95 -35.5q126 0 126 149v693h110v-614zM401 977h94v-89h-94v89zM331 854h94v-89h-94v89zM471 854h93v-89h-93v89z" />
    <glyph glyph-name="uni06B8.init" unicode="&#x6b8;" horiz-adv-x="294" 
d="M-15 100h136v614h109v-714h-245v100zM67 -194h94v-89h-94v89zM-3 -71h94v-89h-94v89zM137 -71h93v-89h-93v89z" />
    <glyph glyph-name="uni06B8.medi" unicode="&#x6b8;" horiz-adv-x="351" 
d="M-15 100h136v614h109v-614h136v-100h-381v100zM67 -194h94v-89h-94v89zM-3 -71h94v-89h-94v89zM137 -71h93v-89h-93v89z" />
    <glyph glyph-name="uni06B8.fina" unicode="&#x6b8;" horiz-adv-x="625" 
d="M505 100h135v-100h-136q-4 -105 -65 -163.5t-166 -58.5q-119 0 -179 59t-60 175q0 37 12.5 81t33.5 83l99 -26q-37 -68 -37 -138q0 -69 32 -104.5t95 -35.5q126 0 126 149v693h110v-614zM232 -406h94v-89h-94v89zM162 -283h94v-89h-94v89zM302 -283h93v-89h-93v89z" />
    <glyph glyph-name="uni06B9.init" unicode="&#x6b9;" horiz-adv-x="294" 
d="M230 0h-245v100h136v247q0 49 -20 85l99 41q16 -22 23 -48t7 -67v-358zM116 651h102v-103h-102v103zM127 -76h102v-103h-102v103z" />
    <glyph glyph-name="uni06B9.medi" unicode="&#x6b9;" horiz-adv-x="351" 
d="M-15 100h136v357h109v-357h136v-100h-381v100zM124 651h102v-103h-102v103zM124 -76h102v-103h-102v103z" />
    <glyph glyph-name="uni06B9.fina" unicode="&#x6b9;" horiz-adv-x="625" 
d="M504 0q-4 -106 -63 -164t-164 -58q-119 0 -181 60t-62 176q0 38 12.5 83.5t33.5 82.5l99 -26q-37 -66 -37 -140q0 -69 33.5 -105.5t97.5 -36.5q122 0 122 149v436h110v-357h135v-100h-136zM232 651h102v-103h-102v103zM224 -288h102v-103h-102v103z" />
    <glyph glyph-name="uni06BC.init" unicode="&#x6bc;" horiz-adv-x="294" 
d="M22 -41q0 21 9 41h-46v100h136v247q0 49 -20 85l99 41q16 -22 23 -48t7 -67v-358h-45q10 -18 10 -41q0 -39 -24 -61.5t-63 -22.5t-62.5 22.5t-23.5 61.5zM108 -81q19 0 29 10.5t10 30.5t-10 30.5t-29 10.5q-18 0 -28 -10.5t-10 -30.5t10 -30.5t28 -10.5zM116 651h102
v-103h-102v103z" />
    <glyph glyph-name="uni06BC.medi" unicode="&#x6bc;" horiz-adv-x="351" 
d="M68 -41q0 24 9 41h-92v100h136v357h109v-357h136v-100h-135q10 -18 10 -41q0 -39 -24 -61.5t-63 -22.5t-62.5 22.5t-23.5 61.5zM154 -81q19 0 29 10.5t10 30.5t-10 30.5t-29 10.5t-29 -10.5t-10 -30.5t10 -30.5t29 -10.5zM124 651h102v-103h-102v103z" />
    <glyph glyph-name="uni06BC.fina" unicode="&#x6bc;" horiz-adv-x="625" 
d="M504 0q-3 -85 -42.5 -140.5t-110.5 -73.5q14 -23 14 -50q0 -38 -24 -61t-63 -23q-38 0 -62 22.5t-24 61.5q0 29 12 49q-84 17 -127 75t-43 154q0 38 12.5 83t33.5 83l99 -26q-37 -68 -37 -140q0 -69 34 -105.5t97 -36.5q122 0 122 149v436h110v-357h135v-100h-136z
M278 -304q18 0 28.5 11t10.5 30q0 21 -10.5 31.5t-28.5 10.5t-28.5 -10.5t-10.5 -31.5q0 -19 10.5 -30t28.5 -11zM233 651h102v-103h-102v103z" />
    <glyph glyph-name="uni06BD.init" unicode="&#x6bd;" horiz-adv-x="294" 
d="M230 0h-245v100h136v247q0 49 -20 85l99 41q16 -22 23 -48t7 -67v-358zM65 -194h94v-89h-94v89zM-5 -71h94v-89h-94v89zM135 -71h93v-89h-93v89z" />
    <glyph glyph-name="uni06BD.medi" unicode="&#x6bd;" horiz-adv-x="351" 
d="M-15 100h136v357h109v-357h136v-100h-381v100zM65 -194h94v-89h-94v89zM-5 -71h94v-89h-94v89zM135 -71h93v-89h-93v89z" />
    <glyph glyph-name="uni06BD.fina" unicode="&#x6bd;" horiz-adv-x="625" 
d="M504 0q-4 -106 -63 -164t-164 -58q-119 0 -181 60t-62 176q0 38 12.5 83.5t33.5 82.5l99 -26q-37 -66 -37 -140q0 -69 33.5 -105.5t97.5 -36.5q122 0 122 149v436h110v-357h135v-100h-136zM237 747h94v-89h-94v89zM167 624h94v-89h-94v89zM307 624h93v-89h-93v89z" />
    <glyph glyph-name="uni06BF.init" unicode="&#x6bf;" horiz-adv-x="565" 
d="M-15 100h362v140q0 76 -24 107t-83 31q-52 0 -77 -18.5t-36 -65.5l-106 11q15 86 68 127t150 41q112 0 164.5 -54t52.5 -169v-150h79v-100h-550v100zM190 651h102v-103h-102v103zM208 -194h94v-89h-94v89zM138 -71h94v-89h-94v89zM278 -71h93v-89h-93v89z" />
    <glyph glyph-name="uni06BF.medi" unicode="&#x6bf;" horiz-adv-x="576" 
d="M350 240q0 76 -24 107t-82 31q-53 0 -78 -18.5t-36 -65.5l-105 11q15 86 68 127t150 41q112 0 164.5 -54t52.5 -169v-150h131v-100h-606v100h365v140zM190 651h102v-103h-102v103zM208 -194h94v-89h-94v89zM138 -71h94v-89h-94v89zM278 -71h93v-89h-93v89z" />
    <glyph glyph-name="uni06BF.fina" unicode="&#x6bf;" horiz-adv-x="625" 
d="M252 0q-56 0 -88 -30t-32 -82q0 -59 34 -87.5t105 -28.5q59 0 92.5 23t47.5 73h110q-13 -91 -78.5 -141t-171.5 -50q-122 0 -185 54t-63 160q0 95 64.5 152t171.5 57h142v140q0 76 -24 107t-83 31q-53 0 -77.5 -18t-35.5 -66l-106 11q15 86 68 127t150 41
q112 0 164.5 -54t52.5 -169v-150h130v-100h-388zM245 651h102v-103h-102v103zM248 -130h61v-62h-61v62zM203 -46h61v-61h-61v61zM294 -46h60v-61h-60v61z" />
    <glyph glyph-name="uni06C2.fina" unicode="&#x6c2;" horiz-adv-x="503" 
d="M252 136q-23 53 -53.5 74t-85.5 21q-26 0 -73 -12l-22 89q54 16 102 16q90 0 143.5 -36t89.5 -120l29 -68h136v-100h-208zM242 426v-42h-176v42h22v51q0 35 20 54.5t56 19.5q35 0 52.5 -15t22.5 -50l-41 -6q-3 17 -10 24t-21 7q-33 0 -33 -36v-49h108z" />
    <glyph glyph-name="uni06C3.fina" unicode="&#x6c3;" horiz-adv-x="489" 
d="M239 136q-23 53 -53.5 74t-85.5 21q-26 0 -73 -12l-22 89q54 16 102 16q90 0 143.5 -36t89.5 -120l29 -68h136v-100h-208zM6 496h101v-102h-101v102zM160 496h100v-102h-100v102z" />
    <glyph glyph-name="uni06C4.fina" unicode="&#x6c4;" horiz-adv-x="586" 
d="M55 -82q0 39 23.5 62.5t61.5 23.5q39 0 63 -24t24 -62q0 -21 -8 -37q21 -7 49 -7q55 0 79 26.5t24 88.5v18h-34q-141 0 -215.5 62.5t-74.5 180.5q0 103 60 163t162 60q105 0 158.5 -56.5t53.5 -168.5v-148h120v-100h-120q0 -111 -52 -164.5t-162 -53.5q-95 0 -153.5 37.5
t-58.5 98.5zM157 251q0 -74 41 -112.5t120 -38.5h53v129q0 84 -23.5 118t-81.5 34q-53 0 -81 -33.5t-28 -96.5zM141 -123q18 0 28.5 11t10.5 30q0 20 -10 31t-29 11t-29 -11t-10 -31q0 -19 10.5 -30t28.5 -11z" />
    <glyph glyph-name="uni06CA.fina" unicode="&#x6ca;" horiz-adv-x="586" 
d="M481 100h120v-100h-120q0 -111 -52 -164.5t-162 -53.5q-96 0 -151 44t-66 129h108q8 -41 34.5 -60.5t75.5 -19.5q56 0 79.5 26.5t23.5 87.5v11h-34q-140 0 -215 65t-75 185q0 103 60 163t162 60q105 0 158.5 -56.5t53.5 -168.5v-148zM157 251q0 -74 41 -112.5t120 -38.5
h53v129q0 84 -23.5 118t-81.5 34q-53 0 -81 -33.5t-28 -96.5zM140 639h101v-102h-101v102zM294 639h100v-102h-100v102z" />
    <glyph glyph-name="uni06CD.fina" unicode="&#x6cd;" horiz-adv-x="895" 
d="M505 15q0 -112 -60 -174.5t-168 -62.5q-119 0 -181 60t-62 176q0 38 12.5 83.5t33.5 82.5l99 -26q-37 -66 -37 -140q0 -69 33.5 -105.5t97.5 -36.5q122 0 122 149v246q0 92 48 141t137 49h193v-357h137v-100h-247v361h-73q-43 0 -64 -24.5t-21 -74.5v-247z" />
    <glyph glyph-name="uni06CE.init" unicode="&#x6ce;" horiz-adv-x="294" 
d="M230 0h-245v100h136v247q0 49 -20 85l99 41q16 -22 23 -48t7 -67v-358zM195 535h-58l-86 141h56l59 -99l59 99h56zM-23 -77h101v-101h-101v101zM131 -77h100v-101h-100v101z" />
    <glyph glyph-name="uni06CE.medi" unicode="&#x6ce;" horiz-adv-x="351" 
d="M-15 100h136v357h109v-357h136v-100h-381v100zM180 535h-58l-86 141h56l59 -99l59 99h56zM-28 -77h101v-101h-101v101zM126 -77h100v-101h-100v101z" />
    <glyph glyph-name="uni06CE.fina" unicode="&#x6ce;" horiz-adv-x="895" 
d="M505 15q0 -112 -60 -174.5t-168 -62.5q-119 0 -181 60t-62 176q0 38 12.5 83.5t33.5 82.5l99 -26q-37 -66 -37 -140q0 -69 33.5 -105.5t97.5 -36.5q122 0 122 149v246q0 92 48 141t137 49h193v-357h137v-100h-247v361h-73q-43 0 -64 -24.5t-21 -74.5v-247zM186 282h-58
l-86 141h56l59 -99l59 99h56z" />
    <glyph glyph-name="uni06CF.fina" unicode="&#x6cf;" horiz-adv-x="586" 
d="M481 100h120v-100h-120q0 -111 -52 -164.5t-162 -53.5q-96 0 -151 44t-66 129h108q8 -41 34.5 -60.5t75.5 -19.5q56 0 79.5 26.5t23.5 87.5v11h-34q-140 0 -215 65t-75 185q0 103 60 163t162 60q105 0 158.5 -56.5t53.5 -168.5v-148zM157 251q0 -74 41 -112.5t120 -38.5
h53v129q0 84 -23.5 118t-81.5 34q-53 0 -81 -33.5t-28 -96.5zM204 651h102v-103h-102v103z" />
    <glyph glyph-name="uni06D1.init" unicode="&#x6d1;" horiz-adv-x="294" 
d="M230 0h-245v100h136v247q0 49 -20 85l99 41q16 -22 23 -48t7 -67v-358zM66 -194h94v-89h-94v89zM-4 -71h94v-89h-94v89zM136 -71h93v-89h-93v89z" />
    <glyph glyph-name="uni06D1.medi" unicode="&#x6d1;" horiz-adv-x="351" 
d="M-15 100h136v357h109v-357h136v-100h-381v100zM61 -194h94v-89h-94v89zM-9 -71h94v-89h-94v89zM131 -71h93v-89h-93v89z" />
    <glyph glyph-name="uni06D1.fina" unicode="&#x6d1;" horiz-adv-x="895" 
d="M505 15q0 -112 -60 -174.5t-168 -62.5q-119 0 -181 60t-62 176q0 38 12.5 83.5t33.5 82.5l99 -26q-37 -66 -37 -140q0 -69 33.5 -105.5t97.5 -36.5q122 0 122 149v246q0 92 48 141t137 49h193v-357h137v-100h-247v361h-73q-43 0 -64 -24.5t-21 -74.5v-247zM224 -408h94
v-89h-94v89zM154 -285h94v-89h-94v89zM294 -285h93v-89h-93v89z" />
    <glyph glyph-name="afii57534.fina" unicode="&#x6d5;" horiz-adv-x="584" 
d="M479 100h120v-100h-263q-140 0 -215 65t-75 185q0 103 59.5 163t162.5 60q211 0 211 -225v-148zM156 251q0 -75 41 -113t120 -38h53v129q0 84 -23.5 118t-81.5 34q-53 0 -81 -33.5t-28 -96.5z" />
    <glyph glyph-name="uni06EE.fina" unicode="&#x6ee;" horiz-adv-x="589" 
d="M367 100v73q0 103 -37.5 152t-116.5 49q-47 0 -104 -19l-26 96q64 22 140 22q125 0 189.5 -73.5t64.5 -215.5v-84h127v-100h-574v100h337zM229 676h58l86 -141h-57l-58 99l-59 -99h-56z" />
    <glyph glyph-name="uni06EF.fina" unicode="&#x6ef;" horiz-adv-x="376" 
d="M17 -121q41 -8 61 -8q68 0 68 75v511h109v-357h136v-100h-136v-50q0 -88 -38.5 -130t-118.5 -42q-45 0 -98 15zM172 676h58l86 -141h-57l-58 99l-59 -99h-56z" />
    <glyph glyph-name="uni06FA.init" unicode="&#x6fa;" horiz-adv-x="838" 
d="M503 100h161v247q0 49 -20 85l100 41q16 -23 23 -49t7 -66v-358h-789v100h135v357h110v-357h163v357h110v-357zM403 747h94v-89h-94v89zM333 624h94v-89h-94v89zM473 624h93v-89h-93v89zM398 -76h102v-103h-102v103z" />
    <glyph glyph-name="uni06FA.medi" unicode="&#x6fa;" horiz-adv-x="895" 
d="M910 100v-100h-925v100h135v357h110v-357h163v357h110v-357h161v247q0 49 -20 85l100 41q16 -23 23 -49t7 -66v-258h136zM403 747h94v-89h-94v89zM333 624h94v-89h-94v89zM473 624h93v-89h-93v89zM398 -76h102v-103h-102v103z" />
    <glyph glyph-name="uni06FA.fina" unicode="&#x6fa;" horiz-adv-x="1169" 
d="M504 0q-4 -106 -63.5 -164t-163.5 -58q-119 0 -181 60t-62 176q0 38 12.5 83.5t33.5 82.5l99 -26q-37 -66 -37 -140q0 -69 33.5 -105.5t97.5 -36.5q122 0 122 149v436h110v-357h163v357h109v-357h162v247q0 49 -20 85l99 41q17 -23 24 -49.5t7 -65.5v-258h135v-100h-680z
M677 747h94v-89h-94v89zM607 624h94v-89h-94v89zM747 624h93v-89h-93v89zM671 -76h102v-103h-102v103z" />
    <glyph glyph-name="uni06FB.init" unicode="&#x6fb;" horiz-adv-x="777" 
d="M458 378q-106 0 -167.5 -61.5t-61.5 -168.5v-48h376v80q0 102 -35.5 150t-111.5 48zM714 0h-729v100h137v357h109v-113q40 63 101 96t137 33q120 0 182.5 -68.5t62.5 -200.5v-204zM391 651h102v-103h-102v103zM391 -76h102v-103h-102v103z" />
    <glyph glyph-name="uni06FB.medi" unicode="&#x6fb;" horiz-adv-x="821" 
d="M458 378q-106 0 -167.5 -61.5t-61.5 -168.5v-48h376v80q0 102 -35.5 150t-111.5 48zM231 344q40 63 101 96t137 33q120 0 182.5 -68.5t62.5 -200.5v-104h122v-100h-851v100h137v357h109v-113zM391 651h102v-103h-102v103zM391 -76h102v-103h-102v103z" />
    <glyph glyph-name="uni06FB.fina" unicode="&#x6fb;" horiz-adv-x="1094" 
d="M731 378q-106 0 -167 -61.5t-61 -168.5v-48h375v80q0 102 -35.5 150t-111.5 48zM505 344q40 63 101 96t137 33q120 0 182.5 -69t62.5 -200v-104h121v-100h-605q-5 -107 -64 -164.5t-164 -57.5q-118 0 -180 60t-62 176q0 39 12.5 83.5t33.5 82.5l99 -25q-37 -68 -37 -141
q0 -69 33.5 -105.5t97.5 -36.5q122 0 122 149v436h110v-113zM665 651h102v-103h-102v103zM663 -76h102v-103h-102v103z" />
    <glyph glyph-name="uni06FC.init" unicode="&#x6fc;" horiz-adv-x="599" 
d="M116 245q0 228 225 228q95 0 145 -40t64 -128l-105 -11q-10 48 -33.5 66t-73.5 18q-60 0 -86 -32.5t-26 -105.5v-140h343v-100h-584v100h131v145zM287 651h102v-103h-102v103zM287 -76h102v-103h-102v103z" />
    <glyph glyph-name="uni06FC.medi" unicode="&#x6fc;" horiz-adv-x="567" 
d="M116 245q0 228 225 228q95 0 145 -40t64 -128l-105 -11q-10 48 -33.5 66t-73.5 18q-60 0 -86 -32.5t-26 -105.5v-140h356v-100h-597v100h131v145zM287 651h102v-103h-102v103zM287 -76h102v-103h-102v103z" />
    <glyph glyph-name="uni06FC.fina" unicode="&#x6fc;" horiz-adv-x="645" 
d="M660 0h-425q-53 0 -80.5 -28.5t-27.5 -82.5q0 -60 34.5 -88.5t104.5 -28.5q59 0 92.5 23t47.5 73h110q-13 -91 -78.5 -141t-171.5 -50q-122 0 -185 54.5t-63 160.5q0 54 21 97.5t61 71t94 34.5v150q0 228 225 228q95 0 145 -40t64 -128l-105 -11q-10 48 -33.5 66
t-73.5 18q-60 0 -86 -32.5t-26 -105.5v-140h356v-100zM365 651h102v-103h-102v103zM222 -68h85v-86h-85v86z" />
    <glyph glyph-name="uni06FF.init" unicode="&#x6ff;" horiz-adv-x="792" 
d="M-15 100h173q-75 54 -75 161q0 100 53.5 157t146.5 57q25 0 62 -7q28 29 72 44.5t99 15.5q213 0 213 -215v-313h-744v100zM512 436q-29 0 -47 -5t-33 -17q48 -48 48 -165v-151h141v208q0 68 -26 99t-83 31zM373 247q0 71 -21.5 103.5t-68.5 32.5q-44 0 -67.5 -32.5
t-23.5 -92.5q0 -160 181 -160v149zM489 729h58l86 -141h-57l-58 99l-59 -99h-56z" />
    <glyph glyph-name="uni06FF.medi" unicode="&#x6ff;" horiz-adv-x="584" 
d="M-15 0v100h115v158q0 103 51 159t146 56q93 0 143 -51.5t50 -147.5q0 -56 -23.5 -101t-67.5 -73h200v-100h-159q28 -15 44.5 -41t16.5 -56q0 -62 -49.5 -95.5t-141.5 -33.5q-210 0 -210 193v33h-115zM380 259q0 122 -84 122q-45 0 -66 -26t-21 -82v-176h26
q66 0 105.5 44.5t39.5 117.5zM397 -76q0 38 -36.5 59t-101.5 21h-54v-28q0 -114 101 -114q91 0 91 62zM263 672h58l86 -141h-57l-58 99l-59 -99h-56z" />
    <glyph glyph-name="uni06FF.fina" unicode="&#x6ff;" horiz-adv-x="544" 
d="M60 258q0 103 51 159t146 56q93 0 143 -51.5t50 -147.5q0 -56 -23.5 -101t-67.5 -73h200v-100h-159q28 -15 44.5 -41t16.5 -56q0 -62 -49.5 -95.5t-141.5 -33.5q-210 0 -210 193v291zM340 259q0 122 -84 122q-45 0 -66 -26t-21 -82v-176h26q66 0 105.5 44.5t39.5 117.5z
M357 -76q0 38 -36.5 59t-101.5 21h-54v-28q0 -114 101 -114q91 0 91 62zM226 672h58l86 -141h-57l-58 99l-59 -99h-56z" />
    <glyph glyph-name="uniFB50" unicode="&#x671;" horiz-adv-x="243" arabic-form="isolated" 
d="M66 0v714h110v-714h-110zM76 865q11 17 28.5 26.5t38.5 9.5q34 0 53.5 -19.5t19.5 -53.5v-67h-200v40h19v101h41v-37zM134 860q-23 0 -36 -13q-17 -13 -17 -39v-7h91v13q0 24 -9 35t-29 11z" />
    <glyph glyph-name="uniFB51" unicode="&#x671;" horiz-adv-x="294" arabic-form="final" 
d="M309 0h-245v714h110v-614h135v-100zM73 865q11 17 28.5 26.5t38.5 9.5q34 0 53.5 -19.5t19.5 -53.5v-67h-200v40h19v101h41v-37zM131 860q-23 0 -36 -13q-17 -13 -17 -39v-7h91v13q0 24 -9 35t-29 11z" />
    <glyph glyph-name="uniFB52" unicode="&#x67b;" horiz-adv-x="825" arabic-form="isolated" 
d="M307 0q-129 0 -195 59t-66 174q0 100 59 161.5t162 67.5l14 -97q-66 -6 -96.5 -37.5t-30.5 -93.5q0 -134 150 -134h347v357h110v-457h-454zM400 -198h99v-85h-99v85zM400 -71h99v-85h-99v85z" />
    <glyph glyph-name="uniFB53" unicode="&#x67b;" horiz-adv-x="879" arabic-form="final" 
d="M651 100v357h110v-357h133v-100h-587q-129 0 -195 59t-66 174q0 100 59 161.5t162 67.5l14 -97q-66 -6 -96.5 -37.5t-30.5 -93.5q0 -134 150 -134h347zM398 -198h99v-85h-99v85zM398 -71h99v-85h-99v85z" />
    <glyph glyph-name="uniFB54" unicode="&#x67b;" horiz-adv-x="294" arabic-form="initial" 
d="M230 0h-245v100h136v247q0 49 -20 85l99 41q16 -22 23 -48t7 -67v-358zM130 -198h99v-85h-99v85zM130 -71h99v-85h-99v85z" />
    <glyph glyph-name="uniFB55" unicode="&#x67b;" horiz-adv-x="351" arabic-form="medial" 
d="M-15 100h136v357h109v-357h136v-100h-381v100zM127 -198h99v-85h-99v85zM127 -71h99v-85h-99v85z" />
    <glyph glyph-name="uniFB56" unicode="&#x67e;" horiz-adv-x="825" arabic-form="isolated" 
d="M307 0q-129 0 -195 59t-66 174q0 100 59 161.5t162 67.5l14 -97q-66 -6 -96.5 -37.5t-30.5 -93.5q0 -134 150 -134h347v357h110v-457h-454zM410 -194h94v-89h-94v89zM340 -71h94v-89h-94v89zM480 -71h93v-89h-93v89z" />
    <glyph glyph-name="uniFB57" unicode="&#x67e;" horiz-adv-x="879" arabic-form="final" 
d="M651 100v357h110v-357h133v-100h-587q-129 0 -195 59t-66 174q0 100 59 161.5t162 67.5l14 -97q-66 -6 -96.5 -37.5t-30.5 -93.5q0 -134 150 -134h347zM410 -194h94v-89h-94v89zM340 -71h94v-89h-94v89zM480 -71h93v-89h-93v89z" />
    <glyph glyph-name="uniFB58" unicode="&#x67e;" horiz-adv-x="294" arabic-form="initial" 
d="M230 0h-245v100h136v247q0 49 -20 85l99 41q16 -22 23 -48t7 -67v-358zM65 -194h94v-89h-94v89zM-5 -71h94v-89h-94v89zM135 -71h93v-89h-93v89z" />
    <glyph glyph-name="uniFB59" unicode="&#x67e;" horiz-adv-x="351" arabic-form="medial" 
d="M-15 100h136v357h109v-357h136v-100h-381v100zM65 -194h94v-89h-94v89zM-5 -71h94v-89h-94v89zM135 -71h93v-89h-93v89z" />
    <glyph glyph-name="uniFB5A" unicode="&#x680;" horiz-adv-x="825" arabic-form="isolated" 
d="M307 0q-129 0 -195 59t-66 174q0 100 59 161.5t162 67.5l14 -97q-66 -6 -96.5 -37.5t-30.5 -93.5q0 -134 150 -134h347v357h110v-457h-454zM337 -71h90v-86h-90v86zM469 -71h89v-86h-89v86zM337 -196h90v-87h-90v87zM469 -196h89v-87h-89v87z" />
    <glyph glyph-name="uniFB5B" unicode="&#x680;" horiz-adv-x="879" arabic-form="final" 
d="M651 100v357h110v-357h133v-100h-587q-129 0 -195 59t-66 174q0 100 59 161.5t162 67.5l14 -97q-66 -6 -96.5 -37.5t-30.5 -93.5q0 -134 150 -134h347zM345 -71h90v-86h-90v86zM477 -71h89v-86h-89v86zM345 -196h90v-87h-90v87zM477 -196h89v-87h-89v87z" />
    <glyph glyph-name="uniFB5C" unicode="&#x680;" horiz-adv-x="294" arabic-form="initial" 
d="M230 0h-245v100h136v247q0 49 -20 85l99 41q16 -22 23 -48t7 -67v-358zM7 -71h90v-86h-90v86zM139 -71h89v-86h-89v86zM7 -196h90v-87h-90v87zM139 -196h89v-87h-89v87z" />
    <glyph glyph-name="uniFB5D" unicode="&#x680;" horiz-adv-x="351" arabic-form="medial" 
d="M-15 100h136v357h109v-357h136v-100h-381v100zM7 -71h90v-86h-90v86zM139 -71h89v-86h-89v86zM7 -196h90v-87h-90v87zM139 -196h89v-87h-89v87z" />
    <glyph glyph-name="uniFB5E" unicode="&#x67a;" horiz-adv-x="825" arabic-form="isolated" 
d="M307 0q-129 0 -195 59t-66 174q0 100 59 161.5t162 67.5l14 -97q-66 -6 -96.5 -37.5t-30.5 -93.5q0 -134 150 -134h347v357h110v-457h-454zM397 628h99v-85h-99v85zM397 755h99v-85h-99v85z" />
    <glyph glyph-name="uniFB5F" unicode="&#x67a;" horiz-adv-x="879" arabic-form="final" 
d="M651 100v357h110v-357h133v-100h-587q-129 0 -195 59t-66 174q0 100 59 161.5t162 67.5l14 -97q-66 -6 -96.5 -37.5t-30.5 -93.5q0 -134 150 -134h347zM396 620h99v-85h-99v85zM396 747h99v-85h-99v85z" />
    <glyph glyph-name="uniFB60" unicode="&#x67a;" horiz-adv-x="294" arabic-form="initial" 
d="M230 0h-245v100h136v247q0 49 -20 85l99 41q16 -22 23 -48t7 -67v-358zM120 620h99v-85h-99v85zM120 747h99v-85h-99v85z" />
    <glyph glyph-name="uniFB61" unicode="&#x67a;" horiz-adv-x="351" arabic-form="medial" 
d="M-15 100h136v357h109v-357h136v-100h-381v100zM124 620h99v-85h-99v85zM124 747h99v-85h-99v85z" />
    <glyph glyph-name="uniFB62" unicode="&#x67f;" horiz-adv-x="825" arabic-form="isolated" 
d="M307 0q-129 0 -195 59t-66 174q0 100 59 161.5t162 67.5l14 -97q-66 -6 -96.5 -37.5t-30.5 -93.5q0 -134 150 -134h347v357h110v-457h-454zM334 755h90v-87h-90v87zM468 755h90v-87h-90v87zM334 629h90v-86h-90v86zM468 629h90v-86h-90v86z" />
    <glyph glyph-name="uniFB63" unicode="&#x67f;" horiz-adv-x="879" arabic-form="final" 
d="M651 100v357h110v-357h133v-100h-587q-129 0 -195 59t-66 174q0 100 59 161.5t162 67.5l14 -97q-66 -6 -96.5 -37.5t-30.5 -93.5q0 -134 150 -134h347zM334 747h90v-87h-90v87zM468 747h90v-87h-90v87zM334 621h90v-86h-90v86zM468 621h90v-86h-90v86z" />
    <glyph glyph-name="uniFB64" unicode="&#x67f;" horiz-adv-x="294" arabic-form="initial" 
d="M230 0h-245v100h136v247q0 49 -20 85l99 41q16 -22 23 -48t7 -67v-358zM-5 747h90v-87h-90v87zM129 747h90v-87h-90v87zM-5 621h90v-86h-90v86zM129 621h90v-86h-90v86z" />
    <glyph glyph-name="uniFB65" unicode="&#x67f;" horiz-adv-x="351" arabic-form="medial" 
d="M-15 100h136v357h109v-357h136v-100h-381v100zM5 747h90v-87h-90v87zM139 747h90v-87h-90v87zM5 621h90v-86h-90v86zM139 621h90v-86h-90v86z" />
    <glyph glyph-name="uniFB66" unicode="&#x679;" horiz-adv-x="825" arabic-form="isolated" 
d="M307 0q-129 0 -195 59t-66 174q0 100 59 161.5t162 67.5l14 -97q-66 -6 -96.5 -37.5t-30.5 -93.5q0 -134 150 -134h347v357h110v-457h-454zM417 631q11 16 28.5 25t37.5 9q34 0 53.5 -19.5t19.5 -53.5v-67h-200v40h19v154h42v-88zM474 624q-24 0 -37 -13q-16 -13 -16 -39
v-7h91v13q0 25 -9 35.5t-29 10.5z" />
    <glyph glyph-name="uniFB67" unicode="&#x679;" horiz-adv-x="879" arabic-form="final" 
d="M651 100v357h110v-357h133v-100h-587q-129 0 -195 59t-66 174q0 100 59 161.5t162 67.5l14 -97q-66 -6 -96.5 -37.5t-30.5 -93.5q0 -134 150 -134h347zM417 641q11 16 28.5 25t37.5 9q34 0 53.5 -19.5t19.5 -53.5v-67h-200v40h19v154h42v-88zM474 634q-24 0 -37 -13
q-16 -13 -16 -39v-7h91v13q0 25 -9 35.5t-29 10.5z" />
    <glyph glyph-name="uniFB68" unicode="&#x679;" horiz-adv-x="294" arabic-form="initial" 
d="M230 0h-245v100h136v247q0 49 -20 85l99 41q16 -22 23 -48t7 -67v-358zM90 641q11 16 28.5 25t37.5 9q34 0 53.5 -19.5t19.5 -53.5v-67h-200v40h19v154h42v-88zM147 634q-24 0 -37 -13q-16 -13 -16 -39v-7h91v13q0 25 -9 35.5t-29 10.5z" />
    <glyph glyph-name="uniFB69" unicode="&#x679;" horiz-adv-x="351" arabic-form="medial" 
d="M-15 100h136v357h109v-357h136v-100h-381v100zM90 641q11 16 28.5 25t37.5 9q34 0 53.5 -19.5t19.5 -53.5v-67h-200v40h19v154h42v-88zM147 634q-24 0 -37 -13q-16 -13 -16 -39v-7h91v13q0 25 -9 35.5t-29 10.5z" />
    <glyph glyph-name="uniFB6A" unicode="&#x6a4;" horiz-adv-x="910" arabic-form="isolated" 
d="M738 100v152q0 67 -25.5 98t-78.5 31q-52 0 -80.5 -34t-28.5 -96q0 -71 40 -111t112 -40h61zM495 100q-36 24 -57.5 68t-21.5 94q0 61 27 108.5t77 75t117 27.5q104 0 157 -57t53 -170v-246h-540q-261 0 -261 233q0 101 58.5 161.5t162.5 67.5l13 -97q-66 -7 -96 -38.5
t-30 -92.5q0 -69 36.5 -101.5t113.5 -32.5h191zM594 730h94v-89h-94v89zM524 607h94v-89h-94v89zM664 607h93v-89h-93v89z" />
    <glyph glyph-name="uniFB6B" unicode="&#x6a4;" horiz-adv-x="952" arabic-form="final" 
d="M738 100v152q0 67 -25.5 98t-78.5 31q-52 0 -80.5 -34t-28.5 -96q0 -71 40 -111t112 -40h61zM495 100q-36 24 -57.5 68t-21.5 93q0 61 27 109t77.5 75.5t116.5 27.5q104 0 157 -57t53 -170v-146h120v-100h-660q-261 0 -261 233q0 101 58.5 161.5t162.5 67.5l13 -97
q-66 -7 -96 -38.5t-30 -92.5q0 -69 36.5 -101.5t113.5 -32.5h191zM594 747h94v-89h-94v89zM524 624h94v-89h-94v89zM664 624h93v-89h-93v89z" />
    <glyph glyph-name="uniFB6C" unicode="&#x6a4;" horiz-adv-x="571" arabic-form="initial" 
d="M508 247v-123.5v-123.5h-523v100h169q-36 24 -57.5 68t-21.5 94q0 61 27 108.5t77.5 75t116.5 27.5q105 0 158.5 -57t53.5 -169zM398 100v152q0 67 -25.5 98t-78.5 31t-81.5 -34t-28.5 -96q0 -71 40 -111t113 -40h61zM247 747h94v-89h-94v89zM177 624h94v-89h-94v89z
M317 624h93v-89h-93v89z" />
    <glyph glyph-name="uniFB6D" unicode="&#x6a4;" horiz-adv-x="613" arabic-form="medial" 
d="M628 0h-643v100h169q-36 24 -57.5 68t-21.5 94q0 61 27 108.5t77.5 75t116.5 27.5q105 0 158.5 -57t53.5 -169v-147h120v-100zM398 100v152q0 67 -25.5 98t-78.5 31t-81.5 -34t-28.5 -96q0 -71 40 -111t113 -40h61zM247 747h94v-89h-94v89zM177 624h94v-89h-94v89z
M317 624h93v-89h-93v89z" />
    <glyph glyph-name="uniFB6E" unicode="&#x6a6;" horiz-adv-x="910" arabic-form="isolated" 
d="M738 100v152q0 67 -25.5 98t-78.5 31q-52 0 -80.5 -34t-28.5 -96q0 -71 40 -111t112 -40h61zM495 100q-36 24 -57.5 68t-21.5 94q0 61 27 108.5t77 75t117 27.5q104 0 157 -57t53 -170v-246h-540q-261 0 -261 233q0 101 58.5 161.5t162.5 67.5l13 -97q-66 -7 -96 -38.5
t-30 -92.5q0 -69 36.5 -101.5t113.5 -32.5h191zM529 730h90v-87h-90v87zM663 730h90v-87h-90v87zM529 604h90v-86h-90v86zM663 604h90v-86h-90v86z" />
    <glyph glyph-name="uniFB6F" unicode="&#x6a6;" horiz-adv-x="952" arabic-form="final" 
d="M738 100v152q0 67 -25.5 98t-78.5 31q-52 0 -80.5 -34t-28.5 -96q0 -71 40 -111t112 -40h61zM495 100q-36 24 -57.5 68t-21.5 93q0 61 27 109t77.5 75.5t116.5 27.5q104 0 157 -57t53 -170v-146h120v-100h-660q-261 0 -261 233q0 101 58.5 161.5t162.5 67.5l13 -97
q-66 -7 -96 -38.5t-30 -92.5q0 -69 36.5 -101.5t113.5 -32.5h191zM529 747h90v-87h-90v87zM663 747h90v-87h-90v87zM529 621h90v-86h-90v86zM663 621h90v-86h-90v86z" />
    <glyph glyph-name="uniFB70" unicode="&#x6a6;" horiz-adv-x="571" arabic-form="initial" 
d="M508 247v-123.5v-123.5h-523v100h169q-36 24 -57.5 68t-21.5 94q0 61 27 108.5t77.5 75t116.5 27.5q105 0 158.5 -57t53.5 -169zM398 100v152q0 67 -25.5 98t-78.5 31t-81.5 -34t-28.5 -96q0 -71 40 -111t113 -40h61zM182 747h90v-87h-90v87zM316 747h90v-87h-90v87z
M182 621h90v-86h-90v86zM316 621h90v-86h-90v86z" />
    <glyph glyph-name="uniFB71" unicode="&#x6a6;" horiz-adv-x="613" arabic-form="medial" 
d="M628 0h-643v100h169q-36 24 -57.5 68t-21.5 94q0 61 27 108.5t77.5 75t116.5 27.5q105 0 158.5 -57t53.5 -169v-147h120v-100zM398 100v152q0 67 -25.5 98t-78.5 31t-81.5 -34t-28.5 -96q0 -71 40 -111t113 -40h61zM182 747h90v-87h-90v87zM316 747h90v-87h-90v87z
M182 621h90v-86h-90v86zM316 621h90v-86h-90v86z" />
    <glyph glyph-name="uniFB72" unicode="&#x684;" horiz-adv-x="619" arabic-form="isolated" 
d="M252 0q-56 0 -88 -30t-32 -82q0 -59 34 -87.5t105 -28.5q59 0 92.5 23t47.5 73h110q-13 -91 -78.5 -141t-171.5 -50q-122 0 -185 54t-63 160q0 95 64.5 152t171.5 57h142v140q0 76 -24 107t-83 31q-53 0 -77.5 -18t-35.5 -66l-106 11q15 86 68 127t150 41
q112 0 164.5 -54t52.5 -169v-150h79v-100h-337zM307 -185h-60v60h60v-60zM307 -102h-60v60h60v-60z" />
    <glyph glyph-name="uniFB73" unicode="&#x684;" horiz-adv-x="625" arabic-form="final" 
d="M252 0q-56 0 -88 -30t-32 -82q0 -59 34 -87.5t105 -28.5q59 0 92.5 23t47.5 73h110q-13 -91 -78.5 -141t-171.5 -50q-122 0 -185 54t-63 160q0 95 64.5 152t171.5 57h142v140q0 76 -24 107t-83 31q-53 0 -77.5 -18t-35.5 -66l-106 11q15 86 68 127t150 41
q112 0 164.5 -54t52.5 -169v-150h130v-100h-388zM307 -185h-60v60h60v-60zM307 -102h-60v60h60v-60z" />
    <glyph glyph-name="uniFB74" unicode="&#x684;" horiz-adv-x="565" arabic-form="initial" 
d="M-15 100h362v140q0 76 -24 107t-83 31q-52 0 -77 -18.5t-36 -65.5l-106 11q15 86 68 127t150 41q112 0 164.5 -54t52.5 -169v-150h79v-100h-550v100zM202 -198h99v-85h-99v85zM202 -71h99v-85h-99v85z" />
    <glyph glyph-name="uniFB75" unicode="&#x684;" horiz-adv-x="576" arabic-form="medial" 
d="M350 240q0 76 -24 107t-82 31q-53 0 -78 -18.5t-36 -65.5l-105 11q15 86 68 127t150 41q112 0 164.5 -54t52.5 -169v-150h131v-100h-606v100h365v140zM202 -198h99v-85h-99v85zM202 -71h99v-85h-99v85z" />
    <glyph glyph-name="uniFB76" unicode="&#x683;" horiz-adv-x="619" arabic-form="isolated" 
d="M252 0q-56 0 -88 -30t-32 -82q0 -59 34 -87.5t105 -28.5q59 0 92.5 23t47.5 73h110q-13 -91 -78.5 -141t-171.5 -50q-122 0 -185 54t-63 160q0 95 64.5 152t171.5 57h142v140q0 76 -24 107t-83 31q-53 0 -77.5 -18t-35.5 -66l-106 11q15 86 68 127t150 41
q112 0 164.5 -54t52.5 -169v-150h79v-100h-337zM355 -144h-64v67h64v-67zM259 -144h-63v67h63v-67z" />
    <glyph glyph-name="uniFB77" unicode="&#x683;" horiz-adv-x="625" arabic-form="final" 
d="M252 0q-56 0 -88 -30t-32 -82q0 -59 34 -87.5t105 -28.5q59 0 92.5 23t47.5 73h110q-13 -91 -78.5 -141t-171.5 -50q-122 0 -185 54t-63 160q0 95 64.5 152t171.5 57h142v140q0 76 -24 107t-83 31q-53 0 -77.5 -18t-35.5 -66l-106 11q15 86 68 127t150 41
q112 0 164.5 -54t52.5 -169v-150h130v-100h-388zM355 -144h-64v67h64v-67zM259 -144h-63v67h63v-67z" />
    <glyph glyph-name="uniFB78" unicode="&#x683;" horiz-adv-x="565" arabic-form="initial" 
d="M-15 100h362v140q0 76 -24 107t-83 31q-52 0 -77 -18.5t-36 -65.5l-106 11q15 86 68 127t150 41q112 0 164.5 -54t52.5 -169v-150h79v-100h-550v100zM115 -77h101v-101h-101v101zM269 -77h100v-101h-100v101z" />
    <glyph glyph-name="uniFB79" unicode="&#x683;" horiz-adv-x="576" arabic-form="medial" 
d="M350 240q0 76 -24 107t-82 31q-53 0 -78 -18.5t-36 -65.5l-105 11q15 86 68 127t150 41q112 0 164.5 -54t52.5 -169v-150h131v-100h-606v100h365v140zM115 -77h101v-101h-101v101zM269 -77h100v-101h-100v101z" />
    <glyph glyph-name="uniFB7A" unicode="&#x686;" horiz-adv-x="619" arabic-form="isolated" 
d="M252 0q-56 0 -88 -30t-32 -82q0 -59 34 -87.5t105 -28.5q59 0 92.5 23t47.5 73h110q-13 -91 -78.5 -141t-171.5 -50q-122 0 -185 54t-63 160q0 95 64.5 152t171.5 57h142v140q0 76 -24 107t-83 31q-53 0 -77.5 -18t-35.5 -66l-106 11q15 86 68 127t150 41
q112 0 164.5 -54t52.5 -169v-150h79v-100h-337zM248 -130h61v-62h-61v62zM203 -46h61v-61h-61v61zM294 -46h60v-61h-60v61z" />
    <glyph glyph-name="uniFB7B" unicode="&#x686;" horiz-adv-x="625" arabic-form="final" 
d="M252 0q-56 0 -88 -30t-32 -82q0 -59 34 -87.5t105 -28.5q59 0 92.5 23t47.5 73h110q-13 -91 -78.5 -141t-171.5 -50q-122 0 -185 54t-63 160q0 95 64.5 152t171.5 57h142v140q0 76 -24 107t-83 31q-53 0 -77.5 -18t-35.5 -66l-106 11q15 86 68 127t150 41
q112 0 164.5 -54t52.5 -169v-150h130v-100h-388zM248 -130h61v-62h-61v62zM203 -46h61v-61h-61v61zM294 -46h60v-61h-60v61z" />
    <glyph glyph-name="uniFB7C" unicode="&#x686;" horiz-adv-x="565" arabic-form="initial" 
d="M-15 100h362v140q0 76 -24 107t-83 31q-52 0 -77 -18.5t-36 -65.5l-106 11q15 86 68 127t150 41q112 0 164.5 -54t52.5 -169v-150h79v-100h-550v100zM193 -194h94v-89h-94v89zM123 -71h94v-89h-94v89zM263 -71h93v-89h-93v89z" />
    <glyph glyph-name="uniFB7D" unicode="&#x686;" horiz-adv-x="576" arabic-form="medial" 
d="M350 240q0 76 -24 107t-82 31q-53 0 -78 -18.5t-36 -65.5l-105 11q15 86 68 127t150 41q112 0 164.5 -54t52.5 -169v-150h131v-100h-606v100h365v140zM196 -194h94v-89h-94v89zM126 -71h94v-89h-94v89zM266 -71h93v-89h-93v89z" />
    <glyph glyph-name="uniFB7E" unicode="&#x687;" horiz-adv-x="619" arabic-form="isolated" 
d="M252 0q-56 0 -88 -30t-32 -82q0 -59 34 -87.5t105 -28.5q59 0 92.5 23t47.5 73h110q-13 -91 -78.5 -141t-171.5 -50q-122 0 -185 54t-63 160q0 95 64.5 152t171.5 57h142v140q0 76 -24 107t-83 31q-53 0 -77.5 -18t-35.5 -66l-106 11q15 86 68 127t150 41
q112 0 164.5 -54t52.5 -169v-150h79v-100h-337zM347 -180h-59v59h59v-59zM262 -180h-59v59h59v-59zM262 -98h-59v59h59v-59zM346 -98h-58v59h58v-59z" />
    <glyph glyph-name="uniFB7F" unicode="&#x687;" horiz-adv-x="625" arabic-form="final" 
d="M252 0q-56 0 -88 -30t-32 -82q0 -59 34 -87.5t105 -28.5q59 0 92.5 23t47.5 73h110q-13 -91 -78.5 -141t-171.5 -50q-122 0 -185 54t-63 160q0 95 64.5 152t171.5 57h142v140q0 76 -24 107t-83 31q-53 0 -77.5 -18t-35.5 -66l-106 11q15 86 68 127t150 41
q112 0 164.5 -54t52.5 -169v-150h130v-100h-388zM347 -180h-59v59h59v-59zM262 -180h-59v59h59v-59zM262 -98h-59v59h59v-59zM346 -98h-58v59h58v-59z" />
    <glyph glyph-name="uniFB80" unicode="&#x687;" horiz-adv-x="565" arabic-form="initial" 
d="M-15 100h362v140q0 76 -24 107t-83 31q-52 0 -77 -18.5t-36 -65.5l-106 11q15 86 68 127t150 41q112 0 164.5 -54t52.5 -169v-150h79v-100h-550v100zM129 -71h90v-86h-90v86zM261 -71h89v-86h-89v86zM129 -196h90v-87h-90v87zM261 -196h89v-87h-89v87z" />
    <glyph glyph-name="uniFB81" unicode="&#x687;" horiz-adv-x="576" arabic-form="medial" 
d="M350 240q0 76 -24 107t-82 31q-53 0 -78 -18.5t-36 -65.5l-105 11q15 86 68 127t150 41q112 0 164.5 -54t52.5 -169v-150h131v-100h-606v100h365v140zM129 -71h90v-86h-90v86zM261 -71h89v-86h-89v86zM129 -196h90v-87h-90v87zM261 -196h89v-87h-89v87z" />
    <glyph glyph-name="uniFB82" unicode="&#x68d;" horiz-adv-x="536" arabic-form="isolated" 
d="M367 100v73q0 103 -37.5 152t-116.5 49q-47 0 -104 -19l-26 96q64 22 140 22q125 0 189.5 -73.5t64.5 -215.5v-184h-447v100h337zM133 -77h101v-101h-101v101zM287 -77h100v-101h-100v101z" />
    <glyph glyph-name="uniFB83" unicode="&#x68d;" horiz-adv-x="589" arabic-form="final" 
d="M367 100v73q0 103 -37.5 152t-116.5 49q-47 0 -104 -19l-26 96q64 22 140 22q125 0 189.5 -73.5t64.5 -215.5v-84h127v-100h-574v100h337zM133 -77h101v-101h-101v101zM287 -77h100v-101h-100v101z" />
    <glyph glyph-name="uniFB84" unicode="&#x68c;" horiz-adv-x="536" arabic-form="isolated" 
d="M367 100v73q0 103 -37.5 152t-116.5 49q-47 0 -104 -19l-26 96q64 22 140 22q125 0 189.5 -73.5t64.5 -215.5v-184h-447v100h337zM129 650h101v-102h-101v102zM283 650h100v-102h-100v102z" />
    <glyph glyph-name="uniFB85" unicode="&#x68c;" horiz-adv-x="589" arabic-form="final" 
d="M367 100v73q0 103 -37.5 152t-116.5 49q-47 0 -104 -19l-26 96q64 22 140 22q125 0 189.5 -73.5t64.5 -215.5v-84h127v-100h-574v100h337zM129 650h101v-102h-101v102zM283 650h100v-102h-100v102z" />
    <glyph glyph-name="uniFB86" unicode="&#x68e;" horiz-adv-x="536" arabic-form="isolated" 
d="M367 100v73q0 103 -37.5 152t-116.5 49q-47 0 -104 -19l-26 96q64 22 140 22q125 0 189.5 -73.5t64.5 -215.5v-184h-447v100h337zM211 747h94v-89h-94v89zM141 624h94v-89h-94v89zM281 624h93v-89h-93v89z" />
    <glyph glyph-name="uniFB87" unicode="&#x68e;" horiz-adv-x="589" arabic-form="final" 
d="M367 100v73q0 103 -37.5 152t-116.5 49q-47 0 -104 -19l-26 96q64 22 140 22q125 0 189.5 -73.5t64.5 -215.5v-84h127v-100h-574v100h337zM211 747h94v-89h-94v89zM141 624h94v-89h-94v89zM281 624h93v-89h-93v89z" />
    <glyph glyph-name="uniFB88" unicode="&#x688;" horiz-adv-x="536" arabic-form="isolated" 
d="M367 100v73q0 103 -37.5 152t-116.5 49q-47 0 -104 -19l-26 96q64 22 140 22q125 0 189.5 -73.5t64.5 -215.5v-184h-447v100h337zM199 641q11 16 28.5 25t37.5 9q34 0 53.5 -19.5t19.5 -53.5v-67h-200v40h19v154h42v-88zM256 634q-24 0 -37 -13q-16 -13 -16 -39v-7h91v13
q0 25 -9 35.5t-29 10.5z" />
    <glyph glyph-name="uniFB89" unicode="&#x688;" horiz-adv-x="589" arabic-form="final" 
d="M367 100v73q0 103 -37.5 152t-116.5 49q-47 0 -104 -19l-26 96q64 22 140 22q125 0 189.5 -73.5t64.5 -215.5v-84h127v-100h-574v100h337zM199 641q11 16 28.5 25t37.5 9q34 0 53.5 -19.5t19.5 -53.5v-67h-200v40h19v154h42v-88zM256 634q-24 0 -37 -13q-16 -13 -16 -39
v-7h91v13q0 25 -9 35.5t-29 10.5z" />
    <glyph glyph-name="uniFB8A" unicode="&#x698;" horiz-adv-x="319" arabic-form="isolated" 
d="M17 -121q41 -8 61 -8q68 0 68 75v511h109v-507q0 -88 -38.5 -130t-118.5 -42q-45 0 -98 15zM92 747h94v-89h-94v89zM22 624h94v-89h-94v89zM162 624h93v-89h-93v89z" />
    <glyph glyph-name="uniFB8B" unicode="&#x698;" horiz-adv-x="376" arabic-form="final" 
d="M17 -121q41 -8 61 -8q68 0 68 75v511h109v-357h136v-100h-136v-50q0 -88 -38.5 -130t-118.5 -42q-45 0 -98 15zM92 747h94v-89h-94v89zM22 624h94v-89h-94v89zM162 624h93v-89h-93v89z" />
    <glyph glyph-name="uniFB8C" unicode="&#x691;" horiz-adv-x="319" arabic-form="isolated" 
d="M17 -121q41 -8 61 -8q68 0 68 75v511h109v-507q0 -88 -38.5 -130t-118.5 -42q-45 0 -98 15zM116 641q11 16 28.5 25t37.5 9q34 0 53.5 -19.5t19.5 -53.5v-67h-200v40h19v154h42v-88zM173 634q-24 0 -37 -13q-16 -13 -16 -39v-7h91v13q0 25 -9 35.5t-29 10.5z" />
    <glyph glyph-name="uniFB8D" unicode="&#x691;" horiz-adv-x="376" arabic-form="final" 
d="M17 -121q41 -8 61 -8q68 0 68 75v511h109v-357h136v-100h-136v-50q0 -88 -38.5 -130t-118.5 -42q-45 0 -98 15zM116 641q11 16 28.5 25t37.5 9q34 0 53.5 -19.5t19.5 -53.5v-67h-200v40h19v154h42v-88zM173 634q-24 0 -37 -13q-16 -13 -16 -39v-7h91v13q0 25 -9 35.5
t-29 10.5z" />
    <glyph glyph-name="uniFB8E" unicode="&#x6a9;" horiz-adv-x="937" arabic-form="isolated" 
d="M307 0q-261 0 -261 233q0 100 59 161.5t162 67.5l14 -97q-66 -6 -96.5 -37.5t-30.5 -93.5q0 -69 36.5 -101.5t113.5 -32.5h462v106q0 66 -17.5 100t-57 48t-109.5 14h-164v87l316 259h146l-314 -255h44q135 0 200 -60.5t65 -185.5v-213h-568z" />
    <glyph glyph-name="uniFB8F" unicode="&#x6a9;" horiz-adv-x="990" arabic-form="final" 
d="M307 0q-261 0 -261 233q0 100 59 161.5t162 67.5l14 -97q-66 -6 -96.5 -37.5t-30.5 -93.5q0 -69 36.5 -101.5t113.5 -32.5h462v106q0 66 -17.5 100t-57 48t-109.5 14h-164v87l316 259h146l-314 -255h44q135 0 200 -60.5t65 -185.5v-113h130v-100h-698z" />
    <glyph glyph-name="uniFB90" unicode="&#x6a9;" horiz-adv-x="561" arabic-form="initial" 
d="M498 0h-513v100h404v106q0 66 -17.5 100t-57 48t-109.5 14h-173v87l316 259h145l-314 -255h45q142 0 208 -59.5t66 -186.5v-213z" />
    <glyph glyph-name="uniFB91" unicode="&#x6a9;" horiz-adv-x="613" arabic-form="medial" 
d="M389 206q0 66 -17.5 100t-57 48t-109.5 14h-173v87l316 259h145l-314 -255h45q142 0 208 -59.5t66 -186.5v-113h130v-100h-643v100h404v106z" />
    <glyph glyph-name="uniFB92" unicode="&#x6af;" horiz-adv-x="937" arabic-form="isolated" 
d="M307 0q-261 0 -261 233q0 100 59 161.5t162 67.5l14 -97q-66 -6 -96.5 -37.5t-30.5 -93.5q0 -69 36.5 -101.5t113.5 -32.5h462v106q0 66 -17.5 100t-57 48t-109.5 14h-164v87l316 259h146l-314 -255h44q135 0 200 -60.5t65 -185.5v-213h-568zM399 567l177 147h80
l-257 -213v66z" />
    <glyph glyph-name="uniFB93" unicode="&#x6af;" horiz-adv-x="990" arabic-form="final" 
d="M307 0q-261 0 -261 233q0 100 59 161.5t162 67.5l14 -97q-66 -6 -96.5 -37.5t-30.5 -93.5q0 -69 36.5 -101.5t113.5 -32.5h462v106q0 66 -17.5 100t-57 48t-109.5 14h-164v87l316 259h146l-314 -255h44q135 0 200 -60.5t65 -185.5v-113h130v-100h-698zM399 567l177 147
h80l-257 -213v66z" />
    <glyph glyph-name="uniFB94" unicode="&#x6af;" horiz-adv-x="561" arabic-form="initial" 
d="M498 0h-513v100h404v106q0 66 -17.5 100t-57 48t-109.5 14h-173v87l316 259h145l-314 -255h45q142 0 208 -59.5t66 -186.5v-213zM13 565l181 149h80l-261 -216v67z" />
    <glyph glyph-name="uniFB95" unicode="&#x6af;" horiz-adv-x="613" arabic-form="medial" 
d="M389 206q0 66 -17.5 100t-57 48t-109.5 14h-173v87l316 259h145l-314 -255h45q142 0 208 -59.5t66 -186.5v-113h130v-100h-643v100h404v106zM13 565l181 149h80l-261 -216v67z" />
    <glyph glyph-name="uniFB96" unicode="&#x6b3;" horiz-adv-x="937" arabic-form="isolated" 
d="M430 -198h99v-85h-99v85zM430 -71h99v-85h-99v85zM307 0q-261 0 -261 233q0 100 59 161.5t162 67.5l14 -97q-66 -6 -96.5 -37.5t-30.5 -93.5q0 -69 36.5 -101.5t113.5 -32.5h462v106q0 66 -17.5 100t-57 48t-109.5 14h-164v87l316 259h146l-314 -255h44q135 0 200 -60.5
t65 -185.5v-213h-568zM399 567l177 147h80l-257 -213v66z" />
    <glyph glyph-name="uniFB97" unicode="&#x6b3;" horiz-adv-x="990" arabic-form="final" 
d="M431 -198h99v-85h-99v85zM431 -71h99v-85h-99v85zM307 0q-261 0 -261 233q0 100 59 161.5t162 67.5l14 -97q-66 -6 -96.5 -37.5t-30.5 -93.5q0 -69 36.5 -101.5t113.5 -32.5h462v106q0 66 -17.5 100t-57 48t-109.5 14h-164v87l316 259h146l-314 -255h44q135 0 200 -60.5
t65 -185.5v-113h130v-100h-698zM399 567l177 147h80l-257 -213v66z" />
    <glyph glyph-name="uniFB98" unicode="&#x6b3;" horiz-adv-x="564" arabic-form="initial" 
d="M165 -198h99v-85h-99v85zM165 -71h99v-85h-99v85zM498 0h-513v100h404v106q0 66 -17.5 100t-57 48t-109.5 14h-173v87l316 259h145l-314 -255h45q142 0 208 -59.5t66 -186.5v-213zM13 565l181 149h80l-261 -216v67z" />
    <glyph glyph-name="uniFB99" unicode="&#x6b3;" horiz-adv-x="613" arabic-form="medial" 
d="M165 -198h99v-85h-99v85zM165 -71h99v-85h-99v85zM389 206q0 66 -17.5 100t-57 48t-109.5 14h-173v87l316 259h145l-314 -255h45q142 0 208 -59.5t66 -186.5v-113h130v-100h-643v100h404v106zM13 565l181 149h80l-261 -216v67z" />
    <glyph glyph-name="uniFB9A" unicode="&#x6b1;" horiz-adv-x="937" arabic-form="isolated" 
d="M250 816h101v-102h-101v102zM404 816h100v-102h-100v102zM307 0q-261 0 -261 233q0 100 59 161.5t162 67.5l14 -97q-66 -6 -96.5 -37.5t-30.5 -93.5q0 -69 36.5 -101.5t113.5 -32.5h462v106q0 66 -17.5 100t-57 48t-109.5 14h-164v87l316 259h146l-314 -255h44
q135 0 200 -60.5t65 -185.5v-213h-568zM399 567l177 147h80l-257 -213v66z" />
    <glyph glyph-name="uniFB9B" unicode="&#x6b1;" horiz-adv-x="990" arabic-form="final" 
d="M250 816h101v-102h-101v102zM404 816h100v-102h-100v102zM307 0q-261 0 -261 233q0 100 59 161.5t162 67.5l14 -97q-66 -6 -96.5 -37.5t-30.5 -93.5q0 -69 36.5 -101.5t113.5 -32.5h462v106q0 66 -17.5 100t-57 48t-109.5 14h-164v87l316 259h146l-314 -255h44
q135 0 200 -60.5t65 -185.5v-113h130v-100h-698zM399 567l177 147h80l-257 -213v66z" />
    <glyph glyph-name="uniFB9C" unicode="&#x6b1;" horiz-adv-x="564" arabic-form="initial" 
d="M-132 816h101v-102h-101v102zM22 816h100v-102h-100v102zM498 0h-513v100h404v106q0 66 -17.5 100t-57 48t-109.5 14h-173v87l316 259h145l-314 -255h45q142 0 208 -59.5t66 -186.5v-213zM13 565l181 149h80l-261 -216v67z" />
    <glyph glyph-name="uniFB9D" unicode="&#x6b1;" horiz-adv-x="613" arabic-form="medial" 
d="M-132 816h101v-102h-101v102zM22 816h100v-102h-100v102zM389 206q0 66 -17.5 100t-57 48t-109.5 14h-173v87l316 259h145l-314 -255h45q142 0 208 -59.5t66 -186.5v-113h130v-100h-643v100h404v106zM13 565l181 149h80l-261 -216v67z" />
    <glyph glyph-name="uniFB9E" unicode="&#x6ba;" horiz-adv-x="565" arabic-form="isolated" 
d="M505 15q0 -112 -60 -174.5t-168 -62.5q-119 0 -181 60t-62 176q0 38 12.5 83.5t33.5 82.5l99 -26q-37 -66 -37 -140q0 -69 33.5 -105.5t97.5 -36.5q122 0 122 149v436h110v-442z" />
    <glyph glyph-name="uniFB9F" unicode="&#x6ba;" horiz-adv-x="625" arabic-form="final" 
d="M504 0q-4 -106 -63 -164t-164 -58q-119 0 -181 60t-62 176q0 38 12.5 83.5t33.5 82.5l99 -26q-37 -66 -37 -140q0 -69 33.5 -105.5t97.5 -36.5q122 0 122 149v436h110v-357h135v-100h-136z" />
    <glyph glyph-name="uniFBA0" unicode="&#x6bb;" horiz-adv-x="565" arabic-form="isolated" 
d="M505 15q0 -112 -60 -174.5t-168 -62.5q-119 0 -181 60t-62 176q0 38 12.5 83.5t33.5 82.5l99 -26q-37 -66 -37 -140q0 -69 33.5 -105.5t97.5 -36.5q122 0 122 149v436h110v-442zM237 641q11 16 28.5 25t37.5 9q34 0 53.5 -19.5t19.5 -53.5v-67h-200v40h19v154h42v-88z
M294 634q-24 0 -37 -13q-16 -13 -16 -39v-7h91v13q0 25 -9 35.5t-29 10.5z" />
    <glyph glyph-name="uniFBA1" unicode="&#x6bb;" horiz-adv-x="625" arabic-form="final" 
d="M504 0q-4 -106 -63 -164t-164 -58q-119 0 -181 60t-62 176q0 38 12.5 83.5t33.5 82.5l99 -26q-37 -66 -37 -140q0 -69 33.5 -105.5t97.5 -36.5q122 0 122 149v436h110v-357h135v-100h-136zM237 641q11 16 28.5 25t37.5 9q34 0 53.5 -19.5t19.5 -53.5v-67h-200v40h19v154
h42v-88zM294 634q-24 0 -37 -13q-16 -13 -16 -39v-7h91v13q0 25 -9 35.5t-29 10.5z" />
    <glyph glyph-name="uniFBA2" unicode="&#x6bb;" horiz-adv-x="294" arabic-form="initial" 
d="M230 0h-245v100h136v247q0 49 -20 85l99 41q16 -22 23 -48t7 -67v-358zM91 641q11 16 28.5 25t37.5 9q34 0 53.5 -19.5t19.5 -53.5v-67h-200v40h19v154h42v-88zM148 634q-24 0 -37 -13q-16 -13 -16 -39v-7h91v13q0 25 -9 35.5t-29 10.5z" />
    <glyph glyph-name="uniFBA3" unicode="&#x6bb;" horiz-adv-x="351" arabic-form="medial" 
d="M-15 100h136v357h109v-357h136v-100h-381v100zM92 641q11 16 28.5 25t37.5 9q34 0 53.5 -19.5t19.5 -53.5v-67h-200v40h19v154h42v-88zM149 634q-24 0 -37 -13q-16 -13 -16 -39v-7h91v13q0 25 -9 35.5t-29 10.5z" />
    <glyph glyph-name="uniFBA4" unicode="&#x6c0;" horiz-adv-x="546" arabic-form="isolated" 
d="M153 227q0 -74 30.5 -112.5t89.5 -38.5q60 0 90.5 38.5t30.5 112.5q0 75 -31 113.5t-90 38.5t-89.5 -38.5t-30.5 -113.5zM46 225q0 116 61 182t168 66q106 0 165.5 -65t59.5 -179q0 -119 -60 -183.5t-169 -64.5q-106 0 -165.5 64.5t-59.5 179.5zM362 575v-42h-176v42h22
v51q0 35 20 54.5t56 19.5q35 0 52.5 -15t22.5 -50l-41 -6q-3 17 -10 24t-21 7q-33 0 -33 -36v-49h108z" />
    <glyph glyph-name="uniFBA5" unicode="&#x6c0;" horiz-adv-x="584" arabic-form="final" 
d="M479 100h120v-100h-263q-140 0 -215 65t-75 185q0 103 59.5 163t162.5 60q211 0 211 -225v-148zM156 251q0 -75 41 -113t120 -38h53v129q0 84 -23.5 118t-81.5 34q-53 0 -81 -33.5t-28 -96.5zM354 575v-42h-176v42h22v51q0 35 20 54.5t56 19.5q35 0 52.5 -15t22.5 -50
l-41 -6q-3 17 -10 24t-21 7q-33 0 -33 -36v-49h108z" />
    <glyph glyph-name="uniFBA6" unicode="&#x6c1;" horiz-adv-x="546" arabic-form="isolated" 
d="M153 227q0 -74 30.5 -112.5t89.5 -38.5q60 0 90.5 38.5t30.5 112.5q0 75 -31 113.5t-90 38.5t-89.5 -38.5t-30.5 -113.5zM46 225q0 116 61 182t168 66q106 0 165.5 -65t59.5 -179q0 -119 -60 -183.5t-169 -64.5q-106 0 -165.5 64.5t-59.5 179.5z" />
    <glyph glyph-name="uniFBA7" unicode="&#x6c1;" horiz-adv-x="503" arabic-form="final" 
d="M252 136q-23 53 -53.5 74t-85.5 21q-26 0 -73 -12l-22 89q54 16 102 16q90 0 143.5 -36t89.5 -120l29 -68h136v-100h-208z" />
    <glyph glyph-name="uniFBA8" unicode="&#x6c1;" horiz-adv-x="294" arabic-form="initial" 
d="M230 0h-245v100h136v247q0 49 -20 85l99 41q16 -22 23 -48t7 -67v-358zM183 -279h-100l48 197h79z" />
    <glyph glyph-name="uniFBA9" unicode="&#x6c1;" horiz-adv-x="346" arabic-form="medial" 
d="M-15 100h376v-100h-133v-252h-110v252h-133v100zM5 -313h-100l48 197h79z" />
    <glyph glyph-name="uniFBAA" unicode="&#x6be;" horiz-adv-x="755" arabic-form="isolated" 
d="M246 475q23 0 63 -7q28 29 71.5 44.5t98.5 15.5q214 0 214 -215v-313h-353q-143 0 -218.5 66.5t-75.5 191.5q0 101 53.5 159t146.5 58zM475 436q-28 0 -46.5 -5t-32.5 -17q47 -47 47 -165v-151h141v208q0 68 -26 99t-83 31zM336 247q0 71 -21.5 103.5t-68.5 32.5
q-44 0 -67 -32t-23 -93q0 -81 44.5 -120.5t135.5 -39.5v149z" />
    <glyph glyph-name="uniFBAB" unicode="&#x6be;" horiz-adv-x="544" arabic-form="final" 
d="M60 258q0 103 51 159t146 56q93 0 143 -51.5t50 -147.5q0 -56 -23.5 -101t-67.5 -73h200v-100h-159q28 -15 44.5 -41t16.5 -56q0 -62 -49.5 -95.5t-141.5 -33.5q-210 0 -210 193v291zM340 259q0 122 -84 122q-45 0 -66 -26t-21 -82v-176h26q66 0 105.5 44.5t39.5 117.5z
M357 -76q0 38 -36.5 59t-101.5 21h-54v-28q0 -114 101 -114q91 0 91 62z" />
    <glyph glyph-name="uniFBAC" unicode="&#x6be;" horiz-adv-x="792" arabic-form="initial" 
d="M-15 100h173q-75 54 -75 161q0 100 53.5 157t146.5 57q25 0 62 -7q28 29 72 44.5t99 15.5q213 0 213 -215v-313h-744v100zM512 436q-29 0 -47 -5t-33 -17q48 -48 48 -165v-151h141v208q0 68 -26 99t-83 31zM373 247q0 71 -21.5 103.5t-68.5 32.5q-44 0 -67.5 -32.5
t-23.5 -92.5q0 -160 181 -160v149z" />
    <glyph glyph-name="uniFBAD" unicode="&#x6be;" horiz-adv-x="584" arabic-form="medial" 
d="M-15 0v100h115v158q0 103 51 159t146 56q93 0 143 -51.5t50 -147.5q0 -56 -23.5 -101t-67.5 -73h200v-100h-159q28 -15 44.5 -41t16.5 -56q0 -62 -49.5 -95.5t-141.5 -33.5q-210 0 -210 193v33h-115zM380 259q0 122 -84 122q-45 0 -66 -26t-21 -82v-176h26
q66 0 105.5 44.5t39.5 117.5zM397 -76q0 38 -36.5 59t-101.5 21h-54v-28q0 -114 101 -114q91 0 91 62z" />
    <glyph glyph-name="uniFBAE" unicode="&#x6d2;" horiz-adv-x="755" arabic-form="isolated" 
d="M33 0v87l352 290h146l-340 -277h531v-100h-689z" />
    <glyph glyph-name="uniFBAF" unicode="&#x6d2;" horiz-adv-x="695" arabic-form="final" 
d="M273 -325q-255 0 -255 217q0 97 67 152.5t184 55.5h441v-100h-447q-67 0 -101.5 -28t-34.5 -83q0 -60 35 -87t111 -27h274v-100h-274z" />
    <glyph glyph-name="uniFBB0" unicode="&#x6d3;" horiz-adv-x="755" arabic-form="isolated" 
d="M33 0v87l352 290h146l-340 -277h531v-100h-689zM210 422v-42h-176v42h22v51q0 35 20 54.5t56 19.5q35 0 52.5 -15t22.5 -50l-41 -6q-3 17 -10 24t-21 7q-33 0 -33 -36v-49h108z" />
    <glyph glyph-name="uniFBB1" unicode="&#x6d3;" horiz-adv-x="695" arabic-form="final" 
d="M273 -325q-255 0 -255 217q0 97 67 152.5t184 55.5h441v-100h-447q-67 0 -101.5 -28t-34.5 -83q0 -60 35 -87t111 -27h274v-100h-274zM223 226v-42h-176v42h22v51q0 35 20 54.5t56 19.5q35 0 52.5 -15t22.5 -50l-41 -6q-3 17 -10 24t-21 7q-33 0 -33 -36v-49h108z" />
    <glyph glyph-name="uniFBD3" unicode="&#x6ad;" horiz-adv-x="825" arabic-form="isolated" 
d="M651 100v614h110v-714h-454q-129 0 -195 59t-66 174q0 100 59 161.5t162 67.5l14 -97q-66 -6 -96.5 -37.5t-30.5 -93.5q0 -134 150 -134h347zM547 413v-42h-176v42h22v51q0 35 20 54.5t56 19.5q35 0 52.5 -15t22.5 -50l-41 -6q-3 17 -10 24t-21 7q-33 0 -33 -36v-49h108z
M419 787h94v-89h-94v89zM349 664h94v-89h-94v89zM489 664h93v-89h-93v89z" />
    <glyph glyph-name="uniFBD4" unicode="&#x6ad;" horiz-adv-x="879" arabic-form="final" 
d="M651 100v614h110v-614h133v-100h-587q-129 0 -195 59t-66 174q0 100 59 161.5t162 67.5l14 -97q-66 -6 -96.5 -37.5t-30.5 -93.5q0 -134 150 -134h347zM547 413v-42h-176v42h22v51q0 35 20 54.5t56 19.5q35 0 52.5 -15t22.5 -50l-41 -6q-3 17 -10 24t-21 7q-33 0 -33 -36
v-49h108zM419 787h94v-89h-94v89zM349 664h94v-89h-94v89zM489 664h93v-89h-93v89z" />
    <glyph glyph-name="uniFBD5" unicode="&#x6ad;" horiz-adv-x="561" arabic-form="initial" 
d="M498 0h-513v100h404v106q0 66 -17.5 100t-57 48t-109.5 14h-173v87l316 259h145l-314 -255h45q142 0 208 -59.5t66 -186.5v-213zM-17 818h94v-89h-94v89zM-87 695h94v-89h-94v89zM53 695h93v-89h-93v89z" />
    <glyph glyph-name="uniFBD6" unicode="&#x6ad;" horiz-adv-x="613" arabic-form="medial" 
d="M389 206q0 66 -17.5 100t-57 48t-109.5 14h-173v87l316 259h145l-314 -255h45q142 0 208 -59.5t66 -186.5v-113h130v-100h-643v100h404v106zM-17 818h94v-89h-94v89zM-87 695h94v-89h-94v89zM53 695h93v-89h-93v89z" />
    <glyph glyph-name="uniFBD7" unicode="&#x6c7;" horiz-adv-x="543" arabic-form="isolated" 
d="M481 -6q0 -107 -52.5 -159.5t-161.5 -52.5q-96 0 -151 44t-66 129h108q8 -41 34.5 -60.5t75.5 -19.5q56 0 79.5 26.5t23.5 87.5v11h-34q-140 0 -215 65t-75 185q0 103 60 163t162 60q105 0 158.5 -56.5t53.5 -168.5v-254zM157 251q0 -74 41 -112.5t120 -38.5h53v153
q0 67 -25 97.5t-80 30.5q-53 0 -81 -33.5t-28 -96.5zM261 528q-35 0 -60 12l10 35q30 -11 49 -11q37 0 37 30v10q-13 -16 -37 -16q-27 0 -42 15t-15 42q0 29 17.5 45.5t49.5 16.5q33 0 51.5 -18.5t18.5 -51.5v-32q0 -77 -79 -77zM270 674q-27 0 -27 -28t26 -28q27 0 27 27
q0 29 -26 29z" />
    <glyph glyph-name="uniFBD8" unicode="&#x6c7;" horiz-adv-x="586" arabic-form="final" 
d="M481 100h120v-100h-120q0 -111 -52 -164.5t-162 -53.5q-96 0 -151 44t-66 129h108q8 -41 34.5 -60.5t75.5 -19.5q56 0 79.5 26.5t23.5 87.5v11h-34q-140 0 -215 65t-75 185q0 103 60 163t162 60q105 0 158.5 -56.5t53.5 -168.5v-148zM157 251q0 -74 41 -112.5t120 -38.5
h53v129q0 84 -23.5 118t-81.5 34q-53 0 -81 -33.5t-28 -96.5zM261 528q-35 0 -60 12l10 35q30 -11 49 -11q37 0 37 30v10q-13 -16 -37 -16q-27 0 -42 15t-15 42q0 29 17.5 45.5t49.5 16.5q33 0 51.5 -18.5t18.5 -51.5v-32q0 -77 -79 -77zM270 674q-27 0 -27 -28t26 -28
q27 0 27 27q0 29 -26 29z" />
    <glyph glyph-name="uniFBD9" unicode="&#x6c6;" horiz-adv-x="543" arabic-form="isolated" 
d="M481 -6q0 -107 -52.5 -159.5t-161.5 -52.5q-96 0 -151 44t-66 129h108q8 -41 34.5 -60.5t75.5 -19.5q56 0 79.5 26.5t23.5 87.5v11h-34q-140 0 -215 65t-75 185q0 103 60 163t162 60q105 0 158.5 -56.5t53.5 -168.5v-254zM157 251q0 -74 41 -112.5t120 -38.5h53v153
q0 67 -25 97.5t-80 30.5q-53 0 -81 -33.5t-28 -96.5zM296 531h-58l-86 141h56l59 -99l59 99h56z" />
    <glyph glyph-name="uniFBDA" unicode="&#x6c6;" horiz-adv-x="586" arabic-form="final" 
d="M481 100h120v-100h-120q0 -111 -52 -164.5t-162 -53.5q-96 0 -151 44t-66 129h108q8 -41 34.5 -60.5t75.5 -19.5q56 0 79.5 26.5t23.5 87.5v11h-34q-140 0 -215 65t-75 185q0 103 60 163t162 60q105 0 158.5 -56.5t53.5 -168.5v-148zM157 251q0 -74 41 -112.5t120 -38.5
h53v129q0 84 -23.5 118t-81.5 34q-53 0 -81 -33.5t-28 -96.5zM296 531h-58l-86 141h56l59 -99l59 99h56z" />
    <glyph glyph-name="uniFBDB" unicode="&#x6c8;" horiz-adv-x="543" arabic-form="isolated" 
d="M481 -6q0 -107 -52.5 -159.5t-161.5 -52.5q-96 0 -151 44t-66 129h108q8 -41 34.5 -60.5t75.5 -19.5q56 0 79.5 26.5t23.5 87.5v11h-34q-140 0 -215 65t-75 185q0 103 60 163t162 60q105 0 158.5 -56.5t53.5 -168.5v-254zM157 251q0 -74 41 -112.5t120 -38.5h53v153
q0 67 -25 97.5t-80 30.5q-53 0 -81 -33.5t-28 -96.5zM295 705v-173h-54v173h54z" />
    <glyph glyph-name="uniFBDC" unicode="&#x6c8;" horiz-adv-x="586" arabic-form="final" 
d="M481 100h120v-100h-120q0 -111 -52 -164.5t-162 -53.5q-96 0 -151 44t-66 129h108q8 -41 34.5 -60.5t75.5 -19.5q56 0 79.5 26.5t23.5 87.5v11h-34q-140 0 -215 65t-75 185q0 103 60 163t162 60q105 0 158.5 -56.5t53.5 -168.5v-148zM157 251q0 -74 41 -112.5t120 -38.5
h53v129q0 84 -23.5 118t-81.5 34q-53 0 -81 -33.5t-28 -96.5zM295 705v-173h-54v173h54z" />
    <glyph glyph-name="uniFBDD" unicode="&#x677;" horiz-adv-x="543" arabic-form="isolated" 
d="M481 -6q0 -107 -52.5 -159.5t-161.5 -52.5q-96 0 -151 44t-66 129h108q8 -41 34.5 -60.5t75.5 -19.5q56 0 79.5 26.5t23.5 87.5v11h-34q-140 0 -215 65t-75 185q0 103 60 163t162 60q105 0 158.5 -56.5t53.5 -168.5v-254zM157 251q0 -74 41 -112.5t120 -38.5h53v153
q0 67 -25 97.5t-80 30.5q-53 0 -81 -33.5t-28 -96.5zM221 528q-35 0 -60 12l10 35q30 -11 49 -11q37 0 37 30v10q-13 -16 -37 -16q-27 0 -42 15t-15 42q0 29 17.5 45.5t49.5 16.5q33 0 51.5 -18.5t18.5 -51.5v-32q0 -77 -79 -77zM230 674q-27 0 -27 -28t26 -28q27 0 27 27
q0 29 -26 29zM549 575v-42h-176v42h22v51q0 35 20 54.5t56 19.5q35 0 52.5 -15t22.5 -50l-41 -6q-3 17 -10 24t-21 7q-33 0 -33 -36v-49h108z" />
    <glyph glyph-name="uniFBDE" unicode="&#x6cb;" horiz-adv-x="543" arabic-form="isolated" 
d="M481 -6q0 -107 -52.5 -159.5t-161.5 -52.5q-96 0 -151 44t-66 129h108q8 -41 34.5 -60.5t75.5 -19.5q56 0 79.5 26.5t23.5 87.5v11h-34q-140 0 -215 65t-75 185q0 103 60 163t162 60q105 0 158.5 -56.5t53.5 -168.5v-254zM157 251q0 -74 41 -112.5t120 -38.5h53v153
q0 67 -25 97.5t-80 30.5q-53 0 -81 -33.5t-28 -96.5zM223 743h94v-89h-94v89zM153 620h94v-89h-94v89zM293 620h93v-89h-93v89z" />
    <glyph glyph-name="uniFBDF" unicode="&#x6cb;" horiz-adv-x="586" arabic-form="final" 
d="M481 100h120v-100h-120q0 -111 -52 -164.5t-162 -53.5q-96 0 -151 44t-66 129h108q8 -41 34.5 -60.5t75.5 -19.5q56 0 79.5 26.5t23.5 87.5v11h-34q-140 0 -215 65t-75 185q0 103 60 163t162 60q105 0 158.5 -56.5t53.5 -168.5v-148zM157 251q0 -74 41 -112.5t120 -38.5
h53v129q0 84 -23.5 118t-81.5 34q-53 0 -81 -33.5t-28 -96.5zM223 743h94v-89h-94v89zM153 620h94v-89h-94v89zM293 620h93v-89h-93v89z" />
    <glyph glyph-name="uniFBE0" unicode="&#x6c5;" horiz-adv-x="543" arabic-form="isolated" 
d="M213 -25h157q1 5 1 23v16h-34q-290 0 -290 236q0 103 60 163t162 60q105 0 158.5 -56.5t53.5 -168.5v-254q0 -107 -52.5 -159.5t-161.5 -52.5q-96 0 -151 44t-66 129h96q8 -47 37.5 -70t82.5 -23q40 0 62.5 12t33.5 39h-149v62zM157 251q0 -74 41 -112.5t120 -38.5h53
v129q0 84 -23.5 118t-81.5 34q-53 0 -81 -33.5t-28 -96.5z" />
    <glyph glyph-name="uniFBE1" unicode="&#x6c5;" horiz-adv-x="586" arabic-form="final" 
d="M213 -25h157q1 4 1 23v16h-34q-290 0 -290 236q0 103 60 163t162 60q105 0 158.5 -56.5t53.5 -168.5v-148h120v-100h-120q0 -111 -52 -164.5t-162 -53.5q-96 0 -151 44t-66 129h96q8 -47 37.5 -70t82.5 -23q40 0 62.5 12t33.5 39h-149v62zM157 251q0 -74 41 -112.5
t120 -38.5h53v129q0 84 -23.5 118t-81.5 34q-53 0 -81 -33.5t-28 -96.5z" />
    <glyph glyph-name="uniFBE2" unicode="&#x6c9;" horiz-adv-x="543" arabic-form="isolated" 
d="M481 -6q0 -107 -52.5 -159.5t-161.5 -52.5q-96 0 -151 44t-66 129h108q8 -41 34.5 -60.5t75.5 -19.5q56 0 79.5 26.5t23.5 87.5v11h-34q-140 0 -215 65t-75 185q0 103 60 163t162 60q105 0 158.5 -56.5t53.5 -168.5v-254zM157 251q0 -74 41 -112.5t120 -38.5h53v153
q0 67 -25 97.5t-80 30.5q-53 0 -81 -33.5t-28 -96.5zM240 672h58l86 -141h-57l-58 99l-59 -99h-56z" />
    <glyph glyph-name="uniFBE3" unicode="&#x6c9;" horiz-adv-x="586" arabic-form="final" 
d="M481 100h120v-100h-120q0 -111 -52 -164.5t-162 -53.5q-96 0 -151 44t-66 129h108q8 -41 34.5 -60.5t75.5 -19.5q56 0 79.5 26.5t23.5 87.5v11h-34q-140 0 -215 65t-75 185q0 103 60 163t162 60q105 0 158.5 -56.5t53.5 -168.5v-148zM157 251q0 -74 41 -112.5t120 -38.5
h53v129q0 84 -23.5 118t-81.5 34q-53 0 -81 -33.5t-28 -96.5zM240 672h58l86 -141h-57l-58 99l-59 -99h-56z" />
    <glyph glyph-name="uniFBE4" unicode="&#x6d0;" horiz-adv-x="672" arabic-form="isolated" 
d="M590 361q-43 0 -64 -24.5t-21 -74.5v-247q0 -112 -60 -174.5t-168 -62.5q-119 0 -181 60t-62 176q0 38 12.5 83.5t33.5 82.5l99 -26q-37 -66 -37 -140q0 -69 33.5 -105.5t97.5 -36.5q122 0 122 149v246q0 92 48 141t137 49h67v-96h-57zM220 -412h99v-85h-99v85zM220 -285
h99v-85h-99v85z" />
    <glyph glyph-name="uniFBE5" unicode="&#x6d0;" horiz-adv-x="895" arabic-form="final" 
d="M505 15q0 -112 -60 -174.5t-168 -62.5q-119 0 -181 60t-62 176q0 38 12.5 83.5t33.5 82.5l99 -26q-37 -66 -37 -140q0 -69 33.5 -105.5t97.5 -36.5q122 0 122 149v246q0 92 48 141t137 49h193v-357h137v-100h-247v361h-73q-43 0 -64 -24.5t-21 -74.5v-247zM222 -412h99
v-85h-99v85zM222 -285h99v-85h-99v85z" />
    <glyph glyph-name="uniFBE6" unicode="&#x6d0;" horiz-adv-x="294" arabic-form="initial" 
d="M230 0h-245v100h136v247q0 49 -20 85l99 41q16 -22 23 -48t7 -67v-358zM131 -197h99v-85h-99v85zM131 -70h99v-85h-99v85z" />
    <glyph glyph-name="uniFBE7" unicode="&#x6d0;" horiz-adv-x="351" arabic-form="medial" 
d="M-15 100h136v357h109v-357h136v-100h-381v100zM127 -198h99v-85h-99v85zM127 -71h99v-85h-99v85z" />
    <glyph glyph-name="uniFBE8" unicode="&#x649;" horiz-adv-x="294" arabic-form="initial" 
d="M230 0h-245v100h136v247q0 49 -20 85l99 41q16 -22 23 -48t7 -67v-358z" />
    <glyph glyph-name="uniFBE9" unicode="&#x649;" horiz-adv-x="351" arabic-form="medial" 
d="M-15 100h136v357h109v-357h136v-100h-381v100z" />
    <glyph glyph-name="uniFBFC" unicode="&#x6cc;" horiz-adv-x="672" arabic-form="isolated" 
d="M590 361q-43 0 -64 -24.5t-21 -74.5v-247q0 -112 -60 -174.5t-168 -62.5q-119 0 -181 60t-62 176q0 38 12.5 83.5t33.5 82.5l99 -26q-37 -66 -37 -140q0 -69 33.5 -105.5t97.5 -36.5q122 0 122 149v246q0 92 48 141t137 49h67v-96h-57z" />
    <glyph glyph-name="uniFBFD" unicode="&#x6cc;" horiz-adv-x="895" arabic-form="final" 
d="M505 15q0 -112 -60 -174.5t-168 -62.5q-119 0 -181 60t-62 176q0 38 12.5 83.5t33.5 82.5l99 -26q-37 -66 -37 -140q0 -69 33.5 -105.5t97.5 -36.5q122 0 122 149v246q0 92 48 141t137 49h193v-357h137v-100h-247v361h-73q-43 0 -64 -24.5t-21 -74.5v-247z" />
    <glyph glyph-name="uniFBFE" unicode="&#x6cc;" horiz-adv-x="294" arabic-form="initial" 
d="M230 0h-245v100h136v247q0 49 -20 85l99 41q16 -22 23 -48t7 -67v-358zM-25 -77h101v-101h-101v101zM129 -77h100v-101h-100v101z" />
    <glyph glyph-name="uniFBFF" unicode="&#x6cc;" horiz-adv-x="351" arabic-form="medial" 
d="M-15 100h136v357h109v-357h136v-100h-381v100zM-23 -77h101v-101h-101v101zM131 -77h100v-101h-100v101z" />
    <glyph glyph-name="uniFDFA" unicode="&#xfdfa;" horiz-adv-x="1493" arabic-form="isolated" 
d="M376 33v185h40v-185h482v92h40v-92h79v420h40v-420h80v42q0 32 18 49.5t50 17.5q57 0 66 -59l-37 -4q-2 15 -9 21.5t-20 6.5q-16 0 -22.5 -8.5t-6.5 -28.5v-37h109v-37h-969v-194h770v104h40v-104h40v104h39v-104h40v68q0 12 -8 25l36 17q12 -20 12 -38v-109h-1202v-89
h-40v126h43v37q0 35 17.5 53.5t49.5 18.5q30 0 47.5 -17t17.5 -46q0 -31 -20 -46h78v194h-105q-43 0 -66.5 20t-23.5 58q0 31 19 49.5t49 18.5q31 0 49 -18.5t18 -51.5v-39h160zM451 153q0 64 85 64h121v418h39v-418h51v110h39v-31q27 36 73 36q39 0 59 -21t20 -62v-68h-400
q-26 0 -36 -6.5t-10 -21.5q0 -16 10 -22t36 -6h323v-37h-324q-86 0 -86 65zM1450 -231q0 -34 -16 -50t-50 -16q-61 0 -66 54h35q2 -12 9.5 -17t21.5 -5q16 0 21.5 7t5.5 26q-95 0 -95 75q0 31 18.5 49.5t49.5 18.5t48.5 -18.5t17.5 -51.5v-72zM855 298q-31 0 -50 -19
t-19 -52v-10h113v22q0 31 -10.5 45t-33.5 14zM567 247v388h40v-388h-40zM722 387l217 65v-31l-217 -64v30zM177 33v33q0 22 -6.5 31.5t-21.5 9.5q-28 0 -28 -34q0 -21 11 -30.5t35 -9.5h10zM1411 -198v39q0 35 -27 35q-28 0 -28 -33q0 -41 45 -41h10zM178 -154q0 30 -25 30
q-15 0 -21.5 -9.5t-6.5 -31.5v-34h8q22 0 33.5 11.5t11.5 33.5zM406 519h17v44h21v-64h-60q-37 0 -37 36v28h21v-25q0 -18 17 -19v44h21v-44zM1137 185l127 37v-29l-127 -37v29zM870 -26h38v-40h-38v40zM929 -26h38v-40h-38v40zM376 283v185h40v-185h61v185h40v-221h-247
q-44 0 -67 20t-23 58q0 30 18.5 48.5t49.5 18.5t49 -18.5t18 -51.5v-39h61zM276 283v33q0 23 -6.5 32.5t-21.5 9.5q-28 0 -28 -34q0 -41 46 -41h10zM787 591h18v44h21v-64h-61q-37 0 -37 36v28h21v-25q0 -17 18 -19v44h20v-44zM221 182l128 37v-30l-128 -36v29z" />
    <glyph glyph-name="uniFDFC" unicode="&#xfdfc;" horiz-adv-x="1358" arabic-form="isolated" 
d="M1076 0h-461v714h110v-614h241v247q0 49 -20 85l99 41q17 -23 24 -49.5t7 -65.5v-358zM505 15q0 -112 -61 -174.5t-171 -62.5q-118 0 -178.5 59t-60.5 175q0 38 12.5 82t33.5 82l99 -26q-37 -68 -37 -138q0 -69 32 -104.5t95 -35.5q126 0 126 149v693h110v-699z
M1055 -121q15 -3 30 -5.5t32 -2.5q35 0 51 18t16 57v511h110v-507q0 -87 -39 -129.5t-118 -42.5q-46 0 -99 15zM716 -77h100v-101h-100v101zM869 -77h100v-101h-100v101z" />
    <glyph glyph-name="uniFE80" unicode="&#x621;" horiz-adv-x="417" arabic-form="isolated" 
d="M385 84v-84h-359v84h47v93q0 79 40 119t119 40q72 0 108.5 -30.5t46.5 -99.5l-94 -10q-4 33 -17 46t-42 13q-32 0 -46 -18t-14 -59v-94h211z" />
    <glyph glyph-name="uniFE81" unicode="&#x622;" horiz-adv-x="243" arabic-form="isolated" 
d="M66 0v714h110v-714h-110zM13 767q0 41 15.5 60t48.5 19q19 -1 34 -8.5t27 -15t23 -8.5q26 0 27 30h44q0 -41 -15.5 -60t-48.5 -19q-19 1 -33.5 9t-26.5 15.5t-23 8.5q-27 0 -27 -31h-45z" />
    <glyph glyph-name="uniFE82" unicode="&#x622;" horiz-adv-x="294" arabic-form="final" 
d="M309 0h-245v714h110v-614h135v-100zM10 767q0 41 15.5 60t48.5 19q19 -1 34 -8.5t27 -15t23 -8.5q26 0 27 30h44q0 -41 -15.5 -60t-48.5 -19q-19 1 -33.5 9t-26.5 15.5t-23 8.5q-27 0 -27 -31h-45z" />
    <glyph glyph-name="uniFE83" unicode="&#x623;" horiz-adv-x="243" arabic-form="isolated" 
d="M66 0v714h110v-714h-110zM207 808v-42h-176v42h22v51q0 35 20 54.5t56 19.5q35 0 52.5 -15t22.5 -50l-41 -6q-3 17 -10 24t-21 7q-33 0 -33 -36v-49h108z" />
    <glyph glyph-name="uniFE84" unicode="&#x623;" horiz-adv-x="294" arabic-form="final" 
d="M309 0h-245v714h110v-614h135v-100zM204 808v-42h-176v42h22v51q0 35 20 54.5t56 19.5q35 0 52.5 -15t22.5 -50l-41 -6q-3 17 -10 24t-21 7q-33 0 -33 -36v-49h108z" />
    <glyph glyph-name="uniFE85" unicode="&#x624;" horiz-adv-x="543" arabic-form="isolated" 
d="M481 -6q0 -107 -52.5 -159.5t-161.5 -52.5q-96 0 -151 44t-66 129h108q8 -41 34.5 -60.5t75.5 -19.5q56 0 79.5 26.5t23.5 87.5v11h-34q-140 0 -215 65t-75 185q0 103 60 163t162 60q105 0 158.5 -56.5t53.5 -168.5v-254zM157 251q0 -74 41 -112.5t120 -38.5h53v153
q0 67 -25 97.5t-80 30.5q-53 0 -81 -33.5t-28 -96.5zM354 575v-42h-176v42h22v51q0 35 20 54.5t56 19.5q35 0 52.5 -15t22.5 -50l-41 -6q-3 17 -10 24t-21 7q-33 0 -33 -36v-49h108z" />
    <glyph glyph-name="uniFE86" unicode="&#x624;" horiz-adv-x="586" arabic-form="final" 
d="M481 100h120v-100h-120q0 -111 -52 -164.5t-162 -53.5q-96 0 -151 44t-66 129h108q8 -41 34.5 -60.5t75.5 -19.5q56 0 79.5 26.5t23.5 87.5v11h-34q-140 0 -215 65t-75 185q0 103 60 163t162 60q105 0 158.5 -56.5t53.5 -168.5v-148zM157 251q0 -74 41 -112.5t120 -38.5
h53v129q0 84 -23.5 118t-81.5 34q-53 0 -81 -33.5t-28 -96.5zM354 575v-42h-176v42h22v51q0 35 20 54.5t56 19.5q35 0 52.5 -15t22.5 -50l-41 -6q-3 17 -10 24t-21 7q-33 0 -33 -36v-49h108z" />
    <glyph glyph-name="uniFE87" unicode="&#x625;" horiz-adv-x="243" arabic-form="isolated" 
d="M66 0v714h110v-714h-110zM203 -189v-43h-176v43h22v51q0 35 20 54.5t56 19.5q35 0 52.5 -15.5t22.5 -50.5l-41 -5q-3 17 -10 24t-21 7q-33 0 -33 -37v-48h108z" />
    <glyph glyph-name="uniFE88" unicode="&#x625;" horiz-adv-x="294" arabic-form="final" 
d="M309 0h-245v714h110v-614h135v-100zM241 -189v-43h-176v43h22v51q0 35 20 54.5t56 19.5q35 0 52.5 -15.5t22.5 -50.5l-41 -5q-3 17 -10 24t-21 7q-33 0 -33 -37v-48h108z" />
    <glyph glyph-name="uniFE89" unicode="&#x626;" horiz-adv-x="672" arabic-form="isolated" 
d="M590 361q-43 0 -64 -24.5t-21 -74.5v-247q0 -112 -60 -174.5t-168 -62.5q-119 0 -181 60t-62 176q0 38 12.5 83.5t33.5 82.5l99 -26q-37 -66 -37 -140q0 -69 33.5 -105.5t97.5 -36.5q122 0 122 149v246q0 92 48 141t137 49h67v-96h-57zM238 325v-42h-176v42h22v51
q0 35 20 54.5t56 19.5q35 0 52.5 -15t22.5 -50l-41 -6q-3 17 -10 24t-21 7q-33 0 -33 -36v-49h108z" />
    <glyph glyph-name="uniFE8A" unicode="&#x626;" horiz-adv-x="891" arabic-form="final" 
d="M505 15q0 -112 -60 -174.5t-168 -62.5q-119 0 -181 60t-62 176q0 38 12.5 83.5t33.5 82.5l99 -26q-37 -66 -37 -140q0 -69 33.5 -105.5t97.5 -36.5q122 0 122 149v246q0 92 48 141t137 49h193v-357h137v-100h-247v361h-73q-43 0 -64 -24.5t-21 -74.5v-247zM238 325v-42
h-176v42h22v51q0 35 20 54.5t56 19.5q35 0 52.5 -15t22.5 -50l-41 -6q-3 17 -10 24t-21 7q-33 0 -33 -36v-49h108z" />
    <glyph glyph-name="uniFE8B" unicode="&#x626;" horiz-adv-x="294" arabic-form="initial" 
d="M230 0h-245v100h136v247q0 49 -20 85l99 41q16 -22 23 -48t7 -67v-358zM230 577v-42h-176v42h22v51q0 35 20 54.5t56 19.5q35 0 52.5 -15t22.5 -50l-41 -6q-3 17 -10 24t-21 7q-33 0 -33 -36v-49h108z" />
    <glyph glyph-name="uniFE8C" unicode="&#x626;" horiz-adv-x="351" arabic-form="medial" 
d="M-15 100h136v357h109v-357h136v-100h-381v100zM230 577v-42h-176v42h22v51q0 35 20 54.5t56 19.5q35 0 52.5 -15t22.5 -50l-41 -6q-3 17 -10 24t-21 7q-33 0 -33 -36v-49h108z" />
    <glyph glyph-name="uniFE8D" unicode="&#x627;" horiz-adv-x="238" arabic-form="isolated" 
d="M64 0v714h110v-714h-110z" />
    <glyph glyph-name="uniFE8E" unicode="&#x627;" horiz-adv-x="294" arabic-form="final" 
d="M309 0h-245v714h110v-614h135v-100z" />
    <glyph glyph-name="uniFE8F" unicode="&#x628;" horiz-adv-x="825" arabic-form="isolated" 
d="M307 0q-129 0 -195 59t-66 174q0 100 59 161.5t162 67.5l14 -97q-66 -6 -96.5 -37.5t-30.5 -93.5q0 -134 150 -134h347v357h110v-457h-454zM398 -76h102v-103h-102v103z" />
    <glyph glyph-name="uniFE90" unicode="&#x628;" horiz-adv-x="879" arabic-form="final" 
d="M651 100v357h110v-357h133v-100h-587q-129 0 -195 59t-66 174q0 100 59 161.5t162 67.5l14 -97q-66 -6 -96.5 -37.5t-30.5 -93.5q0 -134 150 -134h347zM399 -76h102v-103h-102v103z" />
    <glyph glyph-name="uniFE91" unicode="&#x628;" horiz-adv-x="294" arabic-form="initial" 
d="M230 0h-245v100h136v247q0 49 -20 85l99 41q16 -22 23 -48t7 -67v-358zM124 -76h102v-103h-102v103z" />
    <glyph glyph-name="uniFE92" unicode="&#x628;" horiz-adv-x="351" arabic-form="medial" 
d="M-15 100h136v357h109v-357h136v-100h-381v100zM124 -76h102v-103h-102v103z" />
    <glyph glyph-name="uniFE93" unicode="&#x629;" horiz-adv-x="546" arabic-form="isolated" 
d="M153 227q0 -74 30.5 -112.5t89.5 -38.5q60 0 90.5 38.5t30.5 112.5q0 75 -31 113.5t-90 38.5t-89.5 -38.5t-30.5 -113.5zM46 225q0 116 61 182t168 66q106 0 165.5 -65t59.5 -179q0 -119 -60 -183.5t-169 -64.5q-106 0 -165.5 64.5t-59.5 179.5zM146 650h101v-102h-101
v102zM300 650h100v-102h-100v102z" />
    <glyph glyph-name="uniFE94" unicode="&#x629;" horiz-adv-x="584" arabic-form="final" 
d="M479 100h120v-100h-263q-140 0 -215 65t-75 185q0 103 59.5 163t162.5 60q211 0 211 -225v-148zM156 251q0 -75 41 -113t120 -38h53v129q0 84 -23.5 118t-81.5 34q-53 0 -81 -33.5t-28 -96.5zM136 650h101v-102h-101v102zM290 650h100v-102h-100v102z" />
    <glyph glyph-name="uniFE95" unicode="&#x62a;" horiz-adv-x="825" arabic-form="isolated" 
d="M307 0q-129 0 -195 59t-66 174q0 100 59 161.5t162 67.5l14 -97q-66 -6 -96.5 -37.5t-30.5 -93.5q0 -134 150 -134h347v357h110v-457h-454zM319 650h101v-102h-101v102zM473 650h100v-102h-100v102z" />
    <glyph glyph-name="uniFE96" unicode="&#x62a;" horiz-adv-x="879" arabic-form="final" 
d="M651 100v357h110v-357h133v-100h-587q-129 0 -195 59t-66 174q0 100 59 161.5t162 67.5l14 -97q-66 -6 -96.5 -37.5t-30.5 -93.5q0 -134 150 -134h347zM319 650h101v-102h-101v102zM473 650h100v-102h-100v102z" />
    <glyph glyph-name="uniFE97" unicode="&#x62a;" horiz-adv-x="294" arabic-form="initial" 
d="M230 0h-245v100h136v247q0 49 -20 85l99 41q16 -22 23 -48t7 -67v-358zM-24 650h101v-102h-101v102zM130 650h100v-102h-100v102z" />
    <glyph glyph-name="uniFE98" unicode="&#x62a;" horiz-adv-x="351" arabic-form="medial" 
d="M-15 100h136v357h109v-357h136v-100h-381v100zM-24 650h101v-102h-101v102zM130 650h100v-102h-100v102z" />
    <glyph glyph-name="uniFE99" unicode="&#x62b;" horiz-adv-x="825" arabic-form="isolated" 
d="M307 0q-129 0 -195 59t-66 174q0 100 59 161.5t162 67.5l14 -97q-66 -6 -96.5 -37.5t-30.5 -93.5q0 -134 150 -134h347v357h110v-457h-454zM409 730h94v-89h-94v89zM339 607h94v-89h-94v89zM479 607h93v-89h-93v89z" />
    <glyph glyph-name="uniFE9A" unicode="&#x62b;" horiz-adv-x="879" arabic-form="final" 
d="M651 100v357h110v-357h133v-100h-587q-129 0 -195 59t-66 174q0 100 59 161.5t162 67.5l14 -97q-66 -6 -96.5 -37.5t-30.5 -93.5q0 -134 150 -134h347zM410 747h94v-89h-94v89zM340 624h94v-89h-94v89zM480 624h93v-89h-93v89z" />
    <glyph glyph-name="uniFE9B" unicode="&#x62b;" horiz-adv-x="294" arabic-form="initial" 
d="M230 0h-245v100h136v247q0 49 -20 85l99 41q16 -22 23 -48t7 -67v-358zM67 747h94v-89h-94v89zM-3 624h94v-89h-94v89zM137 624h93v-89h-93v89z" />
    <glyph glyph-name="uniFE9C" unicode="&#x62b;" horiz-adv-x="351" arabic-form="medial" 
d="M-15 100h136v357h109v-357h136v-100h-381v100zM67 747h94v-89h-94v89zM-3 624h94v-89h-94v89zM137 624h93v-89h-93v89z" />
    <glyph glyph-name="uniFE9D" unicode="&#x62c;" horiz-adv-x="619" arabic-form="isolated" 
d="M252 0q-56 0 -88 -30t-32 -82q0 -59 34 -87.5t105 -28.5q59 0 92.5 23t47.5 73h110q-13 -91 -78.5 -141t-171.5 -50q-122 0 -185 54t-63 160q0 95 64.5 152t171.5 57h142v140q0 76 -24 107t-83 31q-53 0 -77.5 -18t-35.5 -66l-106 11q15 86 68 127t150 41
q112 0 164.5 -54t52.5 -169v-150h79v-100h-337zM227 -68h85v-86h-85v86z" />
    <glyph glyph-name="uniFE9E" unicode="&#x62c;" horiz-adv-x="625" arabic-form="final" 
d="M252 0q-56 0 -88 -30t-32 -82q0 -59 34 -87.5t105 -28.5q59 0 92.5 23t47.5 73h110q-13 -91 -78.5 -141t-171.5 -50q-122 0 -185 54t-63 160q0 95 64.5 152t171.5 57h142v140q0 76 -24 107t-83 31q-53 0 -77.5 -18t-35.5 -66l-106 11q15 86 68 127t150 41
q112 0 164.5 -54t52.5 -169v-150h130v-100h-388zM227 -68h85v-86h-85v86z" />
    <glyph glyph-name="uniFE9F" unicode="&#x62c;" horiz-adv-x="565" arabic-form="initial" 
d="M-15 100h362v140q0 76 -24 107t-83 31q-52 0 -77 -18.5t-36 -65.5l-106 11q15 86 68 127t150 41q112 0 164.5 -54t52.5 -169v-150h79v-100h-550v100zM199 -76h102v-103h-102v103z" />
    <glyph glyph-name="uniFEA0" unicode="&#x62c;" horiz-adv-x="576" arabic-form="medial" 
d="M350 240q0 76 -24 107t-82 31q-53 0 -78 -18.5t-36 -65.5l-105 11q15 86 68 127t150 41q112 0 164.5 -54t52.5 -169v-150h131v-100h-606v100h365v140zM193 -76h102v-103h-102v103z" />
    <glyph glyph-name="uniFEA1" unicode="&#x62d;" horiz-adv-x="619" arabic-form="isolated" 
d="M252 0q-56 0 -88 -30t-32 -82q0 -59 34 -87.5t105 -28.5q59 0 92.5 23t47.5 73h110q-13 -91 -78.5 -141t-171.5 -50q-122 0 -185 54t-63 160q0 95 64.5 152t171.5 57h142v140q0 76 -24 107t-83 31q-53 0 -77.5 -18t-35.5 -66l-106 11q15 86 68 127t150 41
q112 0 164.5 -54t52.5 -169v-150h79v-100h-337z" />
    <glyph glyph-name="uniFEA2" unicode="&#x62d;" horiz-adv-x="625" arabic-form="final" 
d="M252 0q-56 0 -88 -30t-32 -82q0 -59 34 -87.5t105 -28.5q59 0 92.5 23t47.5 73h110q-13 -91 -78.5 -141t-171.5 -50q-122 0 -185 54t-63 160q0 95 64.5 152t171.5 57h142v140q0 76 -24 107t-83 31q-53 0 -77.5 -18t-35.5 -66l-106 11q15 86 68 127t150 41
q112 0 164.5 -54t52.5 -169v-150h130v-100h-388z" />
    <glyph glyph-name="uniFEA3" unicode="&#x62d;" horiz-adv-x="565" arabic-form="initial" 
d="M-15 100h362v140q0 76 -24 107t-83 31q-52 0 -77 -18.5t-36 -65.5l-106 11q15 86 68 127t150 41q112 0 164.5 -54t52.5 -169v-150h79v-100h-550v100z" />
    <glyph glyph-name="uniFEA4" unicode="&#x62d;" horiz-adv-x="576" arabic-form="medial" 
d="M350 240q0 76 -24 107t-82 31q-53 0 -78 -18.5t-36 -65.5l-105 11q15 86 68 127t150 41q112 0 164.5 -54t52.5 -169v-150h131v-100h-606v100h365v140z" />
    <glyph glyph-name="uniFEA5" unicode="&#x62e;" horiz-adv-x="619" arabic-form="isolated" 
d="M252 0q-56 0 -88 -30t-32 -82q0 -59 34 -87.5t105 -28.5q59 0 92.5 23t47.5 73h110q-13 -91 -78.5 -141t-171.5 -50q-122 0 -185 54t-63 160q0 95 64.5 152t171.5 57h142v140q0 76 -24 107t-83 31q-53 0 -77.5 -18t-35.5 -66l-106 11q15 86 68 127t150 41
q112 0 164.5 -54t52.5 -169v-150h79v-100h-337zM245 651h102v-103h-102v103z" />
    <glyph glyph-name="uniFEA6" unicode="&#x62e;" horiz-adv-x="625" arabic-form="final" 
d="M252 0q-56 0 -88 -30t-32 -82q0 -59 34 -87.5t105 -28.5q59 0 92.5 23t47.5 73h110q-13 -91 -78.5 -141t-171.5 -50q-122 0 -185 54t-63 160q0 95 64.5 152t171.5 57h142v140q0 76 -24 107t-83 31q-53 0 -77.5 -18t-35.5 -66l-106 11q15 86 68 127t150 41
q112 0 164.5 -54t52.5 -169v-150h130v-100h-388zM245 651h102v-103h-102v103z" />
    <glyph glyph-name="uniFEA7" unicode="&#x62e;" horiz-adv-x="565" arabic-form="initial" 
d="M-15 100h362v140q0 76 -24 107t-83 31q-52 0 -77 -18.5t-36 -65.5l-106 11q15 86 68 127t150 41q112 0 164.5 -54t52.5 -169v-150h79v-100h-550v100zM189 651h102v-103h-102v103z" />
    <glyph glyph-name="uniFEA8" unicode="&#x62e;" horiz-adv-x="576" arabic-form="medial" 
d="M350 240q0 76 -24 107t-82 31q-53 0 -78 -18.5t-36 -65.5l-105 11q15 86 68 127t150 41q112 0 164.5 -54t52.5 -169v-150h131v-100h-606v100h365v140zM193 651h102v-103h-102v103z" />
    <glyph glyph-name="uniFEA9" unicode="&#x62f;" horiz-adv-x="536" arabic-form="isolated" 
d="M367 100v73q0 103 -37.5 152t-116.5 49q-47 0 -104 -19l-26 96q64 22 140 22q125 0 189.5 -73.5t64.5 -215.5v-184h-447v100h337z" />
    <glyph glyph-name="uniFEAA" unicode="&#x62f;" horiz-adv-x="589" arabic-form="final" 
d="M367 100v73q0 103 -37.5 152t-116.5 49q-47 0 -104 -19l-26 96q64 22 140 22q125 0 189.5 -73.5t64.5 -215.5v-84h127v-100h-574v100h337z" />
    <glyph glyph-name="uniFEAB" unicode="&#x630;" horiz-adv-x="536" arabic-form="isolated" 
d="M367 100v73q0 103 -37.5 152t-116.5 49q-47 0 -104 -19l-26 96q64 22 140 22q125 0 189.5 -73.5t64.5 -215.5v-184h-447v100h337zM206 651h102v-103h-102v103z" />
    <glyph glyph-name="uniFEAC" unicode="&#x630;" horiz-adv-x="589" arabic-form="final" 
d="M367 100v73q0 103 -37.5 152t-116.5 49q-47 0 -104 -19l-26 96q64 22 140 22q125 0 189.5 -73.5t64.5 -215.5v-84h127v-100h-574v100h337zM206 651h102v-103h-102v103z" />
    <glyph glyph-name="uniFEAD" unicode="&#x631;" horiz-adv-x="319" arabic-form="isolated" 
d="M17 -121q41 -8 61 -8q68 0 68 75v511h109v-507q0 -88 -38.5 -130t-118.5 -42q-45 0 -98 15z" />
    <glyph glyph-name="uniFEAE" unicode="&#x631;" horiz-adv-x="376" arabic-form="final" 
d="M17 -121q41 -8 61 -8q68 0 68 75v511h109v-357h136v-100h-136v-50q0 -88 -38.5 -130t-118.5 -42q-45 0 -98 15z" />
    <glyph glyph-name="uniFEAF" unicode="&#x632;" horiz-adv-x="319" arabic-form="isolated" 
d="M17 -121q41 -8 61 -8q68 0 68 75v511h109v-507q0 -88 -38.5 -130t-118.5 -42q-45 0 -98 15zM149 651h102v-103h-102v103z" />
    <glyph glyph-name="uniFEB0" unicode="&#x632;" horiz-adv-x="376" arabic-form="final" 
d="M17 -121q41 -8 61 -8q68 0 68 75v511h109v-357h136v-100h-136v-50q0 -88 -38.5 -130t-118.5 -42q-45 0 -98 15zM149 651h102v-103h-102v103z" />
    <glyph glyph-name="uniFEB1" unicode="&#x633;" horiz-adv-x="1113" arabic-form="isolated" 
d="M504 0q-4 -106 -63.5 -164t-163.5 -58q-119 0 -181 60t-62 176q0 38 12.5 83.5t33.5 82.5l99 -26q-37 -66 -37 -140q0 -69 33.5 -105.5t97.5 -36.5q122 0 122 149v436h110v-357h163v357h109v-357h162v247q0 49 -20 85l99 41q17 -23 24 -49.5t7 -65.5v-358h-545z" />
    <glyph glyph-name="uniFEB2" unicode="&#x633;" horiz-adv-x="1169" arabic-form="final" 
d="M504 0q-4 -106 -63.5 -164t-163.5 -58q-119 0 -181 60t-62 176q0 38 12.5 83.5t33.5 82.5l99 -26q-37 -66 -37 -140q0 -69 33.5 -105.5t97.5 -36.5q122 0 122 149v436h110v-357h163v357h109v-357h162v247q0 49 -20 85l99 41q17 -23 24 -49.5t7 -65.5v-258h135v-100h-680z
" />
    <glyph glyph-name="uniFEB3" unicode="&#x633;" horiz-adv-x="838" arabic-form="initial" 
d="M503 100h161v247q0 49 -20 85l100 41q16 -23 23 -49t7 -66v-358h-789v100h135v357h110v-357h163v357h110v-357z" />
    <glyph glyph-name="uniFEB4" unicode="&#x633;" horiz-adv-x="895" arabic-form="medial" 
d="M910 100v-100h-925v100h135v357h110v-357h163v357h110v-357h161v247q0 49 -20 85l100 41q16 -23 23 -49t7 -66v-258h136z" />
    <glyph glyph-name="uniFEB5" unicode="&#x634;" horiz-adv-x="1113" arabic-form="isolated" 
d="M504 0q-4 -106 -63.5 -164t-163.5 -58q-119 0 -181 60t-62 176q0 38 12.5 83.5t33.5 82.5l99 -26q-37 -66 -37 -140q0 -69 33.5 -105.5t97.5 -36.5q122 0 122 149v436h110v-357h163v357h109v-357h162v247q0 49 -20 85l99 41q17 -23 24 -49.5t7 -65.5v-358h-545zM677 747
h94v-89h-94v89zM607 624h94v-89h-94v89zM747 624h93v-89h-93v89z" />
    <glyph glyph-name="uniFEB6" unicode="&#x634;" horiz-adv-x="1169" arabic-form="final" 
d="M504 0q-4 -106 -63.5 -164t-163.5 -58q-119 0 -181 60t-62 176q0 38 12.5 83.5t33.5 82.5l99 -26q-37 -66 -37 -140q0 -69 33.5 -105.5t97.5 -36.5q122 0 122 149v436h110v-357h163v357h109v-357h162v247q0 49 -20 85l99 41q17 -23 24 -49.5t7 -65.5v-258h135v-100h-680z
M677 747h94v-89h-94v89zM607 624h94v-89h-94v89zM747 624h93v-89h-93v89z" />
    <glyph glyph-name="uniFEB7" unicode="&#x634;" horiz-adv-x="838" arabic-form="initial" 
d="M503 100h161v247q0 49 -20 85l100 41q16 -23 23 -49t7 -66v-358h-789v100h135v357h110v-357h163v357h110v-357zM403 747h94v-89h-94v89zM333 624h94v-89h-94v89zM473 624h93v-89h-93v89z" />
    <glyph glyph-name="uniFEB8" unicode="&#x634;" horiz-adv-x="895" arabic-form="medial" 
d="M910 100v-100h-925v100h135v357h110v-357h163v357h110v-357h161v247q0 49 -20 85l100 41q16 -23 23 -49t7 -66v-258h136zM403 747h94v-89h-94v89zM333 624h94v-89h-94v89zM473 624h93v-89h-93v89z" />
    <glyph glyph-name="uniFEB9" unicode="&#x635;" horiz-adv-x="1050" arabic-form="isolated" 
d="M731 378q-106 0 -167 -61.5t-61 -168.5v-48h375v80q0 102 -35.5 150t-111.5 48zM988 0h-484q-5 -107 -64 -164.5t-164 -57.5q-118 0 -180 60t-62 176q0 39 12.5 83.5t33.5 82.5l99 -25q-37 -68 -37 -141q0 -69 33.5 -105.5t97.5 -36.5q122 0 122 149v436h110v-113
q40 63 101 96t137 33q120 0 182.5 -69t62.5 -200v-204z" />
    <glyph glyph-name="uniFEBA" unicode="&#x635;" horiz-adv-x="1094" arabic-form="final" 
d="M731 378q-106 0 -167 -61.5t-61 -168.5v-48h375v80q0 102 -35.5 150t-111.5 48zM505 344q40 63 101 96t137 33q120 0 182.5 -69t62.5 -200v-104h121v-100h-605q-5 -107 -64 -164.5t-164 -57.5q-118 0 -180 60t-62 176q0 39 12.5 83.5t33.5 82.5l99 -25q-37 -68 -37 -141
q0 -69 33.5 -105.5t97.5 -36.5q122 0 122 149v436h110v-113z" />
    <glyph glyph-name="uniFEBB" unicode="&#x635;" horiz-adv-x="777" arabic-form="initial" 
d="M458 378q-106 0 -167.5 -61.5t-61.5 -168.5v-48h376v80q0 102 -35.5 150t-111.5 48zM714 0h-729v100h137v357h109v-113q40 63 101 96t137 33q120 0 182.5 -68.5t62.5 -200.5v-204z" />
    <glyph glyph-name="uniFEBC" unicode="&#x635;" horiz-adv-x="821" arabic-form="medial" 
d="M458 378q-106 0 -167.5 -61.5t-61.5 -168.5v-48h376v80q0 102 -35.5 150t-111.5 48zM231 344q40 63 101 96t137 33q120 0 182.5 -68.5t62.5 -200.5v-104h122v-100h-851v100h137v357h109v-113z" />
    <glyph glyph-name="uniFEBD" unicode="&#x636;" horiz-adv-x="1050" arabic-form="isolated" 
d="M731 378q-106 0 -167 -61.5t-61 -168.5v-48h375v80q0 102 -35.5 150t-111.5 48zM988 0h-484q-5 -107 -64 -164.5t-164 -57.5q-118 0 -180 60t-62 176q0 39 12.5 83.5t33.5 82.5l99 -25q-37 -68 -37 -141q0 -69 33.5 -105.5t97.5 -36.5q122 0 122 149v436h110v-113
q40 63 101 96t137 33q120 0 182.5 -69t62.5 -200v-204zM665 651h102v-103h-102v103z" />
    <glyph glyph-name="uniFEBE" unicode="&#x636;" horiz-adv-x="1094" arabic-form="final" 
d="M731 378q-106 0 -167 -61.5t-61 -168.5v-48h375v80q0 102 -35.5 150t-111.5 48zM505 344q40 63 101 96t137 33q120 0 182.5 -69t62.5 -200v-104h121v-100h-605q-5 -107 -64 -164.5t-164 -57.5q-118 0 -180 60t-62 176q0 39 12.5 83.5t33.5 82.5l99 -25q-37 -68 -37 -141
q0 -69 33.5 -105.5t97.5 -36.5q122 0 122 149v436h110v-113zM665 651h102v-103h-102v103z" />
    <glyph glyph-name="uniFEBF" unicode="&#x636;" horiz-adv-x="777" arabic-form="initial" 
d="M458 378q-106 0 -167.5 -61.5t-61.5 -168.5v-48h376v80q0 102 -35.5 150t-111.5 48zM714 0h-729v100h137v357h109v-113q40 63 101 96t137 33q120 0 182.5 -68.5t62.5 -200.5v-204zM391 651h102v-103h-102v103z" />
    <glyph glyph-name="uniFEC0" unicode="&#x636;" horiz-adv-x="821" arabic-form="medial" 
d="M458 378q-106 0 -167.5 -61.5t-61.5 -168.5v-48h376v80q0 102 -35.5 150t-111.5 48zM231 344q40 63 101 96t137 33q120 0 182.5 -68.5t62.5 -200.5v-104h122v-100h-851v100h137v357h109v-113zM391 651h102v-103h-102v103z" />
    <glyph glyph-name="uniFEC1" unicode="&#x637;" horiz-adv-x="773" arabic-form="isolated" 
d="M454 378q-106 0 -167.5 -62t-61.5 -168v-48h376v80q0 103 -35.5 150.5t-111.5 47.5zM228 344q40 63 101 96t137 33q120 0 182.5 -69t62.5 -200v-204h-681v100h88v614h110v-370z" />
    <glyph glyph-name="uniFEC2" unicode="&#x637;" horiz-adv-x="817" arabic-form="final" 
d="M454 378q-106 0 -167.5 -62t-61.5 -168v-48h376v80q0 103 -35.5 150.5t-111.5 47.5zM466 473q120 0 182.5 -69t62.5 -200v-104h121v-100h-802v100h88v614h110v-370q40 63 101 96t137 33z" />
    <glyph glyph-name="uniFEC3" unicode="&#x637;" horiz-adv-x="777" arabic-form="initial" 
d="M458 378q-106 0 -167.5 -62t-61.5 -168v-48h376v80q0 102 -35.5 150t-111.5 48zM231 344q40 63 101 96t137 33q120 0 182.5 -68.5t62.5 -200.5v-204h-729v100h137v614h109v-370z" />
    <glyph glyph-name="uniFEC4" unicode="&#x637;" horiz-adv-x="817" arabic-form="medial" 
d="M454 378q-106 0 -168 -62t-62 -168v-48h377v80q0 102 -35.5 150t-111.5 48zM710 100h122v-100h-847v100h133v614h109v-370q40 63 101 96t137 33q120 0 182.5 -68.5t62.5 -200.5v-104z" />
    <glyph glyph-name="uniFEC5" unicode="&#x638;" horiz-adv-x="773" arabic-form="isolated" 
d="M454 378q-106 0 -167.5 -62t-61.5 -168v-48h376v80q0 103 -35.5 150.5t-111.5 47.5zM228 344q40 63 101 96t137 33q120 0 182.5 -69t62.5 -200v-204h-681v100h88v614h110v-370zM394 651h102v-103h-102v103z" />
    <glyph glyph-name="uniFEC6" unicode="&#x638;" horiz-adv-x="817" arabic-form="final" 
d="M454 378q-106 0 -167.5 -62t-61.5 -168v-48h376v80q0 103 -35.5 150.5t-111.5 47.5zM466 473q120 0 182.5 -69t62.5 -200v-104h121v-100h-802v100h88v614h110v-370q40 63 101 96t137 33zM394 651h102v-103h-102v103z" />
    <glyph glyph-name="uniFEC7" unicode="&#x638;" horiz-adv-x="777" arabic-form="initial" 
d="M458 378q-106 0 -167.5 -62t-61.5 -168v-48h376v80q0 102 -35.5 150t-111.5 48zM231 344q40 63 101 96t137 33q120 0 182.5 -68.5t62.5 -200.5v-204h-729v100h137v614h109v-370zM398 651h102v-103h-102v103z" />
    <glyph glyph-name="uniFEC8" unicode="&#x638;" horiz-adv-x="817" arabic-form="medial" 
d="M454 378q-106 0 -168 -62t-62 -168v-48h377v80q0 102 -35.5 150t-111.5 48zM710 100h122v-100h-847v100h133v614h109v-370q40 63 101 96t137 33q120 0 182.5 -68.5t62.5 -200.5v-104zM393 651h102v-103h-102v103z" />
    <glyph glyph-name="uniFEC9" unicode="&#x639;" horiz-adv-x="673" arabic-form="isolated" 
d="M643 0h-408q-53 0 -80.5 -28.5t-27.5 -82.5q0 -60 34.5 -88.5t104.5 -28.5q59 0 92.5 23t47.5 73h110q-13 -91 -78.5 -141t-171.5 -50q-122 0 -185 54.5t-63 160.5q0 54 21 97.5t61 71t94 34.5v150q0 228 225 228q95 0 145 -40t64 -128l-105 -11q-10 48 -33.5 66
t-73.5 18q-60 0 -86 -32.5t-26 -105.5v-140h339v-100z" />
    <glyph glyph-name="uniFECA" unicode="&#x639;" horiz-adv-x="645" arabic-form="final" 
d="M660 0h-425q-53 0 -80.5 -28.5t-27.5 -82.5q0 -60 34.5 -88.5t104.5 -28.5q59 0 92.5 23t47.5 73h110q-13 -91 -78.5 -141t-171.5 -50q-122 0 -185 54.5t-63 160.5q0 54 21 97.5t61 71t94 34.5v150q0 228 225 228q95 0 145 -40t64 -128l-105 -11q-10 48 -33.5 66
t-73.5 18q-60 0 -86 -32.5t-26 -105.5v-140h356v-100z" />
    <glyph glyph-name="uniFECB" unicode="&#x639;" horiz-adv-x="599" arabic-form="initial" 
d="M116 245q0 228 225 228q95 0 145 -40t64 -128l-105 -11q-10 48 -33.5 66t-73.5 18q-60 0 -86 -32.5t-26 -105.5v-140h343v-100h-584v100h131v145z" />
    <glyph glyph-name="uniFECC" unicode="&#x639;" horiz-adv-x="567" arabic-form="medial" 
d="M116 245q0 228 225 228q95 0 145 -40t64 -128l-105 -11q-10 48 -33.5 66t-73.5 18q-60 0 -86 -32.5t-26 -105.5v-140h356v-100h-597v100h131v145z" />
    <glyph glyph-name="uniFECD" unicode="&#x63a;" horiz-adv-x="673" arabic-form="isolated" 
d="M643 0h-408q-53 0 -80.5 -28.5t-27.5 -82.5q0 -60 34.5 -88.5t104.5 -28.5q59 0 92.5 23t47.5 73h110q-13 -91 -78.5 -141t-171.5 -50q-122 0 -185 54.5t-63 160.5q0 54 21 97.5t61 71t94 34.5v150q0 228 225 228q95 0 145 -40t64 -128l-105 -11q-10 48 -33.5 66
t-73.5 18q-60 0 -86 -32.5t-26 -105.5v-140h339v-100zM365 651h102v-103h-102v103z" />
    <glyph glyph-name="uniFECE" unicode="&#x63a;" horiz-adv-x="645" arabic-form="final" 
d="M660 0h-425q-53 0 -80.5 -28.5t-27.5 -82.5q0 -60 34.5 -88.5t104.5 -28.5q59 0 92.5 23t47.5 73h110q-13 -91 -78.5 -141t-171.5 -50q-122 0 -185 54.5t-63 160.5q0 54 21 97.5t61 71t94 34.5v150q0 228 225 228q95 0 145 -40t64 -128l-105 -11q-10 48 -33.5 66
t-73.5 18q-60 0 -86 -32.5t-26 -105.5v-140h356v-100zM365 651h102v-103h-102v103z" />
    <glyph glyph-name="uniFECF" unicode="&#x63a;" horiz-adv-x="599" arabic-form="initial" 
d="M116 245q0 228 225 228q95 0 145 -40t64 -128l-105 -11q-10 48 -33.5 66t-73.5 18q-60 0 -86 -32.5t-26 -105.5v-140h343v-100h-584v100h131v145zM287 651h102v-103h-102v103z" />
    <glyph glyph-name="uniFED0" unicode="&#x63a;" horiz-adv-x="567" arabic-form="medial" 
d="M116 245q0 228 225 228q95 0 145 -40t64 -128l-105 -11q-10 48 -33.5 66t-73.5 18q-60 0 -86 -32.5t-26 -105.5v-140h356v-100h-597v100h131v145zM287 651h102v-103h-102v103z" />
    <glyph glyph-name="uniFED1" unicode="&#x641;" horiz-adv-x="910" arabic-form="isolated" 
d="M738 100v152q0 67 -25.5 98t-78.5 31q-52 0 -80.5 -34t-28.5 -96q0 -71 40 -111t112 -40h61zM495 100q-36 24 -57.5 68t-21.5 94q0 61 27 108.5t77 75t117 27.5q104 0 157 -57t53 -170v-246h-540q-261 0 -261 233q0 101 58.5 161.5t162.5 67.5l13 -97q-66 -7 -96 -38.5
t-30 -92.5q0 -69 36.5 -101.5t113.5 -32.5h191zM583 651h102v-103h-102v103z" />
    <glyph glyph-name="uniFED2" unicode="&#x641;" horiz-adv-x="952" arabic-form="final" 
d="M738 100v152q0 67 -25.5 98t-78.5 31q-52 0 -80.5 -34t-28.5 -96q0 -71 40 -111t112 -40h61zM495 100q-36 24 -57.5 68t-21.5 93q0 61 27 109t77.5 75.5t116.5 27.5q104 0 157 -57t53 -170v-146h120v-100h-660q-261 0 -261 233q0 101 58.5 161.5t162.5 67.5l13 -97
q-66 -7 -96 -38.5t-30 -92.5q0 -69 36.5 -101.5t113.5 -32.5h191zM583 651h102v-103h-102v103z" />
    <glyph glyph-name="uniFED3" unicode="&#x641;" horiz-adv-x="571" arabic-form="initial" 
d="M508 247v-123.5v-123.5h-523v100h169q-36 24 -57.5 68t-21.5 94q0 61 27 108.5t77.5 75t116.5 27.5q105 0 158.5 -57t53.5 -169zM398 100v152q0 67 -25.5 98t-78.5 31t-81.5 -34t-28.5 -96q0 -71 40 -111t113 -40h61zM241 651h102v-103h-102v103z" />
    <glyph glyph-name="uniFED4" unicode="&#x641;" horiz-adv-x="613" arabic-form="medial" 
d="M628 0h-643v100h169q-36 24 -57.5 68t-21.5 94q0 61 27 108.5t77.5 75t116.5 27.5q105 0 158.5 -57t53.5 -169v-147h120v-100zM398 100v152q0 67 -25.5 98t-78.5 31t-81.5 -34t-28.5 -96q0 -71 40 -111t113 -40h61zM241 651h102v-103h-102v103z" />
    <glyph glyph-name="uniFED5" unicode="&#x642;" horiz-adv-x="661" arabic-form="isolated" 
d="M598 -6q0 -104 -68.5 -160t-196.5 -56q-155 0 -229 60t-74 185h109q2 -82 46 -117.5t146 -35.5q80 0 118.5 32t39.5 98h-34q-140 0 -215 65t-75 185q0 103 59.5 163t162.5 60q211 0 211 -225v-254zM275 251q0 -74 41 -112.5t120 -38.5h53v129q0 84 -23.5 118t-81.5 34
q-53 0 -81 -33.5t-28 -96.5zM261 650h101v-102h-101v102zM415 650h100v-102h-100v102z" />
    <glyph glyph-name="uniFED6" unicode="&#x642;" horiz-adv-x="703" arabic-form="final" 
d="M598 100h120v-100h-120q0 -109 -67.5 -165.5t-197.5 -56.5q-155 0 -229 60t-74 185h109q2 -82 46 -117.5t146 -35.5q80 0 118.5 32t39.5 98h-34q-140 0 -215 65t-75 185q0 103 59.5 163t162.5 60q211 0 211 -225v-148zM275 251q0 -74 41 -112.5t120 -38.5h53v129
q0 84 -23.5 118t-81.5 34q-53 0 -81 -33.5t-28 -96.5zM260 650h101v-102h-101v102zM414 650h100v-102h-100v102z" />
    <glyph glyph-name="uniFED7" unicode="&#x642;" horiz-adv-x="571" arabic-form="initial" 
d="M508 247v-123.5v-123.5h-523v100h169q-36 24 -57.5 68t-21.5 94q0 61 27 108.5t77.5 75t116.5 27.5q105 0 158.5 -57t53.5 -169zM398 100v152q0 67 -25.5 98t-78.5 31t-81.5 -34t-28.5 -96q0 -71 40 -111t113 -40h61zM166 650h101v-102h-101v102zM320 650h100v-102h-100
v102z" />
    <glyph glyph-name="uniFED8" unicode="&#x642;" horiz-adv-x="613" arabic-form="medial" 
d="M628 0h-643v100h169q-36 24 -57.5 68t-21.5 94q0 61 27 108.5t77.5 75t116.5 27.5q105 0 158.5 -57t53.5 -169v-147h120v-100zM398 100v152q0 67 -25.5 98t-78.5 31t-81.5 -34t-28.5 -96q0 -71 40 -111t113 -40h61zM166 650h101v-102h-101v102zM320 650h100v-102h-100
v102z" />
    <glyph glyph-name="uniFED9" unicode="&#x643;" horiz-adv-x="825" arabic-form="isolated" 
d="M651 100v614h110v-714h-454q-129 0 -195 59t-66 174q0 100 59 161.5t162 67.5l14 -97q-66 -6 -96.5 -37.5t-30.5 -93.5q0 -134 150 -134h347zM547 413v-42h-176v42h22v51q0 35 20 54.5t56 19.5q35 0 52.5 -15t22.5 -50l-41 -6q-3 17 -10 24t-21 7q-33 0 -33 -36v-49h108z
" />
    <glyph glyph-name="uniFEDA" unicode="&#x643;" horiz-adv-x="879" arabic-form="final" 
d="M651 100v614h110v-614h133v-100h-587q-129 0 -195 59t-66 174q0 100 59 161.5t162 67.5l14 -97q-66 -6 -96.5 -37.5t-30.5 -93.5q0 -134 150 -134h347zM547 413v-42h-176v42h22v51q0 35 20 54.5t56 19.5q35 0 52.5 -15t22.5 -50l-41 -6q-3 17 -10 24t-21 7q-33 0 -33 -36
v-49h108z" />
    <glyph glyph-name="uniFEDB" unicode="&#x643;" horiz-adv-x="561" arabic-form="initial" 
d="M498 0h-513v100h404v106q0 66 -17.5 100t-57 48t-109.5 14h-173v87l316 259h145l-314 -255h45q142 0 208 -59.5t66 -186.5v-213z" />
    <glyph glyph-name="uniFEDC" unicode="&#x643;" horiz-adv-x="613" arabic-form="medial" 
d="M389 206q0 66 -17.5 100t-57 48t-109.5 14h-173v87l316 259h145l-314 -255h45q142 0 208 -59.5t66 -186.5v-113h130v-100h-643v100h404v106z" />
    <glyph glyph-name="uniFEDD" unicode="&#x644;" horiz-adv-x="569" arabic-form="isolated" 
d="M505 15q0 -112 -61.5 -174.5t-170.5 -62.5q-119 0 -179 59t-60 175q0 37 12.5 81t33.5 83l99 -26q-37 -68 -37 -138q0 -69 32 -104.5t95 -35.5q126 0 126 149v693h110v-699z" />
    <glyph glyph-name="uniFEDE" unicode="&#x644;" horiz-adv-x="625" arabic-form="final" 
d="M505 100h135v-100h-136q-4 -105 -65 -163.5t-166 -58.5q-119 0 -179 59t-60 175q0 37 12.5 81t33.5 83l99 -26q-37 -68 -37 -138q0 -69 32 -104.5t95 -35.5q126 0 126 149v693h110v-614z" />
    <glyph glyph-name="uniFEDF" unicode="&#x644;" horiz-adv-x="294" arabic-form="initial" 
d="M-15 100h136v614h109v-714h-245v100z" />
    <glyph glyph-name="uniFEE0" unicode="&#x644;" horiz-adv-x="351" arabic-form="medial" 
d="M-15 100h136v614h109v-614h136v-100h-381v100z" />
    <glyph glyph-name="uniFEE1" unicode="&#x645;" horiz-adv-x="639" arabic-form="isolated" 
d="M30 100h130v147q0 110 56 168t162 58q99 0 157 -60t58 -161q0 -121 -75 -186.5t-214 -65.5h-164v-292h-110v392zM484 251q0 62 -27.5 96t-77.5 34q-109 0 -109 -129v-152h53q79 0 120 38.5t41 112.5z" />
    <glyph glyph-name="uniFEE2" unicode="&#x645;" horiz-adv-x="666" arabic-form="final" 
d="M30 100h130v148q0 107 57 166t161 59q62 0 110.5 -25.5t76.5 -73.5t28 -111q0 -49 -22 -93.5t-58 -69.5h168v-100h-541v-292h-110v392zM331 100q73 0 113 40t40 111q0 62 -28 96t-79 34q-107 0 -107 -128v-153h61z" />
    <glyph glyph-name="uniFEE3" unicode="&#x645;" horiz-adv-x="584" arabic-form="initial" 
d="M105 247q0 110 56 168t162 58q99 0 157 -60t58 -161q0 -121 -75.5 -186.5t-214.5 -65.5h-263v100h120v147zM429 251q0 62 -27.5 96t-77.5 34q-109 0 -109 -129v-152h53q79 0 120 38.5t41 112.5z" />
    <glyph glyph-name="uniFEE4" unicode="&#x645;" horiz-adv-x="611" arabic-form="medial" 
d="M-15 100h120v148q0 107 57 166t161 59q62 0 110.5 -25.5t76.5 -73.5t28 -111q0 -49 -22 -93.5t-58 -69.5h168v-100h-641v100zM276 100q73 0 113 40t40 111q0 62 -28 96t-79 34q-107 0 -107 -128v-153h61z" />
    <glyph glyph-name="uniFEE5" unicode="&#x646;" horiz-adv-x="557" arabic-form="isolated" 
d="M505 15q0 -112 -60 -174.5t-168 -62.5q-119 0 -181 60t-62 176q0 38 12.5 83.5t33.5 82.5l99 -26q-37 -66 -37 -140q0 -69 33.5 -105.5t97.5 -36.5q122 0 122 149v436h110v-442zM233 651h102v-103h-102v103z" />
    <glyph glyph-name="uniFEE6" unicode="&#x646;" horiz-adv-x="621" arabic-form="final" 
d="M504 0q-4 -106 -63 -164t-164 -58q-119 0 -181 60t-62 176q0 38 12.5 83.5t33.5 82.5l99 -26q-37 -66 -37 -140q0 -69 33.5 -105.5t97.5 -36.5q122 0 122 149v436h110v-357h135v-100h-136zM233 651h102v-103h-102v103z" />
    <glyph glyph-name="uniFEE7" unicode="&#x646;" horiz-adv-x="294" arabic-form="initial" 
d="M230 0h-245v100h136v247q0 49 -20 85l99 41q16 -22 23 -48t7 -67v-358zM116 651h102v-103h-102v103z" />
    <glyph glyph-name="uniFEE8" unicode="&#x646;" horiz-adv-x="351" arabic-form="medial" 
d="M-15 100h136v357h109v-357h136v-100h-381v100zM124 651h102v-103h-102v103z" />
    <glyph glyph-name="uniFEE9" unicode="&#x647;" horiz-adv-x="546" arabic-form="isolated" 
d="M153 227q0 -74 30.5 -112.5t89.5 -38.5q60 0 90.5 38.5t30.5 112.5q0 75 -31 113.5t-90 38.5t-89.5 -38.5t-30.5 -113.5zM46 225q0 116 61 182t168 66q106 0 165.5 -65t59.5 -179q0 -119 -60 -183.5t-169 -64.5q-106 0 -165.5 64.5t-59.5 179.5z" />
    <glyph glyph-name="uniFEEA" unicode="&#x647;" horiz-adv-x="584" arabic-form="final" 
d="M479 100h120v-100h-263q-140 0 -215 65t-75 185q0 103 59.5 163t162.5 60q211 0 211 -225v-148zM156 251q0 -75 41 -113t120 -38h53v129q0 84 -23.5 118t-81.5 34q-53 0 -81 -33.5t-28 -96.5z" />
    <glyph glyph-name="uniFEEB" unicode="&#x647;" horiz-adv-x="792" arabic-form="initial" 
d="M-15 100h173q-75 54 -75 161q0 100 53.5 157t146.5 57q25 0 62 -7q28 29 72 44.5t99 15.5q213 0 213 -215v-313h-744v100zM512 436q-29 0 -47 -5t-33 -17q48 -48 48 -165v-151h141v208q0 68 -26 99t-83 31zM373 247q0 71 -21.5 103.5t-68.5 32.5q-44 0 -67.5 -32.5
t-23.5 -92.5q0 -160 181 -160v149z" />
    <glyph glyph-name="uniFEEC" unicode="&#x647;" horiz-adv-x="584" arabic-form="medial" 
d="M-15 0v100h115v158q0 103 51 159t146 56q93 0 143 -51.5t50 -147.5q0 -56 -23.5 -101t-67.5 -73h200v-100h-159q28 -15 44.5 -41t16.5 -56q0 -62 -49.5 -95.5t-141.5 -33.5q-210 0 -210 193v33h-115zM380 259q0 122 -84 122q-45 0 -66 -26t-21 -82v-176h26
q66 0 105.5 44.5t39.5 117.5zM397 -76q0 38 -36.5 59t-101.5 21h-54v-28q0 -114 101 -114q91 0 91 62z" />
    <glyph glyph-name="uniFEED" unicode="&#x648;" horiz-adv-x="543" arabic-form="isolated" 
d="M481 -6q0 -107 -52.5 -159.5t-161.5 -52.5q-96 0 -151 44t-66 129h108q8 -41 34.5 -60.5t75.5 -19.5q56 0 79.5 26.5t23.5 87.5v11h-34q-140 0 -215 65t-75 185q0 103 60 163t162 60q105 0 158.5 -56.5t53.5 -168.5v-254zM157 251q0 -74 41 -112.5t120 -38.5h53v153
q0 67 -25 97.5t-80 30.5q-53 0 -81 -33.5t-28 -96.5z" />
    <glyph glyph-name="uniFEEE" unicode="&#x648;" horiz-adv-x="586" arabic-form="final" 
d="M481 100h120v-100h-120q0 -111 -52 -164.5t-162 -53.5q-96 0 -151 44t-66 129h108q8 -41 34.5 -60.5t75.5 -19.5q56 0 79.5 26.5t23.5 87.5v11h-34q-140 0 -215 65t-75 185q0 103 60 163t162 60q105 0 158.5 -56.5t53.5 -168.5v-148zM157 251q0 -74 41 -112.5t120 -38.5
h53v129q0 84 -23.5 118t-81.5 34q-53 0 -81 -33.5t-28 -96.5z" />
    <glyph glyph-name="uniFEEF" unicode="&#x649;" horiz-adv-x="672" arabic-form="isolated" 
d="M590 361q-43 0 -64 -24.5t-21 -74.5v-247q0 -112 -60 -174.5t-168 -62.5q-119 0 -181 60t-62 176q0 38 12.5 83.5t33.5 82.5l99 -26q-37 -66 -37 -140q0 -69 33.5 -105.5t97.5 -36.5q122 0 122 149v246q0 92 48 141t137 49h67v-96h-57z" />
    <glyph glyph-name="uniFEF0" unicode="&#x649;" horiz-adv-x="895" arabic-form="final" 
d="M505 15q0 -112 -60 -174.5t-168 -62.5q-119 0 -181 60t-62 176q0 38 12.5 83.5t33.5 82.5l99 -26q-37 -66 -37 -140q0 -69 33.5 -105.5t97.5 -36.5q122 0 122 149v246q0 92 48 141t137 49h193v-357h137v-100h-247v361h-73q-43 0 -64 -24.5t-21 -74.5v-247z" />
    <glyph glyph-name="uniFEF1" unicode="&#x64a;" horiz-adv-x="672" arabic-form="isolated" 
d="M590 361q-43 0 -64 -24.5t-21 -74.5v-247q0 -112 -60 -174.5t-168 -62.5q-119 0 -181 60t-62 176q0 38 12.5 83.5t33.5 82.5l99 -26q-37 -66 -37 -140q0 -69 33.5 -105.5t97.5 -36.5q122 0 122 149v246q0 92 48 141t137 49h67v-96h-57zM142 -286h101v-101h-101v101z
M296 -286h100v-101h-100v101z" />
    <glyph glyph-name="uniFEF2" unicode="&#x64a;" horiz-adv-x="895" arabic-form="final" 
d="M505 15q0 -112 -60 -174.5t-168 -62.5q-119 0 -181 60t-62 176q0 38 12.5 83.5t33.5 82.5l99 -26q-37 -66 -37 -140q0 -69 33.5 -105.5t97.5 -36.5q122 0 122 149v246q0 92 48 141t137 49h193v-357h137v-100h-247v361h-73q-43 0 -64 -24.5t-21 -74.5v-247zM123 -272h101
v-101h-101v101zM277 -272h100v-101h-100v101z" />
    <glyph glyph-name="uniFEF3" unicode="&#x64a;" horiz-adv-x="294" arabic-form="initial" 
d="M230 0h-245v100h136v247q0 49 -20 85l99 41q16 -22 23 -48t7 -67v-358zM-23 -77h101v-101h-101v101zM131 -77h100v-101h-100v101z" />
    <glyph glyph-name="uniFEF4" unicode="&#x64a;" horiz-adv-x="351" arabic-form="medial" 
d="M-15 100h136v357h109v-357h136v-100h-381v100zM-23 -77h101v-101h-101v101zM131 -77h100v-101h-100v101z" />
    <glyph glyph-name=".notdef" horiz-adv-x="500" 
d="M50 0v750h400v-750h-400zM400 50v650h-300v-650h300z" />
    <glyph glyph-name=".null" horiz-adv-x="0" 
 />
    <glyph glyph-name=".null" horiz-adv-x="0" 
 />
    <glyph glyph-name=".null" horiz-adv-x="0" 
 />
    <glyph glyph-name="nonmarkingreturn" unicode="&#x9;" horiz-adv-x="223" 
 />
    <glyph glyph-name="nonmarkingreturn" unicode="&#xd;" horiz-adv-x="223" 
 />
    <glyph glyph-name="space" unicode=" " horiz-adv-x="223" 
 />
    <glyph glyph-name="exclam" unicode="!" horiz-adv-x="252" 
d="M184 137v-137h-116v137h116zM187 714l-8 -499h-105l-8 499h121z" />
    <glyph glyph-name="quotedbl" unicode="&#x22;" horiz-adv-x="356" 
d="M150 711l-7 -262h-99l-7 262h113zM319 711l-7 -262h-99l-7 262h113z" />
    <glyph glyph-name="numbersign" unicode="#" 
d="M381 427h-133l-30 -176h133zM19 167v84h101l29 176h-97v84h111l27 167h99l-28 -167h133l27 167h98l-27 -167h79v-84h-92l-29 -176h86v-84h-101l-27 -167h-98l27 167h-133l-27 -167h-98l27 167h-87z" />
    <glyph glyph-name="dollar" unicode="$" 
d="M263 619q-55 -6 -79.5 -32.5t-24.5 -56.5v-16q2 -42 24.5 -65.5t79.5 -34.5v205zM323 77q57 5 81.5 34t24.5 75q0 16 -4.5 32.5t-16.5 31t-32.5 25.5t-52.5 17v-215zM263 -15q-59 4 -101 22t-70 46.5t-42 67t-16 85.5h112q5 -62 33.5 -91.5t83.5 -36.5v225
q-52 9 -91.5 23.5t-66.5 38.5t-42 58t-16 81q0 9 0.5 18t1.5 18q8 69 62.5 115t151.5 53v87h60v-87q60 -5 99.5 -24t63.5 -46t35.5 -59.5t16.5 -63.5l-108 -16q-12 54 -34.5 83.5t-72.5 35.5v-216l24 -4q100 -19 149 -67.5t49 -141.5q0 -39 -13.5 -74.5t-40.5 -63.5t-69 -46
t-99 -21v-100h-60v101z" />
    <glyph glyph-name="percent" unicode="%" horiz-adv-x="944" 
d="M241 0l349 691h111l-349 -691h-111zM731 65q41 0 62 30t21 104q0 72 -21 103.5t-62 31.5q-40 0 -61.5 -31.5t-21.5 -103.5q0 -74 21 -104t62 -30zM731 -17q-83 0 -131.5 53.5t-48.5 162.5q0 55 14 96t38 68t57 40.5t71 13.5q80 0 130 -54.5t50 -163.5q0 -60 -14.5 -101
t-39 -66.5t-57.5 -37t-69 -11.5zM213 356q41 0 62 30t21 104q0 72 -21 103.5t-62 31.5q-40 0 -61.5 -31.5t-21.5 -103.5q0 -74 21 -104t62 -30zM213 274q-83 0 -131.5 53.5t-48.5 162.5q0 55 14 96t38 68t57 40.5t71 13.5q80 0 130 -54.5t50 -163.5q0 -60 -14.5 -101
t-39 -66.5t-57.5 -37t-69 -11.5z" />
    <glyph glyph-name="ampersand" unicode="&#x26;" horiz-adv-x="653" 
d="M286 444q16 9 30.5 20.5t25.5 25.5t18 31t7 38q0 38 -20 58t-54 20q-76 0 -76 -82q0 -19 6.5 -36t16 -31.5t20 -26.5t18.5 -21zM238 331q-37 -21 -64 -51.5t-27 -74.5q0 -28 7.5 -52t25 -41t46 -27t71.5 -10q42 0 71 12.5t49 32.5zM476 53q-34 -30 -80 -49.5t-108 -19.5
q-75 0 -124 18t-78.5 47t-41 66t-11.5 75q0 40 13 71.5t34.5 56t49 43.5t56.5 36q-27 30 -50 71t-23 89q0 35 13 65t36 51.5t56 34t72 12.5q75 0 120.5 -36.5t53.5 -95.5q2 -8 2 -16v-16q-2 -32 -14 -58t-30.5 -47t-43 -38t-49.5 -32l150 -177q14 35 19.5 70t6.5 74h103
q-1 -62 -18 -118t-46 -103l109 -127h-132z" />
    <glyph glyph-name="quotesingle" unicode="'" horiz-adv-x="187" 
d="M150 711l-7 -262h-99l-7 262h113z" />
    <glyph glyph-name="parenleft" unicode="(" horiz-adv-x="281" 
d="M165 -124q-57 87 -88 197.5t-31 231.5q0 55 7 112t22 112t37.5 107t52.5 98h107q-59 -104 -83 -209t-24 -220q0 -117 24 -221t83 -208h-107z" />
    <glyph glyph-name="parenright" unicode=")" horiz-adv-x="281" 
d="M8 -124q58 104 83 208t25 221q0 116 -25.5 220t-82.5 209h108q59 -93 88.5 -204t29.5 -225q0 -123 -31.5 -232.5t-86.5 -196.5h-108z" />
    <glyph glyph-name="asterisk" unicode="*" horiz-adv-x="403" 
d="M25 555l39 91l105 -58l-20 126h106l-20 -126l105 58l38 -91l-122 -32l97 -101l-82 -58l-69 111l-69 -111l-82 58l97 101z" />
    <glyph glyph-name="plus" unicode="+" 
d="M61 291v99h184v198h102v-198h184v-99h-184v-198h-102v198h-184z" />
    <glyph glyph-name="comma" unicode="," horiz-adv-x="231" 
d="M182 140l-58 -235h-88l32 235h114z" />
    <glyph glyph-name="hyphen" unicode="-" horiz-adv-x="390" 
d="M343 352v-113h-296v113h296z" />
    <glyph glyph-name="period" unicode="." horiz-adv-x="231" 
d="M176 139v-139h-121v139h121z" />
    <glyph glyph-name="slash" unicode="/" horiz-adv-x="357" 
d="M7 0l229 734h114l-229 -734h-114z" />
    <glyph glyph-name="zero" unicode="0" 
d="M295 82q39 0 65.5 18.5t43 52.5t24 83t7.5 110q0 60 -7.5 109t-24 83.5t-43 53t-65.5 18.5t-65.5 -19t-42.5 -53.5t-23 -83t-7 -108.5q0 -128 31.5 -196t106.5 -68zM294 -18q-60 0 -107.5 21t-80.5 65.5t-50.5 113.5t-17.5 164q0 183 67.5 273.5t192.5 90.5
q121 0 188.5 -88.5t67.5 -275.5q0 -95 -17.5 -163.5t-51 -113t-82 -66t-109.5 -21.5z" />
    <glyph glyph-name="one" unicode="1" 
d="M138 473l-50 84l214 134h100v-691h-116v562z" />
    <glyph glyph-name="two" unicode="2" 
d="M56 89q76 67 140.5 119.5t111 99t73 91t26.5 97.5t-29.5 83.5t-80.5 30.5q-62 0 -93 -26.5t-46 -89.5l-109 15q9 40 25.5 76.5t46 64t73 44t105.5 16.5q111 0 169 -56.5t58 -150.5q0 -59 -21.5 -105.5t-61 -91.5t-95 -93.5t-124.5 -111.5h311l-14 -101h-465v71v18z" />
    <glyph glyph-name="three" unicode="3" 
d="M158 205q7 -68 37.5 -96.5t97.5 -28.5q59 0 93 28t34 89q0 59 -31.5 85t-92.5 26h-75v101h80q86 0 98 76q7 21 4 50q-6 40 -35 58.5t-75 18.5q-60 0 -90.5 -25.5t-45.5 -82.5l-108 15q8 39 24.5 73.5t45.5 61t71.5 41.5t103.5 15q58 0 101 -15t71 -40t41.5 -58t13.5 -70
q0 -110 -96 -160q60 -25 86 -68.5t26 -97.5q0 -102 -60.5 -160.5t-181.5 -58.5q-72 0 -120 20t-76.5 52t-41 72t-14.5 79h115z" />
    <glyph glyph-name="four" unicode="4" 
d="M353 542l-203 -287h203v287zM355 691h107v-436h91l-14 -92h-77v-163h-109v163h-321v81z" />
    <glyph glyph-name="five" unicode="5" 
d="M172 189q4 -27 12.5 -47.5t23 -34t37 -20t54.5 -6.5q57 0 89.5 33.5t32.5 108.5q0 65 -30.5 99t-93.5 34q-42 0 -72 -13.5t-54 -39.5h-97l33 388h387v-100h-293l-16 -181q28 19 62.5 29t71.5 10q59 0 100 -19.5t66.5 -51t37 -72t11.5 -81.5q0 -63 -17.5 -108.5
t-48.5 -75.5t-73.5 -44.5t-91.5 -14.5q-114 0 -175 50.5t-69 156.5h113z" />
    <glyph glyph-name="six" unicode="6" 
d="M301 75q58 0 95 35.5t37 106.5q0 61 -28.5 99.5t-95.5 38.5q-29 0 -54 -8.5t-43.5 -26.5t-28.5 -44.5t-7 -62.5q0 -27 8 -52t23.5 -44t38.5 -30.5t55 -11.5zM426 538q-7 17 -13.5 29t-15.5 20.5t-21 14t-29 8.5q-20 4 -47 1q-64 -5 -97 -66t-37 -173q31 38 72.5 56
t95.5 19q53 0 92.5 -16t65.5 -46t39 -72t13 -94q0 -58 -19 -102.5t-52 -74.5t-77 -45t-95 -15q-75 0 -122.5 29t-75 75t-38 102.5t-10.5 111.5q0 115 21 193.5t57 126.5t84.5 69t103.5 21q99 0 148.5 -41t65.5 -126l-105 -15z" />
    <glyph glyph-name="seven" unicode="7" 
d="M157 0q94 315 238 591h-351v100h479v-91q-79 -145 -137.5 -291.5t-101.5 -308.5h-127z" />
    <glyph glyph-name="eight" unicode="8" 
d="M151 191q0 -55 34.5 -86.5t110.5 -31.5q75 0 110.5 32.5t35.5 87.5q0 25 -7.5 45.5t-24.5 35.5t-45 23.5t-69 8.5q-43 0 -71 -9.5t-44.5 -25t-23 -36.5t-6.5 -44zM164 509q0 -57 31.5 -83.5t100.5 -26.5t99 28t30 84q0 22 -6.5 42t-22 35t-40 24t-60.5 9t-61.5 -9.5
t-41 -25t-22.5 -35.5t-7 -42zM152 355q-44 20 -70 60.5t-26 100.5q0 40 14 75.5t43.5 61.5t74.5 41.5t107 15.5q64 0 109.5 -15.5t74.5 -42t42 -62t13 -75.5q0 -60 -26 -99t-70 -59q22 -10 43 -25t37.5 -35.5t26 -46.5t9.5 -59q0 -95 -64.5 -152t-194.5 -57q-131 0 -194 57
t-63 152q0 32 10 58t26 46.5t36.5 35.5t41.5 24z" />
    <glyph glyph-name="nine" unicode="9" 
d="M281 335q28 0 52 8t42 25.5t28 44t10 62.5q-1 29 -9.5 55t-24 45.5t-38.5 30.5t-53 11q-59 0 -95.5 -36.5t-36.5 -105.5q0 -29 6.5 -54.5t21 -44.5t38.5 -30t59 -11zM167 163q9 -45 33.5 -65.5t80.5 -20.5q74 0 107 58t34 186q-62 -78 -167 -78q-107 0 -159.5 62.5
t-52.5 167.5q0 52 17 95.5t49 75t77 49t102 17.5q75 0 122.5 -31t75 -79t38 -106t10.5 -112q0 -109 -16 -185t-47.5 -124t-78 -69.5t-108.5 -21.5q-106 0 -162 43.5t-64 137.5h109z" />
    <glyph glyph-name="colon" unicode=":" horiz-adv-x="231" 
d="M176 520v-139h-121v139h121zM176 139v-139h-121v139h121z" />
    <glyph glyph-name="semicolon" unicode=";" horiz-adv-x="231" 
d="M182 140l-58 -235h-88l32 235h114zM176 520v-139h-121v139h121z" />
    <glyph glyph-name="less" unicode="&#x3c;" 
d="M528 588v-107l-321 -141l321 -141v-109l-453 205v88z" />
    <glyph glyph-name="equal" unicode="=" 
d="M514 502v-100h-436v100h436zM514 280v-100h-436v100h436z" />
    <glyph glyph-name="greater" unicode="&#x3e;" 
d="M384 337l-320 143v108l453 -205v-88l-453 -205v108z" />
    <glyph glyph-name="question" unicode="?" horiz-adv-x="507" 
d="M303 137v-137h-117v137h117zM189 235q0 27 7.5 49.5t20 41t28 35.5t32.5 34l29 29q20 20 34 44t14 61q0 48 -26.5 74.5t-74.5 26.5q-59 0 -89 -26.5t-44 -86.5l-105 14q7 39 24 74.5t45.5 62.5t70 42.5t99.5 15.5q104 0 161 -50.5t57 -132.5q0 -48 -14.5 -81t-35.5 -56
l-61 -61q-26 -26 -43 -53t-17 -62v-15h-112v20z" />
    <glyph glyph-name="at" unicode="@" horiz-adv-x="979" 
d="M583 246q1 7 2 11.5t-1 -0.5l1 21q0 6 0.5 12.5t-0.5 12.5q-4 38 -26 58t-58 20q-28 0 -52 -13t-42 -37.5t-28 -59.5t-10 -80q0 -58 22.5 -85.5t58.5 -27.5q30 0 52 11t37 29t24 42t14 51zM815 -51q-18 -35 -49 -65t-73.5 -52.5t-97.5 -35.5t-121 -13q-102 0 -181.5 31
t-133.5 86t-82.5 131.5t-28.5 166.5q0 120 42.5 211t109.5 152t150.5 91.5t165.5 30.5q90 0 166.5 -24.5t133 -72t88.5 -117.5t32 -161q0 -81 -20 -140t-53 -97t-75 -56.5t-85 -18.5q-50 0 -82.5 16.5t-40.5 61.5q-33 -48 -70 -66.5t-82 -18.5q-43 0 -74.5 15.5t-52.5 41.5
t-31 61t-10 73q0 61 17 113.5t47.5 90.5t73.5 59.5t94 21.5q37 0 68 -16.5t54 -53.5q2 14 5.5 29.5t5.5 29.5h102l-57 -325q-1 -4 -1 -14q0 -42 40 -42q25 0 50 13t44 41.5t31 72t12 105.5q0 75 -24 131t-67.5 92.5t-104.5 55t-134 18.5q-80 0 -148 -29.5t-118 -82
t-78.5 -126.5t-28.5 -162q0 -74 21.5 -136t64 -107t105.5 -70t145 -25q45 0 80.5 6t62.5 17.5t47.5 27t37.5 34.5h108z" />
    <glyph glyph-name="A" unicode="A" horiz-adv-x="686" 
d="M283 714h120l272 -714h-129l-67 182h-277l-66 -182h-125zM446 283l-106 294l-105 -294h211z" />
    <glyph glyph-name="B" unicode="B" horiz-adv-x="640" 
d="M76 714h247q78 0 128 -14.5t79.5 -40t40.5 -60t11 -73.5q0 -45 -20 -83.5t-73 -63.5q34 -15 56 -34t35 -40.5t18 -45t5 -47.5q0 -44 -13.5 -83t-44.5 -67.5t-81 -45t-123 -16.5h-265v714zM337 421q71 0 99 26t28 75q0 51 -32.5 73.5t-112.5 22.5h-126v-197h144zM337 97
q43 0 71.5 8t45 23t23.5 36t7 47q0 54 -30.5 82.5t-105.5 28.5h-155v-225h144z" />
    <glyph glyph-name="C" unicode="C" horiz-adv-x="712" 
d="M674 241q-6 -56 -27 -103t-58 -82t-90 -54.5t-123 -19.5q-77 0 -137.5 26t-102 74.5t-63 118t-21.5 155.5q0 88 23.5 158t66.5 118.5t103 74t132 25.5q67 0 116 -17t83.5 -48.5t55 -75.5t30.5 -98l-119 -17q-8 36 -20 64t-31.5 47.5t-47.5 30t-67 10.5q-48 0 -85 -19
t-62.5 -54.5t-38.5 -85.5t-13 -112q0 -63 13.5 -113t39.5 -85.5t62.5 -54t83.5 -18.5q42 0 71.5 11t49.5 31t31.5 48.5t16.5 64.5h128z" />
    <glyph glyph-name="D" unicode="D" horiz-adv-x="726" 
d="M314 103q63 0 107.5 18t73 52t41.5 81t13 106q0 118 -50 184.5t-164 66.5h-138v-508h117zM334 714q79 0 142 -21.5t107 -65.5t67.5 -110.5t23.5 -155.5t-25 -156.5t-72 -113t-114.5 -68.5t-152.5 -23h-234v714h258z" />
    <glyph glyph-name="E" unicode="E" horiz-adv-x="599" 
d="M76 714h475v-104h-354v-190h334v-105h-334v-211h373l-14 -104h-480v714z" />
    <glyph glyph-name="F" unicode="F" horiz-adv-x="574" 
d="M532 714v-104h-335v-202h315v-105h-315v-303h-121v714h456z" />
    <glyph glyph-name="G" unicode="G" horiz-adv-x="721" 
d="M667 379v-294q-55 -51 -130 -77t-151 -26q-83 0 -145.5 26.5t-104.5 75t-63 117.5t-21 155q0 87 23 156.5t65 118.5t102 75t134 26q65 0 113.5 -16.5t82 -45.5t54 -67.5t29.5 -82.5l-119 -17q-8 30 -19.5 53.5t-30 39.5t-45.5 24.5t-65 8.5q-50 0 -87.5 -19.5
t-62.5 -55.5t-37 -86t-12 -111q0 -63 12 -113t38 -85.5t65.5 -54.5t95.5 -19q50 0 90 10.5t77 36.5v145h-158v102h270z" />
    <glyph glyph-name="H" unicode="H" horiz-adv-x="715" 
d="M76 714h121v-289h321v289h121v-714h-121v313h-321v-313h-121v714z" />
    <glyph glyph-name="I" unicode="I" horiz-adv-x="272" 
d="M76 714h121v-714h-121v714z" />
    <glyph glyph-name="J" unicode="J" horiz-adv-x="617" 
d="M149 230q4 -33 12.5 -59.5t25 -45t42 -29t63.5 -10.5q73 0 104 42t31 120v466h121v-474q0 -128 -68.5 -193t-185.5 -65q-123 0 -190 60t-76 188h121z" />
    <glyph glyph-name="K" unicode="K" horiz-adv-x="662" 
d="M76 714h121v-314l299 314h134l-246 -268l273 -446h-137l-221 368l-102 -103v-265h-121v714z" />
    <glyph glyph-name="L" unicode="L" horiz-adv-x="573" 
d="M197 714v-609h354l-15 -105h-460v714h121z" />
    <glyph glyph-name="M" unicode="M" horiz-adv-x="853" 
d="M76 714h147l203 -568l209 568h142v-714h-111v519l-196 -519h-96l-189 518v-518h-109v714z" />
    <glyph glyph-name="N" unicode="N" horiz-adv-x="710" 
d="M76 714h112l328 -516v516h118v-714h-112l-329 514v-514h-117v714z" />
    <glyph glyph-name="O" unicode="O" horiz-adv-x="772" 
d="M387 -18q-77 0 -138.5 25.5t-105.5 73.5t-67.5 117.5t-23.5 157.5t24 158t68 118.5t106 74t137 25.5q76 0 138 -25.5t105 -73.5t66.5 -117.5t23.5 -157.5q0 -89 -23 -158.5t-66 -118t-104.5 -74t-139.5 -25.5zM386 86q103 0 156 72.5t53 198.5q0 63 -13.5 113t-39.5 85
t-65 54t-91 19t-91 -19t-65.5 -54t-39.5 -85t-13 -113q0 -126 52.5 -198.5t156.5 -72.5z" />
    <glyph glyph-name="P" unicode="P" horiz-adv-x="633" 
d="M76 714h247q81 0 133.5 -18t82.5 -48t42 -69.5t12 -82.5q0 -46 -12 -88t-42.5 -73.5t-82.5 -50t-131 -18.5h-130v-266h-119v714zM322 367q46 0 75.5 9t46.5 25.5t23.5 39.5t6.5 52q0 30 -7 52.5t-24.5 37.5t-47 23t-74.5 8h-126v-247h127z" />
    <glyph glyph-name="Q" unicode="Q" horiz-adv-x="773" 
d="M467 274l84 -103q44 67 44 186q0 62 -13 112t-39 85.5t-65 54.5t-91 19q-53 0 -92.5 -19t-65.5 -54.5t-39 -85.5t-13 -112q0 -134 54 -203.5t168 -69.5q23 0 43.5 5.5t37.5 14.5l-88 107zM549 19q-37 -18 -77 -27.5t-85 -9.5q-78 0 -140.5 26t-105.5 74.5t-66 118
t-23 155.5q0 87 23.5 157t67.5 118.5t105.5 74.5t138.5 26q78 0 140 -26t104.5 -74.5t65.5 -118t23 -155.5q0 -92 -24 -161.5t-70 -117.5l87 -106l-74 -64z" />
    <glyph glyph-name="R" unicode="R" horiz-adv-x="643" 
d="M329 384q41 0 68 8.5t42.5 24t22 37.5t6.5 49q0 25 -7.5 45.5t-25 35t-46.5 22.5t-72 8h-122v-230h134zM320 714q81 0 133.5 -19t83 -49.5t42.5 -67.5t12 -73q0 -70 -27.5 -117t-88.5 -76l148 -312h-132l-128 284q-9 -1 -19 -1.5t-21 -0.5h-128v-282h-119v714h244z" />
    <glyph glyph-name="S" unicode="S" horiz-adv-x="644" 
d="M155 218q8 -70 50.5 -102t126.5 -32q41 0 69 9t45 24t24 35.5t7 43.5q0 17 -5 33.5t-18 30.5t-35 24.5t-56 16.5l-91 17q-54 10 -96 25t-70.5 39.5t-43 60t-14.5 86.5t20.5 89t56.5 63.5t85.5 38t107.5 12.5q74 0 124 -17t81 -44.5t47 -63.5t22 -75l-114 -18
q-14 60 -48.5 89t-109.5 29q-43 0 -71.5 -7.5t-46 -21t-25 -31t-7.5 -36.5q0 -47 25.5 -70t89.5 -36l99 -19q113 -21 166 -71.5t53 -145.5q0 -45 -16.5 -83.5t-50.5 -67t-84.5 -45t-117.5 -16.5q-137 0 -215 57.5t-86 178.5h122z" />
    <glyph glyph-name="T" unicode="T" horiz-adv-x="610" 
d="M245 609h-226v105h572v-105h-225v-609h-121v609z" />
    <glyph glyph-name="U" unicode="U" horiz-adv-x="688" 
d="M185 714v-428q0 -101 36.5 -150.5t123.5 -49.5q86 0 121.5 49.5t35.5 150.5v428h121v-428q0 -83 -20 -140.5t-57 -94t-88 -53t-114 -16.5q-137 0 -208 73.5t-71 233.5v425h120z" />
    <glyph glyph-name="V" unicode="V" horiz-adv-x="682" 
d="M146 714l196 -550l199 550h129l-271 -714h-116l-272 714h135z" />
    <glyph glyph-name="W" unicode="W" horiz-adv-x="950" 
d="M147 714l132 -542l136 538h129l138 -537l128 541h129l-197 -714h-121l-145 562l-143 -562h-117l-205 714h136z" />
    <glyph glyph-name="X" unicode="X" horiz-adv-x="661" 
d="M259 377l-232 337h138l164 -250l166 250h130l-230 -342l258 -372h-139l-190 282l-184 -282h-131z" />
    <glyph glyph-name="Y" unicode="Y" horiz-adv-x="635" 
d="M260 297l-248 417h135l172 -310l176 310h128l-243 -417v-297h-120v297z" />
    <glyph glyph-name="Z" unicode="Z" horiz-adv-x="586" 
d="M27 90l384 520h-377v104h520v-91l-383 -518h397l-14 -105h-527v90z" />
    <glyph glyph-name="bracketleft" unicode="[" horiz-adv-x="308" 
d="M298 734v-97h-109v-664h109v-97h-224v858h224z" />
    <glyph glyph-name="backslash" unicode="\" horiz-adv-x="357" 
d="M350 0h-113l-230 734h112z" />
    <glyph glyph-name="bracketright" unicode="]" horiz-adv-x="308" 
d="M120 -27v664h-110v97h225v-858h-225v97h110z" />
    <glyph glyph-name="asciicircum" unicode="^" 
d="M342 712l203 -413h-119l-131 279l-132 -279h-117l203 413h93z" />
    <glyph glyph-name="underscore" unicode="_" horiz-adv-x="500" 
d="M500 -123v-52h-500v52h500z" />
    <glyph glyph-name="grave" unicode="`" horiz-adv-x="581" 
d="M298 741l117 -148h-107l-143 148h133z" />
    <glyph glyph-name="a" unicode="a" horiz-adv-x="549" 
d="M305 243q-51 -3 -82.5 -11t-48.5 -20.5t-22.5 -29t-5.5 -35.5q0 -34 21.5 -53t63.5 -19q75 0 111 38t36 103v30zM380 68q-29 -35 -71 -58t-102 -23q-37 0 -69 9.5t-55.5 28.5t-37 48.5t-13.5 69.5q0 54 24 87.5t62.5 52.5t86.5 26.5t96 9.5l77 4v22q0 59 -28.5 81.5
t-74.5 22.5q-53 0 -78.5 -18t-33.5 -52l-104 11q14 76 69 111t151 35q62 0 102.5 -16t64.5 -44t33.5 -66.5t9.5 -84.5v-325h-109v68z" />
    <glyph glyph-name="b" unicode="b" horiz-adv-x="610" 
d="M177 243q1 -50 12.5 -82t30 -51t42.5 -26t50 -7q28 0 52 10t42 31.5t28 56.5t10 86q0 49 -10.5 83.5t-27.5 56t-40.5 31.5t-48.5 10q-37 0 -63.5 -12t-43.5 -34t-25 -52.5t-8 -67.5v-25v-8zM178 714v-262q31 41 71.5 62.5t94.5 21.5q56 0 97 -20t68 -56t40.5 -86.5
t13.5 -111.5q0 -64 -16 -115.5t-46 -87.5t-72 -55.5t-94 -19.5q-47 0 -87 18t-73 60v-62h-110v714h113z" />
    <glyph glyph-name="c" unicode="c" horiz-adv-x="564" 
d="M523 182q-10 -93 -66.5 -145.5t-161.5 -52.5q-63 0 -109.5 19.5t-77.5 55.5t-46 86.5t-15 112.5t17 113.5t49.5 88t79.5 56.5t107 20q55 0 93 -14.5t63 -39t39 -56.5t20 -67l-113 -17q-8 44 -30.5 73t-75.5 29q-38 0 -63 -16t-40 -41.5t-21.5 -58.5t-6.5 -67q0 -39 7 -73
t22 -58.5t40 -39t61 -14.5q52 0 79 27.5t34 78.5h115z" />
    <glyph glyph-name="d" unicode="d" horiz-adv-x="609" 
d="M432 271q0 49 -10.5 82.5t-29 53t-43 28t-51.5 8.5q-63 0 -97.5 -45t-34.5 -137q0 -50 9.5 -85t27 -57t40.5 -32t50 -10q62 0 100.5 40.5t38.5 126.5v27zM433 72q-32 -44 -72.5 -66t-94.5 -22q-56 0 -97 20t-68 56.5t-40.5 87t-13.5 111.5q0 57 14 106.5t41 86t66.5 58.5
t91.5 24q10 1 20 0.5t21 -1.5q35 -4 67.5 -19.5t62.5 -51.5v252h113v-714h-111v72z" />
    <glyph glyph-name="e" unicode="e" horiz-adv-x="580" 
d="M527 154q-14 -81 -69 -125.5t-158 -44.5q-124 0 -188.5 71.5t-64.5 201.5q0 67 18.5 119t52 87.5t80 54t102.5 18.5q60 0 104 -18.5t73 -52t43 -80t14 -103.5v-50h-373q2 -71 36 -115t103 -44q54 0 81 21t36 60h110zM423 311q0 64 -30 101t-96 37q-63 0 -96 -37.5
t-38 -100.5h260z" />
    <glyph glyph-name="f" unicode="f" horiz-adv-x="356" 
d="M97 430h-81v90h81v30q0 82 45 127t125 45q53 0 98 -14l-17 -85q-30 9 -60 9q-37 0 -57 -20t-20 -59v-33h126v-90h-126v-430h-114v430z" />
    <glyph glyph-name="g" unicode="g" horiz-adv-x="609" 
d="M182 -40q9 -42 35.5 -58.5t86.5 -16.5q46 0 74 18t40.5 55t12.5 102v35q-28 -40 -70 -61t-95 -21q-105 0 -162 69t-57 191q0 119 62 191t166 72q98 0 159 -79v63h111v-442q0 -150 -58 -216.5t-183 -66.5q-113 0 -169.5 39.5t-66.5 125.5h114zM432 279q0 81 -34 122.5
t-100 41.5q-62 0 -97 -43.5t-35 -125.5q0 -81 33.5 -125.5t93.5 -44.5q66 0 102.5 41.5t36.5 117.5v16z" />
    <glyph glyph-name="h" unicode="h" horiz-adv-x="581" 
d="M178 714v-266q33 45 76.5 66.5t92.5 21.5q174 0 174 -192v-344h-114v326q0 63 -23 88.5t-68 25.5q-31 0 -56.5 -11t-43.5 -29t-28 -41.5t-10 -48.5v-310h-113v714h113z" />
    <glyph glyph-name="i" unicode="i" horiz-adv-x="246" 
d="M182 714v-113h-118v113h118zM180 520v-520h-114v520h114z" />
    <glyph glyph-name="j" unicode="j" horiz-adv-x="246" 
d="M-61 -82q30 -9 64 -9q38 0 50.5 25t12.5 73v513h114v-524q0 -88 -36.5 -134.5t-120.5 -46.5q-53 0 -101 16zM182 714v-113h-118v113h118z" />
    <glyph glyph-name="k" unicode="k" horiz-adv-x="550" 
d="M176 714v-395l222 201h133l-188 -177l205 -343h-125l-162 278l-85 -76v-202h-111v714h111z" />
    <glyph glyph-name="l" unicode="l" horiz-adv-x="246" 
d="M180 714v-714h-114v714h114z" />
    <glyph glyph-name="m" unicode="m" horiz-adv-x="868" 
d="M175 520v-75q54 75 128 87q19 3 40 3q53 -2 86 -26.5t48 -66.5q69 94 170 94q83 0 122 -46t39 -147v-343h-114v312q0 38 -5 63t-14.5 39.5t-24.5 20t-34 5.5q-30 0 -53 -11t-38.5 -29t-23.5 -40.5t-8 -46.5v-313h-114v323q0 67 -20.5 92t-56.5 25q-15 0 -36 -6.5
t-40.5 -21.5t-33.5 -40t-14 -61v-311h-113v520h110z" />
    <glyph glyph-name="n" unicode="n" horiz-adv-x="581" 
d="M175 520v-76q35 48 78.5 70t93.5 22q174 0 174 -192v-344h-114v326q0 63 -23 88.5t-68 25.5q-30 0 -55.5 -10.5t-43.5 -28.5t-28.5 -41.5t-10.5 -49.5v-310h-113v520h110z" />
    <glyph glyph-name="o" unicode="o" horiz-adv-x="609" 
d="M304 76q72 0 105.5 49.5t33.5 135.5q0 85 -33.5 134t-105.5 49t-105.5 -49.5t-33.5 -133.5q0 -85 32.5 -135t106.5 -50zM303 -16q-122 0 -189 72t-67 204q0 62 17.5 113t50.5 87t81 56t109 20q62 0 110 -20.5t80.5 -56.5t49 -86.5t16.5 -110.5q0 -68 -19 -119.5
t-53.5 -87t-81.5 -53.5t-104 -18z" />
    <glyph glyph-name="p" unicode="p" horiz-adv-x="610" 
d="M64 520h111v-72q32 43 73.5 65.5t95.5 22.5q55 0 96 -19.5t68.5 -55.5t41 -86.5t13.5 -112.5q0 -63 -16 -114.5t-45.5 -88t-71.5 -56t-95 -19.5q-42 0 -82 16t-75 59v-253h-114v714zM177 251q0 -51 11 -84.5t29.5 -53.5t43 -28t51.5 -8q28 0 52 10t42 32t28 57t10 85
q0 51 -10.5 85.5t-28 56t-40.5 30.5t-48 9q-61 0 -100.5 -40t-39.5 -126v-25z" />
    <glyph glyph-name="q" unicode="q" horiz-adv-x="610" 
d="M431 69q-28 -40 -71 -62.5t-93 -22.5q-106 0 -163 72.5t-57 202.5q0 83 27.5 145.5t79 97t122.5 34.5q97 0 158 -79v63h111v-714h-114v263zM433 271q0 49 -11.5 83t-35.5 58q-32 31 -88 31q-63 0 -97 -47t-34 -135q0 -90 33 -137t93 -47q28 0 49.5 7.5t40.5 23.5
q50 42 50 136v27z" />
    <glyph glyph-name="r" unicode="r" horiz-adv-x="393" 
d="M175 520v-77q27 41 65 63t81 22q17 0 28.5 -1t22.5 -3l-13 -104q-11 3 -24 4t-27 1q-32 0 -56 -10.5t-40.5 -27.5t-25 -38.5t-8.5 -43.5v-305h-113v520h110z" />
    <glyph glyph-name="s" unicode="s" horiz-adv-x="530" 
d="M143 159q3 -26 14 -42.5t27.5 -26.5t38.5 -13.5t47 -3.5q57 0 82 17t25 50q0 26 -15.5 44t-63.5 26q-62 11 -109 21t-79 27.5t-48 45t-16 74.5q0 36 16 65.5t44.5 50t68 31.5t86.5 11q60 0 100 -12t65 -33t38 -48t20 -57l-102 -14q-12 39 -36.5 58t-81.5 19q-33 0 -54 -6
t-33.5 -15t-17 -20t-4.5 -22q0 -17 4 -28t14.5 -18t28.5 -12t45 -10l65 -11q52 -9 86.5 -23t55 -34.5t28.5 -47.5t8 -60q0 -71 -54 -114.5t-164 -43.5q-45 0 -86.5 8.5t-74.5 28.5t-53.5 53.5t-23.5 84.5h109z" />
    <glyph glyph-name="t" unicode="t" horiz-adv-x="363" 
d="M14 430v90h82v140h113v-140h129v-90h-129v-272q0 -40 16.5 -58t48.5 -18q17 0 32.5 2t30.5 7l17 -85q-48 -16 -104 -16q-86 0 -120 44.5t-34 133.5v262h-82z" />
    <glyph glyph-name="u" unicode="u" horiz-adv-x="574" 
d="M174 520v-327q0 -65 21.5 -89t65.5 -24q24 0 48.5 9t43.5 26t31 41t12 54v310h114v-520h-111v76q-36 -48 -78 -70t-90 -22q-91 0 -130.5 47t-39.5 144v345h113z" />
    <glyph glyph-name="v" unicode="v" horiz-adv-x="544" 
d="M139 520l135 -392l137 392h126l-207 -520h-117l-206 520h132z" />
    <glyph glyph-name="w" unicode="w" horiz-adv-x="753" 
d="M131 520l88 -380l110 376h104l106 -376l88 380h119l-152 -520h-113l-105 378l-106 -378h-112l-151 520h124z" />
    <glyph glyph-name="x" unicode="x" horiz-adv-x="525" 
d="M27 520h134l106 -166l114 166h119l-169 -245l185 -275h-132l-124 190l-126 -190h-124l189 270z" />
    <glyph glyph-name="y" unicode="y" horiz-adv-x="545" 
d="M71 -92q25 -9 57 -9q30 0 47 14.5t32 54.5l19 50l-219 502h132l143 -375l131 375h124l-207 -525q-18 -46 -34 -81t-36 -59t-47.5 -36.5t-67.5 -12.5q-26 0 -48 3.5t-47 11.5z" />
    <glyph glyph-name="z" unicode="z" horiz-adv-x="484" 
d="M310 430h-272v90h415v-80l-277 -350h291l-13 -90h-422v80z" />
    <glyph glyph-name="braceleft" unicode="{" horiz-adv-x="310" 
d="M96 598q0 42 11.5 68.5t33.5 41.5t52 20.5t68 5.5h44v-95h-46q-34 0 -44.5 -20t-10.5 -49v-158q0 -38 -11.5 -66t-49.5 -41q34 -11 47.5 -36.5t13.5 -57.5v-171q0 -29 10.5 -49t44.5 -20h46v-95h-44q-38 0 -68 5.5t-52 20.5t-33.5 41.5t-11.5 68.5v167q0 38 -14.5 58
t-50.5 20h-6v96h6q35 0 50 19.5t15 52.5v173z" />
    <glyph glyph-name="bar" unicode="|" horiz-adv-x="252" 
d="M180 734v-858h-108v858h108z" />
    <glyph glyph-name="braceright" unicode="}" horiz-adv-x="310" 
d="M214 425q0 -33 15 -52.5t50 -19.5h6v-96h-6q-36 0 -50.5 -20t-14.5 -58v-167q0 -42 -11.5 -68.5t-33.5 -41.5t-52.5 -20.5t-67.5 -5.5h-44v95h46q34 0 44.5 20t10.5 49v171q0 32 13.5 57.5t47.5 36.5q-38 13 -49.5 41t-11.5 66v158q0 29 -10.5 49t-44.5 20h-46v95h44
q37 0 67.5 -5.5t52.5 -20.5t33.5 -41.5t11.5 -68.5v-173z" />
    <glyph glyph-name="asciitilde" unicode="~" 
d="M36 238q0 53 10.5 89.5t30 59.5t48 33.5t64.5 10.5q34 0 61.5 -14t51.5 -30.5t46 -30.5t44 -14q32 0 46.5 19.5t14.5 62.5h101q0 -104 -39.5 -148.5t-111.5 -44.5q-34 0 -62 14t-52 31.5t-45.5 31.5t-43.5 14q-32 0 -47 -20t-15 -64h-102z" />
    <glyph glyph-name="uni00A0" unicode="&#xa0;" horiz-adv-x="223" 
 />
    <glyph glyph-name="exclamdown" unicode="&#xa1;" horiz-adv-x="252" 
d="M184 520v-138h-116v138h116zM178 304l9 -498h-122l8 498h105z" />
    <glyph glyph-name="cent" unicode="&#xa2;" 
d="M280 528q-30 -6 -49 -23t-30.5 -41t-16 -53t-4.5 -59q0 -29 4.5 -58t15.5 -53.5t30.5 -42t49.5 -23.5v353zM280 81q-110 11 -163 81.5t-53 186.5q0 55 14 102t41.5 83t68 59t92.5 29v91h60v-90q48 -3 82 -18t57.5 -38t36.5 -53.5t19 -64.5l-112 -19q-6 38 -25 64.5
t-58 34.5v-355q51 9 63 66q26 5 47.5 14.5t40.5 21.5h51q-11 -86 -59.5 -138t-142.5 -58v-90h-60v91z" />
    <glyph glyph-name="sterling" unicode="&#xa3;" 
d="M82 85q32 37 45 76t13 87q0 13 -1.5 25t-3.5 29h-75v90h64q-4 22 -7 45t-3 52q0 56 17 97.5t46.5 69t68.5 41t84 13.5q59 0 97.5 -14.5t62 -38.5t35 -54t17.5 -61l-98 -17q-6 22 -14 39.5t-20.5 28.5t-30.5 17t-44 6q-60 0 -87 -34t-27 -89q0 -19 1 -34.5t3 -26.5l6 -40
h218v-90h-206q1 -9 2 -17t1 -15q0 -45 -8.5 -89.5t-37.5 -81.5h358l-14 -99h-463q0 21 0.5 42.5t0.5 42.5z" />
    <glyph glyph-name="currency" unicode="&#xa4;" 
d="M295 181q69 0 99 44t30 113q0 70 -30 114t-99 44q-36 0 -61 -12.5t-40.5 -34t-22 -50t-6.5 -61.5q0 -70 30 -113.5t100 -43.5zM109 191q-40 63 -40 146q0 42 10.5 79t30.5 69l-60 61l70 67l61 -67q24 15 52.5 24t63.5 9q31 0 60 -8.5t54 -24.5l61 67l69 -67l-59 -61
q19 -32 29 -68t10 -77q0 -43 -10.5 -80.5t-29.5 -66.5l60 -63l-69 -66l-61 66q-25 -15 -54 -23.5t-61 -8.5q-35 0 -63 8t-53 23l-60 -65l-70 66z" />
    <glyph glyph-name="yen" unicode="&#xa5;" 
d="M242 228v68l-7 14h-168v83h117l-167 298h122l160 -305l162 305h114l-166 -298h120v-83h-170l-6 -14v-68h176v-82h-176v-146h-111v146h-175v82h175z" />
    <glyph glyph-name="brokenbar" unicode="&#xa6;" horiz-adv-x="252" 
d="M180 229v-353h-108v353h108zM180 734v-336h-108v336h108z" />
    <glyph glyph-name="section" unicode="&#xa7;" horiz-adv-x="543" 
d="M259 223q8 -2 16 -4.5t17 -2.5q10 -2 21 0q35 1 62.5 20t27.5 62q0 30 -18 53t-68 37l-47 12q-11 2 -21.5 3.5t-21.5 0.5q-35 -2 -58 -24t-23 -61q0 -23 6.5 -38t20.5 -25.5t35 -18t51 -14.5zM150 70q7 -60 40.5 -80t88.5 -20q62 0 85.5 19t23.5 51q0 13 -3 24.5
t-12 21.5t-26 19t-45 17l-89 22q-48 11 -79.5 26.5t-51 36.5t-27.5 48t-8 60q0 43 23.5 75.5t68.5 52.5q-42 17 -65.5 48.5t-23.5 84.5q0 36 16 65t45 49.5t70.5 31t92.5 10.5q60 0 100 -13t66 -34.5t39.5 -48.5t21.5 -54l-103 -24q-16 45 -43.5 63.5t-80.5 18.5
q-54 0 -78 -15t-29 -36q-6 -13 -4 -29q1 -16 11.5 -29.5t33.5 -21.5l40 -13l102 -26q80 -21 115 -57t37 -91v-13.5t-1 -13.5q-5 -41 -26.5 -70.5t-65.5 -48.5q43 -21 66.5 -53t23.5 -83q0 -42 -16.5 -72t-45.5 -50t-69 -29.5t-86 -9.5q-53 0 -95.5 10t-74 32.5t-50.5 59
t-24 89.5h112z" />
    <glyph glyph-name="dieresis" unicode="&#xa8;" horiz-adv-x="581" 
d="M439 724v-112h-109v112h109zM250 724v-112h-109v112h109z" />
    <glyph glyph-name="copyright" unicode="&#xa9;" horiz-adv-x="775" 
d="M563 303q-7 -71 -50.5 -111t-123.5 -40q-48 0 -83.5 15.5t-58.5 42.5t-34 64.5t-11 81.5q0 45 13 82.5t37.5 64.5t60 42.5t81.5 15.5q75 0 114.5 -36.5t49.5 -96.5l-88 -15q-8 33 -24.5 55t-54.5 22q-29 0 -48 -12t-30 -31t-15.5 -42.5t-4.5 -47.5q0 -27 5 -51t16 -42
t30 -29t46 -11q74 0 83 79h90zM388 65q56 0 105 20t85 57.5t57 91.5t21 123q0 66 -20.5 120t-56.5 92t-85 58.5t-106 20.5q-64 0 -114.5 -22.5t-85 -61.5t-52.5 -92.5t-18 -114.5q0 -68 20 -122.5t56 -92t85.5 -57.5t108.5 -20zM388 0q-78 0 -141.5 26t-108.5 73.5t-69 113
t-24 144.5q0 81 27 147t74 112.5t109 72t133 25.5q77 0 140 -26t107.5 -73t69 -113t24.5 -145q0 -84 -27.5 -150.5t-74.5 -112t-109 -70t-130 -24.5z" />
    <glyph glyph-name="ordfeminine" unicode="&#xaa;" horiz-adv-x="425" 
d="M239 517q-35 -3 -57 -7.5t-35 -12t-18 -18t-5 -23.5q-1 -11 4 -23q6 -34 56 -34q48 0 77 24t29 71v26zM291 387q-23 -27 -53 -42t-72 -15q-60 0 -96 29.5t-36 86.5q0 41 18.5 66t47.5 39t65 19.5t71 7.5l53 2v11q0 39 -18.5 56.5t-55.5 17.5q-42 0 -58.5 -15t-21.5 -36
l-80 9q11 57 51.5 83t112.5 26q47 0 77.5 -12t48 -32.5t24.5 -49t7 -61.5v-237h-85v47z" />
    <glyph glyph-name="guillemotleft" unicode="&#xab;" horiz-adv-x="522" 
d="M172 481h115l-120 -222l120 -228h-117l-131 227zM382 481h115l-120 -222l120 -228h-117l-131 227z" />
    <glyph glyph-name="logicalnot" unicode="&#xac;" 
d="M510 436v-268h-102v170h-339v98h441z" />
    <glyph glyph-name="uni00AD" unicode="&#xad;" horiz-adv-x="390" 
d="M343 352v-113h-296v113h296z" />
    <glyph glyph-name="registered" unicode="&#xae;" horiz-adv-x="486" 
d="M242 342q70 0 114 44t44 128q0 81 -43 126.5t-115 45.5t-114.5 -45.5t-42.5 -126.5q0 -83 42.5 -127.5t114.5 -44.5zM242 296q-49 0 -88 16t-66 44.5t-41.5 68.5t-14.5 89q0 51 16.5 91.5t45 68.5t67 43t81.5 15q47 0 86 -15.5t67 -44t43.5 -68.5t15.5 -90
q0 -54 -17.5 -95t-47 -68t-68 -41t-79.5 -14zM244 529q23 0 29.5 8.5t6.5 20.5q0 11 -9 18t-33 7h-30v-54h36zM239 622q28 0 46 -5.5t28 -14.5t13.5 -20.5t3.5 -22.5q0 -23 -7.5 -36t-26.5 -23l44 -86h-55l-36 75h-41v-75h-49v208h80z" />
    <glyph glyph-name="macron" unicode="&#xaf;" horiz-adv-x="581" 
d="M428 706v-89h-276v89h276z" />
    <glyph glyph-name="degree" unicode="&#xb0;" horiz-adv-x="340" 
d="M171 498q30 0 48.5 19.5t18.5 52.5q0 31 -18.5 51t-48.5 20q-32 0 -50.5 -20t-18.5 -51q0 -34 18.5 -53t50.5 -19zM28 570q0 30 10.5 55.5t29.5 44t45.5 29.5t57.5 11q30 0 55.5 -10.5t44.5 -29.5t30 -44.5t11 -55.5q0 -33 -11.5 -59.5t-31 -44.5t-45 -28t-53.5 -10
q-33 0 -59.5 11.5t-45 31t-28.5 45t-10 54.5z" />
    <glyph glyph-name="plusminus" unicode="&#xb1;" 
d="M78 99h167v192h-184v99h184v198h102v-198h184v-99h-184v-192h167v-99h-436v99z" />
    <glyph glyph-name="twosuperior" unicode="&#xb2;" horiz-adv-x="412" 
d="M67 362q15 13 35.5 29t58.5 48l41 35q29 26 44.5 49t15.5 55q0 25 -15 40t-41 15q-31 0 -48.5 -15.5t-25.5 -53.5l-86 11q6 24 16 48t29 42.5t48 30.5t71 12q69 0 106 -35t37 -90q0 -49 -28.5 -89.5t-81.5 -84.5l-21 -16l-33 -27h169l-11 -76h-289v64z" />
    <glyph glyph-name="threesuperior" unicode="&#xb3;" horiz-adv-x="412" 
d="M132 416q4 -39 23 -56.5t54 -17.5q33 0 53 14t20 50q0 32 -22 44t-51 12h-41v68h45q29 0 45.5 15t16.5 42q0 53 -66 53q-32 0 -49.5 -15.5t-25.5 -49.5l-79 12q4 24 15 45.5t29.5 38.5t46 27t65.5 10q75 0 110 -32.5t35 -81.5q0 -32 -15 -53.5t-39 -38.5q32 -14 48 -39.5
t16 -55.5q0 -60 -36.5 -96.5t-117.5 -36.5q-45 0 -75 13t-48.5 33t-27 45.5t-8.5 50.5h79z" />
    <glyph glyph-name="acute" unicode="&#xb4;" horiz-adv-x="581" 
d="M415 741l-143 -148h-107l117 148h133z" />
    <glyph glyph-name="mu" unicode="&#xb5;" horiz-adv-x="578" 
d="M178 520v-322q0 -63 19.5 -90.5t70.5 -27.5q15 0 28 2.5t26 9.5q12 6 25.5 16t25.5 24t19.5 32t7.5 41v315h114v-520h-111v75q-58 -88 -144 -88q-23 0 -44 5t-37 24v-210h-113v714h113z" />
    <glyph glyph-name="paragraph" unicode="&#xb6;" horiz-adv-x="632" 
d="M243 279q-63 4 -106 23t-69.5 48t-38 66.5t-11.5 79.5t13 81t46 69.5t89 49t142 18.5h256v-853h-110v759h-102v-759h-109v418z" />
    <glyph glyph-name="periodcentered" unicode="&#xb7;" horiz-adv-x="231" 
d="M176 442v-139h-121v139h121z" />
    <glyph glyph-name="cedilla" unicode="&#xb8;" horiz-adv-x="581" 
d="M197 -147q17 -2 28 -3t22 -1h15q45 0 45 31q0 16 -13 22.5t-44 7.5h-34l36 96h67l-20 -54q50 -5 70.5 -28t20.5 -53q0 -46 -36.5 -64.5t-95.5 -18.5q-15 0 -31.5 1t-36.5 4v61z" />
    <glyph glyph-name="onesuperior" unicode="&#xb9;" horiz-adv-x="412" 
d="M89 554l-34 63l133 75h86v-402h-91v314z" />
    <glyph glyph-name="ordmasculine" unicode="&#xba;" horiz-adv-x="425" 
d="M212 401q53 0 76 35t23 93t-23 92.5t-76 34.5t-76 -35.5t-23 -91.5q0 -60 23 -94t76 -34zM211 325q-90 0 -140.5 53.5t-50.5 150.5q0 47 13.5 84.5t39 64t60.5 40.5t79 14q89 0 140.5 -54t51.5 -148q0 -51 -15 -89.5t-41.5 -64t-61.5 -38.5t-75 -13z" />
    <glyph glyph-name="guillemotright" unicode="&#xbb;" horiz-adv-x="525" 
d="M25 481h118l130 -226l-132 -224h-116l120 223zM238 481h118l130 -226l-132 -224h-116l120 223z" />
    <glyph glyph-name="onequarter" unicode="&#xbc;" horiz-adv-x="924" 
d="M213 0l349 691h111l-349 -691h-111zM741 300l-109 -144h109v144zM743 402h79v-246h52l-10 -69h-42v-87h-81v87h-196v55zM57 554l-34 63l133 75h86v-402h-91v314z" />
    <glyph glyph-name="onehalf" unicode="&#xbd;" horiz-adv-x="924" 
d="M186 0l349 691h111l-349 -691h-111zM572 72q15 13 35.5 29t58.5 48l41 35q29 26 44.5 49t15.5 55q0 25 -15 40t-41 15q-31 0 -48.5 -15.5t-25.5 -53.5l-86 11q6 24 16 48t29 42.5t48 30.5t71 12q69 0 106 -35t37 -90q0 -49 -28.5 -89.5t-81.5 -84.5l-21 -16l-33 -27h169
l-11 -76h-289v64zM57 554l-34 63l133 75h86v-402h-91v314z" />
    <glyph glyph-name="threequarters" unicode="&#xbe;" horiz-adv-x="924" 
d="M260 0l349 691h111l-349 -691h-111zM741 300l-109 -144h109v144zM743 402h79v-246h52l-10 -69h-42v-87h-81v87h-196v55zM132 416q4 -39 23 -56.5t54 -17.5q33 0 53 14t20 50q0 32 -22 44t-51 12h-41v68h45q29 0 45.5 15t16.5 42q0 53 -66 53q-32 0 -49.5 -15.5
t-25.5 -49.5l-79 12q4 24 15 45.5t29.5 38.5t46 27t65.5 10q75 0 110 -32.5t35 -81.5q0 -32 -15 -53.5t-39 -38.5q32 -14 48 -39.5t16 -55.5q0 -60 -36.5 -96.5t-117.5 -36.5q-45 0 -75 13t-48.5 33t-27 45.5t-8.5 50.5h79z" />
    <glyph glyph-name="questiondown" unicode="&#xbf;" horiz-adv-x="497" 
d="M307 520v-138h-117v138h117zM476 -15q-9 -39 -26 -73.5t-44.5 -60.5t-68.5 -41t-98 -15q-105 0 -162 50t-57 133q0 31 6 54.5t17 42.5t25 35t31 33l35 34q24 24 41 50.5t17 61.5v15h112v-19q0 -42 -16.5 -71.5t-40.5 -55.5q-23 -24 -42.5 -43t-34 -37t-23.5 -38.5
t-9 -48.5q-1 -47 26 -73.5t76 -26.5q58 0 88.5 26.5t44.5 86.5l104 -14z" />
    <glyph glyph-name="Agrave" unicode="&#xc0;" horiz-adv-x="686" 
d="M283 714h120l272 -714h-129l-67 182h-277l-66 -182h-125zM446 283l-106 294l-105 -294h211zM427 773h-109l-149 139h136z" />
    <glyph glyph-name="Aacute" unicode="&#xc1;" horiz-adv-x="686" 
d="M283 714h120l272 -714h-129l-67 182h-277l-66 -182h-125zM446 283l-106 294l-105 -294h211zM516 912l-149 -139h-109l123 139h135z" />
    <glyph glyph-name="Acircumflex" unicode="&#xc2;" horiz-adv-x="686" 
d="M283 714h120l272 -714h-129l-67 182h-277l-66 -182h-125zM446 283l-106 294l-105 -294h211zM399 912l118 -139h-101l-74 75l-74 -75h-101l118 139h114z" />
    <glyph glyph-name="Atilde" unicode="&#xc3;" horiz-adv-x="686" 
d="M283 714h120l272 -714h-129l-67 182h-277l-66 -182h-125zM446 283l-106 294l-105 -294h211zM154 776q0 67 30.5 98.5t84.5 31.5q20 0 37.5 -7.5t33.5 -17t32 -17t33 -7.5q43 0 43 46h82q0 -68 -30.5 -98.5t-83.5 -30.5q-20 0 -37 6t-33 15l-26 15q-11 5 -19.5 8.5
t-19.5 3.5q-24 0 -34.5 -11.5t-10.5 -34.5h-82z" />
    <glyph glyph-name="Adieresis" unicode="&#xc4;" horiz-adv-x="686" 
d="M283 714h120l272 -714h-129l-67 182h-277l-66 -182h-125zM446 283l-106 294l-105 -294h211zM495 902v-116h-112v116h112zM301 902v-116h-112v116h112z" />
    <glyph glyph-name="Aring" unicode="&#xc5;" horiz-adv-x="686" 
d="M342 737q47 0 47 50q0 26 -13 38.5t-34 12.5q-47 0 -47 -51q0 -27 12.5 -38.5t34.5 -11.5zM340 577l-105 -294h211zM276 694q-14 8 -24 21t-14 32q-8 15 -8 40q0 54 32 82.5t80 28.5q21 0 41.5 -7t36 -21t25 -34.5t9.5 -48.5q0 -32 -12.5 -55t-32.5 -36l266 -696h-129
l-67 182h-277l-66 -182h-125z" />
    <glyph glyph-name="AE" unicode="&#xc6;" horiz-adv-x="1040" 
d="M424 714h568v-104h-332v-190h312v-105h-312v-211h351l-14 -104h-454v225h-280l-128 -225h-136zM543 327v283h-59l-162 -283h221z" />
    <glyph glyph-name="Ccedilla" unicode="&#xc7;" horiz-adv-x="712" 
d="M273 -151q23 -4 38.5 -5t29.5 -1q28 0 39 8t11 22t-13 22t-50 8h-29l30 82q-66 7 -118 36.5t-87 77t-53.5 112.5t-18.5 145q0 88 23.5 158t66.5 118.5t103 74t132 25.5q67 0 116 -17t83.5 -48.5t55 -75.5t30.5 -98l-119 -17q-8 36 -20 64t-31.5 47.5t-47.5 30t-67 10.5
q-48 0 -85 -19t-62.5 -54.5t-38.5 -85.5t-13 -112q0 -63 13.5 -113t39.5 -85.5t62.5 -54t83.5 -18.5q42 0 71.5 11t49.5 31t31.5 48.5t16.5 64.5h128q-6 -53 -26 -99t-54 -80.5t-83 -55t-113 -23.5l-13 -36q29 -3 48 -11t29.5 -19t14.5 -24.5t4 -28.5q0 -47 -37.5 -67
t-101.5 -20q-14 0 -30.5 1t-38.5 4v67z" />
    <glyph glyph-name="Egrave" unicode="&#xc8;" horiz-adv-x="599" 
d="M76 714h475v-104h-354v-190h334v-105h-334v-211h373l-14 -104h-480v714zM414 773h-109l-149 139h136z" />
    <glyph glyph-name="Eacute" unicode="&#xc9;" horiz-adv-x="599" 
d="M76 714h475v-104h-354v-190h334v-105h-334v-211h373l-14 -104h-480v714zM482 912l-149 -139h-109l123 139h135z" />
    <glyph glyph-name="Ecircumflex" unicode="&#xca;" horiz-adv-x="599" 
d="M76 714h475v-104h-354v-190h334v-105h-334v-211h373l-14 -104h-480v714zM372 912l118 -139h-101l-74 75l-74 -75h-101l118 139h114z" />
    <glyph glyph-name="Edieresis" unicode="&#xcb;" horiz-adv-x="599" 
d="M76 714h475v-104h-354v-190h334v-105h-334v-211h373l-14 -104h-480v714zM468 902v-116h-112v116h112zM274 902v-116h-112v116h112z" />
    <glyph glyph-name="Igrave" unicode="&#xcc;" horiz-adv-x="272" 
d="M76 714h121v-714h-121v714zM223 773h-109l-149 139h136z" />
    <glyph glyph-name="Iacute" unicode="&#xcd;" horiz-adv-x="272" 
d="M76 714h121v-714h-121v714zM311 912l-149 -139h-109l123 139h135z" />
    <glyph glyph-name="Icircumflex" unicode="&#xce;" horiz-adv-x="272" 
d="M76 714h121v-714h-121v714zM194 912l118 -139h-101l-74 75l-74 -75h-101l118 139h114z" />
    <glyph glyph-name="Idieresis" unicode="&#xcf;" horiz-adv-x="272" 
d="M76 714h121v-714h-121v714zM290 902v-116h-112v116h112zM96 902v-116h-112v116h112z" />
    <glyph glyph-name="Eth" unicode="&#xd0;" horiz-adv-x="741" 
d="M329 103q123 0 179 68.5t56 188.5q0 59 -12.5 105.5t-38.5 79t-66.5 49.5t-96.5 17h-138v-192h167v-101h-167v-215h117zM10 318v101h81v295h259q159 0 249 -89t90 -264q0 -92 -26.5 -160t-74 -112.5t-114.5 -66.5t-148 -22h-235v318h-81z" />
    <glyph glyph-name="Ntilde" unicode="&#xd1;" horiz-adv-x="710" 
d="M76 714h112l328 -516v516h118v-714h-112l-329 514v-514h-117v714zM167 776q0 67 30.5 98.5t84.5 31.5q20 0 37.5 -7.5t33.5 -17t32 -17t33 -7.5q43 0 43 46h82q0 -68 -30.5 -98.5t-83.5 -30.5q-20 0 -37 6t-33 15l-26 15q-11 5 -19.5 8.5t-19.5 3.5q-24 0 -34.5 -11.5
t-10.5 -34.5h-82z" />
    <glyph glyph-name="Ograve" unicode="&#xd2;" horiz-adv-x="772" 
d="M387 -18q-77 0 -138.5 25.5t-105.5 73.5t-67.5 117.5t-23.5 157.5t24 158t68 118.5t106 74t137 25.5q76 0 138 -25.5t105 -73.5t66.5 -117.5t23.5 -157.5q0 -89 -23 -158.5t-66 -118t-104.5 -74t-139.5 -25.5zM386 86q103 0 156 72.5t53 198.5q0 63 -13.5 113t-39.5 85
t-65 54t-91 19t-91 -19t-65.5 -54t-39.5 -85t-13 -113q0 -126 52.5 -198.5t156.5 -72.5zM486 773h-109l-149 139h136z" />
    <glyph glyph-name="Oacute" unicode="&#xd3;" horiz-adv-x="772" 
d="M387 -18q-77 0 -138.5 25.5t-105.5 73.5t-67.5 117.5t-23.5 157.5t24 158t68 118.5t106 74t137 25.5q76 0 138 -25.5t105 -73.5t66.5 -117.5t23.5 -157.5q0 -89 -23 -158.5t-66 -118t-104.5 -74t-139.5 -25.5zM386 86q103 0 156 72.5t53 198.5q0 63 -13.5 113t-39.5 85
t-65 54t-91 19t-91 -19t-65.5 -54t-39.5 -85t-13 -113q0 -126 52.5 -198.5t156.5 -72.5zM551 912l-149 -139h-109l123 139h135z" />
    <glyph glyph-name="Ocircumflex" unicode="&#xd4;" horiz-adv-x="772" 
d="M387 -18q-77 0 -138.5 25.5t-105.5 73.5t-67.5 117.5t-23.5 157.5t24 158t68 118.5t106 74t137 25.5q76 0 138 -25.5t105 -73.5t66.5 -117.5t23.5 -157.5q0 -89 -23 -158.5t-66 -118t-104.5 -74t-139.5 -25.5zM386 86q103 0 156 72.5t53 198.5q0 63 -13.5 113t-39.5 85
t-65 54t-91 19t-91 -19t-65.5 -54t-39.5 -85t-13 -113q0 -126 52.5 -198.5t156.5 -72.5zM443 912l118 -139h-101l-74 75l-74 -75h-101l118 139h114z" />
    <glyph glyph-name="Otilde" unicode="&#xd5;" horiz-adv-x="772" 
d="M387 -18q-77 0 -138.5 25.5t-105.5 73.5t-67.5 117.5t-23.5 157.5t24 158t68 118.5t106 74t137 25.5q76 0 138 -25.5t105 -73.5t66.5 -117.5t23.5 -157.5q0 -89 -23 -158.5t-66 -118t-104.5 -74t-139.5 -25.5zM386 86q103 0 156 72.5t53 198.5q0 63 -13.5 113t-39.5 85
t-65 54t-91 19t-91 -19t-65.5 -54t-39.5 -85t-13 -113q0 -126 52.5 -198.5t156.5 -72.5zM198 776q0 67 30.5 98.5t84.5 31.5q20 0 37.5 -7.5t33.5 -17t32 -17t33 -7.5q43 0 43 46h82q0 -68 -30.5 -98.5t-83.5 -30.5q-20 0 -37 6t-33 15l-26 15q-11 5 -19.5 8.5t-19.5 3.5
q-24 0 -34.5 -11.5t-10.5 -34.5h-82z" />
    <glyph glyph-name="Odieresis" unicode="&#xd6;" horiz-adv-x="772" 
d="M387 -18q-77 0 -138.5 25.5t-105.5 73.5t-67.5 117.5t-23.5 157.5t24 158t68 118.5t106 74t137 25.5q76 0 138 -25.5t105 -73.5t66.5 -117.5t23.5 -157.5q0 -89 -23 -158.5t-66 -118t-104.5 -74t-139.5 -25.5zM386 86q103 0 156 72.5t53 198.5q0 63 -13.5 113t-39.5 85
t-65 54t-91 19t-91 -19t-65.5 -54t-39.5 -85t-13 -113q0 -126 52.5 -198.5t156.5 -72.5zM539 902v-116h-112v116h112zM345 902v-116h-112v116h112z" />
    <glyph glyph-name="multiply" unicode="&#xd7;" 
d="M76 490l69 70l151 -151l151 151l69 -70l-150 -151l147 -148l-70 -70l-147 148l-148 -148l-69 70l147 148z" />
    <glyph glyph-name="Oslash" unicode="&#xd8;" horiz-adv-x="772" 
d="M496 597q-24 15 -51 23t-59 8q-53 0 -92.5 -19t-65.5 -54.5t-38.5 -85.5t-12.5 -112q0 -56 10 -101t31 -79zM267 121q47 -35 119 -35q104 0 156.5 71.5t52.5 199.5q0 119 -47 190zM149 73q-97 97 -97 283q0 89 24 159t68 118t106 73.5t137 25.5q48 0 90.5 -11t79.5 -31
l52 78l59 -39l-53 -81q51 -49 78 -122.5t27 -167.5q0 -90 -23.5 -160t-67 -118t-105 -73t-137.5 -25q-54 0 -98.5 12t-82.5 35l-55 -83l-60 39z" />
    <glyph glyph-name="Ugrave" unicode="&#xd9;" horiz-adv-x="688" 
d="M185 714v-428q0 -101 36.5 -150.5t123.5 -49.5q86 0 121.5 49.5t35.5 150.5v428h121v-428q0 -83 -20 -140.5t-57 -94t-88 -53t-114 -16.5q-137 0 -208 73.5t-71 233.5v425h120zM435 773h-109l-149 139h136z" />
    <glyph glyph-name="Uacute" unicode="&#xda;" horiz-adv-x="688" 
d="M185 714v-428q0 -101 36.5 -150.5t123.5 -49.5q86 0 121.5 49.5t35.5 150.5v428h121v-428q0 -83 -20 -140.5t-57 -94t-88 -53t-114 -16.5q-137 0 -208 73.5t-71 233.5v425h120zM517 912l-149 -139h-109l123 139h135z" />
    <glyph glyph-name="Ucircumflex" unicode="&#xdb;" horiz-adv-x="688" 
d="M185 714v-428q0 -101 36.5 -150.5t123.5 -49.5q86 0 121.5 49.5t35.5 150.5v428h121v-428q0 -83 -20 -140.5t-57 -94t-88 -53t-114 -16.5q-137 0 -208 73.5t-71 233.5v425h120zM400 912l118 -139h-101l-74 75l-74 -75h-101l118 139h114z" />
    <glyph glyph-name="Udieresis" unicode="&#xdc;" horiz-adv-x="688" 
d="M185 714v-428q0 -101 36.5 -150.5t123.5 -49.5q86 0 121.5 49.5t35.5 150.5v428h121v-428q0 -83 -20 -140.5t-57 -94t-88 -53t-114 -16.5q-137 0 -208 73.5t-71 233.5v425h120zM496 902v-116h-112v116h112zM302 902v-116h-112v116h112z" />
    <glyph glyph-name="Yacute" unicode="&#xdd;" horiz-adv-x="635" 
d="M260 297l-248 417h135l172 -310l176 310h128l-243 -417v-297h-120v297zM493 912l-149 -139h-109l123 139h135z" />
    <glyph glyph-name="Thorn" unicode="&#xde;" horiz-adv-x="633" 
d="M322 239q46 0 75.5 9t46.5 25.5t23.5 39.5t6.5 52t-7 51.5t-24 37.5t-47 23t-75 8h-126v-246h127zM195 714v-128h128q80 0 132.5 -18t83 -48t42.5 -69.5t12 -82.5q0 -48 -13 -90t-44 -73t-82.5 -49t-128.5 -18h-130v-138h-119v714h119z" />
    <glyph glyph-name="germandbls" unicode="&#xdf;" horiz-adv-x="590" 
d="M65 509q0 98 59 155.5t160 57.5q104 0 160 -45.5t56 -130.5q0 -104 -87 -151q69 -18 105.5 -67.5t36.5 -126.5q0 -100 -56 -155.5t-160 -55.5q-60 0 -107 16l17 86q38 -12 75 -12q61 0 90 30t29 98q0 64 -38 94.5t-118 30.5h-39v89h36q105 0 105 113q0 49 -26 74.5
t-76 25.5q-56 0 -84.5 -34t-28.5 -100v-501h-109v509z" />
    <glyph glyph-name="agrave" unicode="&#xe0;" horiz-adv-x="549" 
d="M305 243q-51 -3 -82.5 -11t-48.5 -20.5t-22.5 -29t-5.5 -35.5q0 -34 21.5 -53t63.5 -19q75 0 111 38t36 103v30zM380 68q-29 -35 -71 -58t-102 -23q-37 0 -69 9.5t-55.5 28.5t-37 48.5t-13.5 69.5q0 54 24 87.5t62.5 52.5t86.5 26.5t96 9.5l77 4v22q0 59 -28.5 81.5
t-74.5 22.5q-53 0 -78.5 -18t-33.5 -52l-104 11q14 76 69 111t151 35q62 0 102.5 -16t64.5 -44t33.5 -66.5t9.5 -84.5v-325h-109v68zM258 741l117 -148h-107l-143 148h133z" />
    <glyph glyph-name="aacute" unicode="&#xe1;" horiz-adv-x="549" 
d="M305 243q-51 -3 -82.5 -11t-48.5 -20.5t-22.5 -29t-5.5 -35.5q0 -34 21.5 -53t63.5 -19q75 0 111 38t36 103v30zM380 68q-29 -35 -71 -58t-102 -23q-37 0 -69 9.5t-55.5 28.5t-37 48.5t-13.5 69.5q0 54 24 87.5t62.5 52.5t86.5 26.5t96 9.5l77 4v22q0 59 -28.5 81.5
t-74.5 22.5q-53 0 -78.5 -18t-33.5 -52l-104 11q14 76 69 111t151 35q62 0 102.5 -16t64.5 -44t33.5 -66.5t9.5 -84.5v-325h-109v68zM442 741l-143 -148h-107l117 148h133z" />
    <glyph glyph-name="acircumflex" unicode="&#xe2;" horiz-adv-x="549" 
d="M305 243q-51 -3 -82.5 -11t-48.5 -20.5t-22.5 -29t-5.5 -35.5q0 -34 21.5 -53t63.5 -19q75 0 111 38t36 103v30zM380 68q-29 -35 -71 -58t-102 -23q-37 0 -69 9.5t-55.5 28.5t-37 48.5t-13.5 69.5q0 54 24 87.5t62.5 52.5t86.5 26.5t96 9.5l77 4v22q0 59 -28.5 81.5
t-74.5 22.5q-53 0 -78.5 -18t-33.5 -52l-104 11q14 76 69 111t151 35q62 0 102.5 -16t64.5 -44t33.5 -66.5t9.5 -84.5v-325h-109v68zM331 741l117 -148h-100l-74 85l-74 -85h-101l118 148h114z" />
    <glyph glyph-name="atilde" unicode="&#xe3;" horiz-adv-x="549" 
d="M305 243q-51 -3 -82.5 -11t-48.5 -20.5t-22.5 -29t-5.5 -35.5q0 -34 21.5 -53t63.5 -19q75 0 111 38t36 103v30zM380 68q-29 -35 -71 -58t-102 -23q-37 0 -69 9.5t-55.5 28.5t-37 48.5t-13.5 69.5q0 54 24 87.5t62.5 52.5t86.5 26.5t96 9.5l77 4v22q0 59 -28.5 81.5
t-74.5 22.5q-53 0 -78.5 -18t-33.5 -52l-104 11q14 76 69 111t151 35q62 0 102.5 -16t64.5 -44t33.5 -66.5t9.5 -84.5v-325h-109v68zM91 603q0 66 29.5 98t81.5 32q18 0 35 -7.5t33.5 -16.5t32.5 -16.5t33 -7.5q42 0 42 45h79q0 -68 -29.5 -98.5t-80.5 -30.5q-19 0 -36 6
t-32 14l-29 17q-10 5 -18.5 8t-18.5 3q-43 0 -43 -46h-79z" />
    <glyph glyph-name="adieresis" unicode="&#xe4;" horiz-adv-x="549" 
d="M305 243q-51 -3 -82.5 -11t-48.5 -20.5t-22.5 -29t-5.5 -35.5q0 -34 21.5 -53t63.5 -19q75 0 111 38t36 103v30zM380 68q-29 -35 -71 -58t-102 -23q-37 0 -69 9.5t-55.5 28.5t-37 48.5t-13.5 69.5q0 54 24 87.5t62.5 52.5t86.5 26.5t96 9.5l77 4v22q0 59 -28.5 81.5
t-74.5 22.5q-53 0 -78.5 -18t-33.5 -52l-104 11q14 76 69 111t151 35q62 0 102.5 -16t64.5 -44t33.5 -66.5t9.5 -84.5v-325h-109v68zM423 724v-112h-109v112h109zM234 724v-112h-109v112h109z" />
    <glyph glyph-name="aring" unicode="&#xe5;" horiz-adv-x="549" 
d="M305 243q-51 -3 -82.5 -11t-48.5 -20.5t-22.5 -29t-5.5 -35.5q0 -34 21.5 -53t63.5 -19q75 0 111 38t36 103v30zM380 68q-29 -35 -71 -58t-102 -23q-37 0 -69 9.5t-55.5 28.5t-37 48.5t-13.5 69.5q0 54 24 87.5t62.5 52.5t86.5 26.5t96 9.5l77 4v22q0 59 -28.5 81.5
t-74.5 22.5q-53 0 -78.5 -18t-33.5 -52l-104 11q14 76 69 111t151 35q62 0 102.5 -16t64.5 -44t33.5 -66.5t9.5 -84.5v-325h-109v68zM274 646q20 0 32.5 12t12.5 37t-12 37t-33 12q-46 0 -46 -49t46 -49zM165 695q0 26 8.5 46t23.5 33.5t35 20.5t42 7q45 0 77 -28.5
t32 -78.5q0 -29 -9.5 -49t-25 -32.5t-35 -18.5t-39.5 -6q-46 0 -77.5 26t-31.5 80z" />
    <glyph glyph-name="ae" unicode="&#xe6;" horiz-adv-x="895" 
d="M738 311q0 64 -29.5 101t-92.5 37t-95 -38t-37 -100h254zM299 243q-50 -3 -80 -11t-46 -20t-21.5 -28.5t-5.5 -36.5q0 -35 21.5 -53.5t61.5 -18.5q69 0 106 36.5t37 101.5v33zM59 390q14 76 69 111t148 35q62 0 102 -20t66 -68q35 48 79 68t95 20q59 0 102.5 -18.5
t72 -52t42.5 -80t14 -103.5v-50h-367q2 -70 35.5 -114.5t100.5 -44.5q51 0 78 21t36 60h110q-15 -84 -69.5 -127t-154.5 -43q-66 0 -118.5 26.5t-80.5 80.5q-14 -20 -32 -39t-42 -33.5t-55.5 -23t-70.5 -8.5q-84 0 -135.5 37.5t-51.5 118.5q0 54 24 88t62 52.5t84.5 26
t92.5 9.5l77 4v22q0 60 -27.5 82t-72.5 22q-80 0 -99 -52q-50 -3 -97 -9z" />
    <glyph glyph-name="ccedilla" unicode="&#xe7;" horiz-adv-x="564" 
d="M194 -147q11 -1 21 -2t19 -2q33 0 41 12q31 2 29 23q-2 14 -16 20t-46 6h-29l29 78q-101 16 -148 87t-47 183q0 62 17 113.5t49.5 88t79.5 56.5t107 20q53 0 91 -14t63.5 -38t40 -56t20.5 -69l-113 -17q-8 44 -30.5 73t-75.5 29q-38 0 -63.5 -16t-40.5 -42t-21 -58.5
t-6 -66.5q0 -39 6.5 -73t22 -58.5t40.5 -39t61 -14.5q52 0 78.5 27.5t34.5 78.5h115q-11 -91 -63 -142t-152 -55l-11 -33q49 -5 67.5 -25t22.5 -47v-15q-3 -45 -41.5 -61t-100.5 -16q-13 0 -26.5 1.5t-30.5 3.5v61z" />
    <glyph glyph-name="egrave" unicode="&#xe8;" horiz-adv-x="580" 
d="M527 154q-14 -81 -69 -125.5t-158 -44.5q-124 0 -188.5 71.5t-64.5 201.5q0 67 18.5 119t52 87.5t80 54t102.5 18.5q60 0 104 -18.5t73 -52t43 -80t14 -103.5v-50h-373q2 -71 36 -115t103 -44q54 0 81 21t36 60h110zM423 311q0 64 -30 101t-96 37q-63 0 -96 -37.5
t-38 -100.5h260zM274 741l117 -148h-107l-143 148h133z" />
    <glyph glyph-name="eacute" unicode="&#xe9;" horiz-adv-x="580" 
d="M527 154q-14 -81 -69 -125.5t-158 -44.5q-124 0 -188.5 71.5t-64.5 201.5q0 67 18.5 119t52 87.5t80 54t102.5 18.5q60 0 104 -18.5t73 -52t43 -80t14 -103.5v-50h-373q2 -71 36 -115t103 -44q54 0 81 21t36 60h110zM423 311q0 64 -30 101t-96 37q-63 0 -96 -37.5
t-38 -100.5h260zM461 741l-143 -148h-107l117 148h133z" />
    <glyph glyph-name="ecircumflex" unicode="&#xea;" horiz-adv-x="580" 
d="M527 154q-14 -81 -69 -125.5t-158 -44.5q-124 0 -188.5 71.5t-64.5 201.5q0 67 18.5 119t52 87.5t80 54t102.5 18.5q60 0 104 -18.5t73 -52t43 -80t14 -103.5v-50h-373q2 -71 36 -115t103 -44q54 0 81 21t36 60h110zM423 311q0 64 -30 101t-96 37q-63 0 -96 -37.5
t-38 -100.5h260zM354 741l117 -148h-100l-74 85l-74 -85h-101l118 148h114z" />
    <glyph glyph-name="edieresis" unicode="&#xeb;" horiz-adv-x="580" 
d="M527 154q-14 -81 -69 -125.5t-158 -44.5q-124 0 -188.5 71.5t-64.5 201.5q0 67 18.5 119t52 87.5t80 54t102.5 18.5q60 0 104 -18.5t73 -52t43 -80t14 -103.5v-50h-373q2 -71 36 -115t103 -44q54 0 81 21t36 60h110zM423 311q0 64 -30 101t-96 37q-63 0 -96 -37.5
t-38 -100.5h260zM446 724v-112h-109v112h109zM257 724v-112h-109v112h109z" />
    <glyph glyph-name="igrave" unicode="&#xec;" horiz-adv-x="246" 
d="M180 520v-520h-114v520h114zM79 741l117 -148h-107l-143 148h133z" />
    <glyph glyph-name="iacute" unicode="&#xed;" horiz-adv-x="246" 
d="M180 520v-520h-114v520h114zM304 741l-143 -148h-107l117 148h133z" />
    <glyph glyph-name="icircumflex" unicode="&#xee;" horiz-adv-x="246" 
d="M180 520v-520h-114v520h114zM180 741l117 -148h-100l-74 85l-74 -85h-101l118 148h114z" />
    <glyph glyph-name="idieresis" unicode="&#xef;" horiz-adv-x="246" 
d="M180 520v-520h-114v520h114zM272 724v-112h-109v112h109zM83 724v-112h-109v112h109z" />
    <glyph glyph-name="eth" unicode="&#xf0;" horiz-adv-x="609" 
d="M443 247q0 45 -12 74.5t-32.5 47t-46.5 24.5t-54 7q-62 0 -97.5 -45t-35.5 -117q0 -73 35.5 -117.5t103.5 -44.5q67 0 103 45t36 120v6zM233 630q-23 7 -48.5 11t-53.5 6l17 88q44 -5 82.5 -12.5t75.5 -19.5l62 61l46 -48l-42 -42q94 -51 141.5 -146.5t47.5 -246.5
q0 -75 -20 -131t-54.5 -92.5t-81.5 -55t-102 -18.5q-61 0 -108.5 18.5t-80.5 52t-50 80t-17 102.5q0 58 19 105t51 80.5t75.5 51.5t93.5 18q53 0 90.5 -17t65.5 -51q-13 61 -44.5 107t-93.5 75l-74 -74l-47 49z" />
    <glyph glyph-name="ntilde" unicode="&#xf1;" horiz-adv-x="581" 
d="M175 520v-76q35 48 78.5 70t93.5 22q174 0 174 -192v-344h-114v326q0 63 -23 88.5t-68 25.5q-30 0 -55.5 -10.5t-43.5 -28.5t-28.5 -41.5t-10.5 -49.5v-310h-113v520h110zM110 603q0 66 29.5 98t81.5 32q18 0 35 -7.5t33.5 -16.5t32.5 -16.5t33 -7.5q42 0 42 45h79
q0 -68 -29.5 -98.5t-80.5 -30.5q-19 0 -36 6t-32 14l-29 17q-10 5 -18.5 8t-18.5 3q-43 0 -43 -46h-79z" />
    <glyph glyph-name="ograve" unicode="&#xf2;" horiz-adv-x="609" 
d="M304 76q72 0 105.5 49.5t33.5 135.5q0 85 -33.5 134t-105.5 49t-105.5 -49.5t-33.5 -133.5q0 -85 32.5 -135t106.5 -50zM303 -16q-122 0 -189 72t-67 204q0 62 17.5 113t50.5 87t81 56t109 20q62 0 110 -20.5t80.5 -56.5t49 -86.5t16.5 -110.5q0 -68 -19 -119.5
t-53.5 -87t-81.5 -53.5t-104 -18zM285 741l117 -148h-107l-143 148h133z" />
    <glyph glyph-name="oacute" unicode="&#xf3;" horiz-adv-x="609" 
d="M304 76q72 0 105.5 49.5t33.5 135.5q0 85 -33.5 134t-105.5 49t-105.5 -49.5t-33.5 -133.5q0 -85 32.5 -135t106.5 -50zM303 -16q-122 0 -189 72t-67 204q0 62 17.5 113t50.5 87t81 56t109 20q62 0 110 -20.5t80.5 -56.5t49 -86.5t16.5 -110.5q0 -68 -19 -119.5
t-53.5 -87t-81.5 -53.5t-104 -18zM469 741l-143 -148h-107l117 148h133z" />
    <glyph glyph-name="ocircumflex" unicode="&#xf4;" horiz-adv-x="609" 
d="M304 76q72 0 105.5 49.5t33.5 135.5q0 85 -33.5 134t-105.5 49t-105.5 -49.5t-33.5 -133.5q0 -85 32.5 -135t106.5 -50zM303 -16q-122 0 -189 72t-67 204q0 62 17.5 113t50.5 87t81 56t109 20q62 0 110 -20.5t80.5 -56.5t49 -86.5t16.5 -110.5q0 -68 -19 -119.5
t-53.5 -87t-81.5 -53.5t-104 -18zM361 741l117 -148h-100l-74 85l-74 -85h-101l118 148h114z" />
    <glyph glyph-name="otilde" unicode="&#xf5;" horiz-adv-x="609" 
d="M304 76q72 0 105.5 49.5t33.5 135.5q0 85 -33.5 134t-105.5 49t-105.5 -49.5t-33.5 -133.5q0 -85 32.5 -135t106.5 -50zM303 -16q-122 0 -189 72t-67 204q0 62 17.5 113t50.5 87t81 56t109 20q62 0 110 -20.5t80.5 -56.5t49 -86.5t16.5 -110.5q0 -68 -19 -119.5
t-53.5 -87t-81.5 -53.5t-104 -18zM121 603q0 66 29.5 98t81.5 32q18 0 35 -7.5t33.5 -16.5t32.5 -16.5t33 -7.5q42 0 42 45h79q0 -68 -29.5 -98.5t-80.5 -30.5q-19 0 -36 6t-32 14l-29 17q-10 5 -18.5 8t-18.5 3q-43 0 -43 -46h-79z" />
    <glyph glyph-name="odieresis" unicode="&#xf6;" horiz-adv-x="609" 
d="M304 76q72 0 105.5 49.5t33.5 135.5q0 85 -33.5 134t-105.5 49t-105.5 -49.5t-33.5 -133.5q0 -85 32.5 -135t106.5 -50zM303 -16q-122 0 -189 72t-67 204q0 62 17.5 113t50.5 87t81 56t109 20q62 0 110 -20.5t80.5 -56.5t49 -86.5t16.5 -110.5q0 -68 -19 -119.5
t-53.5 -87t-81.5 -53.5t-104 -18zM453 724v-112h-109v112h109zM264 724v-112h-109v112h109z" />
    <glyph glyph-name="divide" unicode="&#xf7;" 
d="M514 390v-99h-436v99h436zM349 213v-120h-108v120h108zM349 583v-120h-108v120h108z" />
    <glyph glyph-name="oslash" unicode="&#xf8;" horiz-adv-x="609" 
d="M375 426q-15 8 -32 13t-39 5q-73 0 -106 -49.5t-33 -133.5q0 -34 5 -62t18 -51zM233 93q14 -8 31 -12.5t40 -4.5q72 0 105.5 50t33.5 135q0 31 -5.5 60t-16.5 51zM121 49q-74 72 -74 211q0 63 18 114t51 87t81 55.5t108 19.5q67 0 126 -28l43 64l56 -38l-44 -65
q36 -36 55.5 -88.5t19.5 -118.5t-19 -118t-53 -87.5t-81.5 -54t-104.5 -18.5q-36 0 -67.5 7t-59.5 20l-47 -71l-56 38z" />
    <glyph glyph-name="ugrave" unicode="&#xf9;" horiz-adv-x="574" 
d="M174 520v-327q0 -65 21.5 -89t65.5 -24q24 0 48.5 9t43.5 26t31 41t12 54v310h114v-520h-111v76q-36 -48 -78 -70t-90 -22q-91 0 -130.5 47t-39.5 144v345h113zM263 741l117 -148h-107l-143 148h133z" />
    <glyph glyph-name="uacute" unicode="&#xfa;" horiz-adv-x="574" 
d="M174 520v-327q0 -65 21.5 -89t65.5 -24q24 0 48.5 9t43.5 26t31 41t12 54v310h114v-520h-111v76q-36 -48 -78 -70t-90 -22q-91 0 -130.5 47t-39.5 144v345h113zM450 741l-143 -148h-107l117 148h133z" />
    <glyph glyph-name="ucircumflex" unicode="&#xfb;" horiz-adv-x="574" 
d="M174 520v-327q0 -65 21.5 -89t65.5 -24q24 0 48.5 9t43.5 26t31 41t12 54v310h114v-520h-111v76q-36 -48 -78 -70t-90 -22q-91 0 -130.5 47t-39.5 144v345h113zM345 741l117 -148h-100l-74 85l-74 -85h-101l118 148h114z" />
    <glyph glyph-name="udieresis" unicode="&#xfc;" horiz-adv-x="574" 
d="M174 520v-327q0 -65 21.5 -89t65.5 -24q24 0 48.5 9t43.5 26t31 41t12 54v310h114v-520h-111v76q-36 -48 -78 -70t-90 -22q-91 0 -130.5 47t-39.5 144v345h113zM436 724v-112h-109v112h109zM247 724v-112h-109v112h109z" />
    <glyph glyph-name="yacute" unicode="&#xfd;" horiz-adv-x="545" 
d="M71 -92q25 -9 57 -9q30 0 47 14.5t32 54.5l19 50l-219 502h132l143 -375l131 375h124l-207 -525q-18 -46 -34 -81t-36 -59t-47.5 -36.5t-67.5 -12.5q-26 0 -48 3.5t-47 11.5zM434 741l-143 -148h-107l117 148h133z" />
    <glyph glyph-name="thorn" unicode="&#xfe;" horiz-adv-x="611" 
d="M178 243q1 -50 12.5 -82t30 -51t42.5 -26t50 -7q28 0 52 10t42 31.5t28 56.5t10 86q0 49 -10.5 83.5t-27.5 56t-40.5 31.5t-48.5 10q-37 0 -63.5 -12t-43.5 -34t-25 -52.5t-8 -67.5v-25v-8zM179 714v-262q31 41 72.5 62.5t93.5 21.5q56 0 97 -20t68 -56t40.5 -86.5
t13.5 -111.5q0 -64 -16 -115.5t-46 -87.5t-72 -55.5t-94 -19.5q-45 0 -84.5 16t-72.5 59v-253h-113v908h113z" />
    <glyph glyph-name="ydieresis" unicode="&#xff;" horiz-adv-x="545" 
d="M71 -92q25 -9 57 -9q30 0 47 14.5t32 54.5l19 50l-219 502h132l143 -375l131 375h124l-207 -525q-18 -46 -34 -81t-36 -59t-47.5 -36.5t-67.5 -12.5q-26 0 -48 3.5t-47 11.5zM423 724v-112h-109v112h109zM234 724v-112h-109v112h109z" />
    <glyph glyph-name="Amacron" unicode="&#x100;" horiz-adv-x="686" 
d="M283 714h120l272 -714h-129l-67 182h-277l-66 -182h-125zM446 283l-106 294l-105 -294h211zM493 885v-92h-301v92h301z" />
    <glyph glyph-name="amacron" unicode="&#x101;" horiz-adv-x="549" 
d="M305 243q-51 -3 -82.5 -11t-48.5 -20.5t-22.5 -29t-5.5 -35.5q0 -34 21.5 -53t63.5 -19q75 0 111 38t36 103v30zM380 68q-29 -35 -71 -58t-102 -23q-37 0 -69 9.5t-55.5 28.5t-37 48.5t-13.5 69.5q0 54 24 87.5t62.5 52.5t86.5 26.5t96 9.5l77 4v22q0 59 -28.5 81.5
t-74.5 22.5q-53 0 -78.5 -18t-33.5 -52l-104 11q14 76 69 111t151 35q62 0 102.5 -16t64.5 -44t33.5 -66.5t9.5 -84.5v-325h-109v68zM408 706v-89h-276v89h276z" />
    <glyph glyph-name="Abreve" unicode="&#x102;" horiz-adv-x="686" 
d="M283 714h120l272 -714h-129l-67 182h-277l-66 -182h-125zM446 283l-106 294l-105 -294h211zM277 919q0 -40 19.5 -57t45.5 -17t45 16.5t19 57.5h86q0 -74 -41 -110t-109 -36q-71 0 -110.5 37t-39.5 109h85z" />
    <glyph glyph-name="abreve" unicode="&#x103;" horiz-adv-x="549" 
d="M305 243q-51 -3 -82.5 -11t-48.5 -20.5t-22.5 -29t-5.5 -35.5q0 -34 21.5 -53t63.5 -19q75 0 111 38t36 103v30zM380 68q-29 -35 -71 -58t-102 -23q-37 0 -69 9.5t-55.5 28.5t-37 48.5t-13.5 69.5q0 54 24 87.5t62.5 52.5t86.5 26.5t96 9.5l77 4v22q0 59 -28.5 81.5
t-74.5 22.5q-53 0 -78.5 -18t-33.5 -52l-104 11q14 76 69 111t151 35q62 0 102.5 -16t64.5 -44t33.5 -66.5t9.5 -84.5v-325h-109v68zM209 738q0 -41 19 -58t45 -17q25 0 44 17t19 58h84q0 -74 -40 -111t-107 -37q-69 0 -107 37.5t-38 110.5h81z" />
    <glyph glyph-name="Aogonek" unicode="&#x104;" horiz-adv-x="686" 
d="M340 577l-105 -294h211zM403 714l272 -714q-28 -17 -47 -36t-21 -39q-3 -18 5 -27q8 -17 33 -17q8 0 13.5 0.5t16.5 2.5v-75q-11 -2 -20.5 -2h-20.5q-61 0 -89.5 15.5t-35.5 46.5q-3 12 -3 23q0 31 19 56.5t56 51.5h-35l-67 182h-277l-66 -182h-125l272 714h120z" />
    <glyph glyph-name="aogonek" unicode="&#x105;" horiz-adv-x="549" 
d="M305 243q-51 -3 -82.5 -11t-48.5 -20.5t-22.5 -29t-5.5 -35.5q0 -34 21.5 -53t63.5 -19q75 0 111 38t36 103v30zM374 61q-30 -32 -69.5 -53t-97.5 -21q-37 0 -69 9.5t-55.5 28.5t-37 48.5t-13.5 69.5q0 54 24 87.5t62 52.5t86.5 26.5t96.5 9.5l77 4v22q0 58 -27.5 81
t-75.5 23q-53 0 -78.5 -18t-33.5 -52l-104 11q14 76 69 111t151 35q59 0 99 -14.5t65 -41t35.5 -64t10.5 -83.5v-333q-29 -17 -47.5 -37t-20.5 -41q0 -10 1 -14q4 -11 12.5 -16t19.5 -6q5 -1 9 -0.5t8 0.5q3 0 7.5 0.5t9.5 0.5v-72q-8 -1 -14.5 -1.5t-13.5 -0.5h-18t-20 1
q-46 2 -66 19t-26 40q-3 17 -2 31q2 28 20 52t50 44l-18 9v59z" />
    <glyph glyph-name="Cacute" unicode="&#x106;" horiz-adv-x="712" 
d="M674 241q-6 -56 -27 -103t-58 -82t-90 -54.5t-123 -19.5q-77 0 -137.5 26t-102 74.5t-63 118t-21.5 155.5q0 88 23.5 158t66.5 118.5t103 74t132 25.5q67 0 116 -17t83.5 -48.5t55 -75.5t30.5 -98l-119 -17q-8 36 -20 64t-31.5 47.5t-47.5 30t-67 10.5q-48 0 -85 -19
t-62.5 -54.5t-38.5 -85.5t-13 -112q0 -63 13.5 -113t39.5 -85.5t62.5 -54t83.5 -18.5q42 0 71.5 11t49.5 31t31.5 48.5t16.5 64.5h128zM546 912l-149 -139h-109l123 139h135z" />
    <glyph glyph-name="cacute" unicode="&#x107;" horiz-adv-x="564" 
d="M523 182q-10 -93 -66.5 -145.5t-161.5 -52.5q-63 0 -109.5 19.5t-77.5 55.5t-46 86.5t-15 112.5t17 113.5t49.5 88t79.5 56.5t107 20q55 0 93 -14.5t63 -39t39 -56.5t20 -67l-113 -17q-8 44 -30.5 73t-75.5 29q-38 0 -63 -16t-40 -41.5t-21.5 -58.5t-6.5 -67q0 -39 7 -73
t22 -58.5t40 -39t61 -14.5q52 0 79 27.5t34 78.5h115zM456 741l-143 -148h-107l117 148h133z" />
    <glyph glyph-name="Ccircumflex" unicode="&#x108;" horiz-adv-x="712" 
d="M674 241q-6 -56 -27 -103t-58 -82t-90 -54.5t-123 -19.5q-77 0 -137.5 26t-102 74.5t-63 118t-21.5 155.5q0 88 23.5 158t66.5 118.5t103 74t132 25.5q67 0 116 -17t83.5 -48.5t55 -75.5t30.5 -98l-119 -17q-8 36 -20 64t-31.5 47.5t-47.5 30t-67 10.5q-48 0 -85 -19
t-62.5 -54.5t-38.5 -85.5t-13 -112q0 -63 13.5 -113t39.5 -85.5t62.5 -54t83.5 -18.5q42 0 71.5 11t49.5 31t31.5 48.5t16.5 64.5h128zM432 912l118 -139h-101l-74 75l-74 -75h-101l118 139h114z" />
    <glyph glyph-name="ccircumflex" unicode="&#x109;" horiz-adv-x="564" 
d="M523 182q-10 -93 -66.5 -145.5t-161.5 -52.5q-63 0 -109.5 19.5t-77.5 55.5t-46 86.5t-15 112.5t17 113.5t49.5 88t79.5 56.5t107 20q55 0 93 -14.5t63 -39t39 -56.5t20 -67l-113 -17q-8 44 -30.5 73t-75.5 29q-38 0 -63 -16t-40 -41.5t-21.5 -58.5t-6.5 -67q0 -39 7 -73
t22 -58.5t40 -39t61 -14.5q52 0 79 27.5t34 78.5h115zM353 741l117 -148h-100l-74 85l-74 -85h-101l118 148h114z" />
    <glyph glyph-name="Cdotaccent" unicode="&#x10a;" horiz-adv-x="712" 
d="M674 241q-6 -56 -27 -103t-58 -82t-90 -54.5t-123 -19.5q-77 0 -137.5 26t-102 74.5t-63 118t-21.5 155.5q0 88 23.5 158t66.5 118.5t103 74t132 25.5q67 0 116 -17t83.5 -48.5t55 -75.5t30.5 -98l-119 -17q-8 36 -20 64t-31.5 47.5t-47.5 30t-67 10.5q-48 0 -85 -19
t-62.5 -54.5t-38.5 -85.5t-13 -112q0 -63 13.5 -113t39.5 -85.5t62.5 -54t83.5 -18.5q42 0 71.5 11t49.5 31t31.5 48.5t16.5 64.5h128zM434 904v-120h-117v120h117z" />
    <glyph glyph-name="cdotaccent" unicode="&#x10b;" horiz-adv-x="564" 
d="M523 182q-10 -93 -66.5 -145.5t-161.5 -52.5q-63 0 -109.5 19.5t-77.5 55.5t-46 86.5t-15 112.5t17 113.5t49.5 88t79.5 56.5t107 20q55 0 93 -14.5t63 -39t39 -56.5t20 -67l-113 -17q-8 44 -30.5 73t-75.5 29q-38 0 -63 -16t-40 -41.5t-21.5 -58.5t-6.5 -67q0 -39 7 -73
t22 -58.5t40 -39t61 -14.5q52 0 79 27.5t34 78.5h115zM352 725v-114h-111v114h111z" />
    <glyph glyph-name="Ccaron" unicode="&#x10c;" horiz-adv-x="712" 
d="M674 241q-6 -56 -27 -103t-58 -82t-90 -54.5t-123 -19.5q-77 0 -137.5 26t-102 74.5t-63 118t-21.5 155.5q0 88 23.5 158t66.5 118.5t103 74t132 25.5q67 0 116 -17t83.5 -48.5t55 -75.5t30.5 -98l-119 -17q-8 36 -20 64t-31.5 47.5t-47.5 30t-67 10.5q-48 0 -85 -19
t-62.5 -54.5t-38.5 -85.5t-13 -112q0 -63 13.5 -113t39.5 -85.5t62.5 -54t83.5 -18.5q42 0 71.5 11t49.5 31t31.5 48.5t16.5 64.5h128zM301 916l75 -76l73 76h101l-118 -140h-114l-118 140h101z" />
    <glyph glyph-name="ccaron" unicode="&#x10d;" horiz-adv-x="564" 
d="M523 182q-10 -93 -66.5 -145.5t-161.5 -52.5q-63 0 -109.5 19.5t-77.5 55.5t-46 86.5t-15 112.5t17 113.5t49.5 88t79.5 56.5t107 20q55 0 93 -14.5t63 -39t39 -56.5t20 -67l-113 -17q-8 44 -30.5 73t-75.5 29q-38 0 -63 -16t-40 -41.5t-21.5 -58.5t-6.5 -67q0 -39 7 -73
t22 -58.5t40 -39t61 -14.5q52 0 79 27.5t34 78.5h115zM239 593l-118 149h101l74 -86l74 86h100l-117 -149h-114z" />
    <glyph glyph-name="Dcaron" unicode="&#x10e;" horiz-adv-x="726" 
d="M314 103q63 0 107.5 18t73 52t41.5 81t13 106q0 118 -50 184.5t-164 66.5h-138v-508h117zM334 714q79 0 142 -21.5t107 -65.5t67.5 -110.5t23.5 -155.5t-25 -156.5t-72 -113t-114.5 -68.5t-152.5 -23h-234v714h258zM237 916l75 -76l73 76h101l-118 -140h-114l-118 140
h101z" />
    <glyph glyph-name="dcaron" unicode="&#x10f;" horiz-adv-x="609" 
d="M432 271q0 49 -10.5 82.5t-29 53t-43 28t-51.5 8.5q-63 0 -97.5 -45t-34.5 -137q0 -50 9.5 -85t27 -57t40.5 -32t50 -10q62 0 100.5 40.5t38.5 126.5v27zM433 72q-32 -44 -72.5 -66t-94.5 -22q-56 0 -97 20t-68 56.5t-40.5 87t-13.5 111.5q0 57 14 106.5t41 86t66.5 58.5
t91.5 24q10 1 20 0.5t21 -1.5q35 -4 67.5 -19.5t62.5 -51.5v252h113v-714h-111v72zM748 714l-53 -224h-85l30 224h108z" />
    <glyph glyph-name="Dcroat" unicode="&#x110;" horiz-adv-x="741" 
d="M329 103q123 0 179 68.5t56 188.5q0 59 -12.5 105.5t-38.5 79t-66.5 49.5t-96.5 17h-138v-192h167v-101h-167v-215h117zM10 318v101h81v295h259q159 0 249 -89t90 -264q0 -92 -26.5 -160t-74 -112.5t-114.5 -66.5t-148 -22h-235v318h-81z" />
    <glyph glyph-name="dcroat" unicode="&#x111;" horiz-adv-x="616" 
d="M433 253q0 43 -10.5 74t-28.5 50.5t-43 29t-53 9.5q-58 0 -95 -42t-37 -128q0 -46 10.5 -78t27.5 -52.5t40 -29.5t49 -9q69 0 104.5 45t35.5 120v11zM434 72q-32 -43 -72.5 -65.5t-94.5 -22.5q-59 0 -100.5 21t-68 57t-39 83.5t-12.5 99.5q0 53 14.5 101t43.5 84t72 57.5
t99 21.5q40 0 80 -15.5t75 -59.5v135h-162v74h162v71h114v-71h68v-74h-68v-569h-111v72z" />
    <glyph glyph-name="Emacron" unicode="&#x112;" horiz-adv-x="599" 
d="M76 714h475v-104h-354v-190h334v-105h-334v-211h373l-14 -104h-480v714zM469 885v-92h-301v92h301z" />
    </font>
</defs>
</svg>
